<svg width="80" height="103" viewBox="0 0 80 103" fill="none" xmlns="http://www.w3.org/2000/svg">
<rect width="80" height="80" rx="8" fill="#F3F3F3"/>
<path d="M22.7375 20.3125L25.8797 55.5884L39.9791 59.5197L54.1178 55.5741L57.2625 20.3125H22.7375ZM50.7347 28.3944L49.6887 40.1459L49.6919 40.2094L49.6875 40.3553V40.3541L48.9444 48.5709L48.8625 49.3009L40 51.7522L39.9931 51.7584L31.1459 49.2934L30.5469 42.5H34.8853L35.1931 45.9544L40.0012 47.2575L40 47.26V47.2594L44.8259 45.9378L45.3359 40.3125H35.2475L35.1609 39.3616L34.9637 37.1337L34.8603 35.9375H45.7194L46.1144 31.5625H29.575L29.4884 30.6122L29.2916 28.3837L29.1878 27.1875H50.8381L50.7347 28.3944Z" fill="#1572B6"/>
<path d="M32.2417 94H31.1848C31.1223 93.696 31.013 93.429 30.8567 93.1989C30.7033 92.9688 30.5158 92.7756 30.2942 92.6193C30.0755 92.4602 29.8326 92.3409 29.5655 92.2614C29.2985 92.1818 29.0201 92.142 28.7303 92.142C28.2019 92.142 27.7232 92.2756 27.2942 92.5426C26.8681 92.8097 26.5286 93.2031 26.2757 93.723C26.0257 94.2429 25.9007 94.8807 25.9007 95.6364C25.9007 96.392 26.0257 97.0298 26.2757 97.5497C26.5286 98.0696 26.8681 98.4631 27.2942 98.7301C27.7232 98.9972 28.2019 99.1307 28.7303 99.1307C29.0201 99.1307 29.2985 99.0909 29.5655 99.0114C29.8326 98.9318 30.0755 98.8139 30.2942 98.6577C30.5158 98.4986 30.7033 98.304 30.8567 98.0739C31.013 97.8409 31.1223 97.5739 31.1848 97.2727H32.2417C32.1621 97.7187 32.0172 98.1179 31.807 98.4702C31.5968 98.8224 31.3354 99.1222 31.0229 99.3693C30.7104 99.6136 30.3596 99.7997 29.9703 99.9276C29.584 100.055 29.1706 100.119 28.7303 100.119C27.986 100.119 27.324 99.9375 26.7445 99.5739C26.165 99.2102 25.709 98.6932 25.3766 98.0227C25.0442 97.3523 24.878 96.5568 24.878 95.6364C24.878 94.7159 25.0442 93.9205 25.3766 93.25C25.709 92.5795 26.165 92.0625 26.7445 91.6989C27.324 91.3352 27.986 91.1534 28.7303 91.1534C29.1706 91.1534 29.584 91.2173 29.9703 91.3452C30.3596 91.473 30.7104 91.6605 31.0229 91.9077C31.3354 92.152 31.5968 92.4503 31.807 92.8026C32.0172 93.152 32.1621 93.5511 32.2417 94ZM38.7221 93.4545C38.671 93.0227 38.4636 92.6875 38.1 92.4489C37.7363 92.2102 37.2903 92.0909 36.7619 92.0909C36.3755 92.0909 36.0375 92.1534 35.7477 92.2784C35.4608 92.4034 35.2363 92.5753 35.0744 92.794C34.9153 93.0128 34.8358 93.2614 34.8358 93.5398C34.8358 93.7727 34.8912 93.973 35.002 94.1406C35.1156 94.3054 35.2605 94.4432 35.4366 94.554C35.6127 94.6619 35.7974 94.7514 35.9906 94.8224C36.1838 94.8906 36.3613 94.946 36.5233 94.9886L37.4096 95.2273C37.6369 95.2869 37.8897 95.3693 38.1681 95.4744C38.4494 95.5795 38.7179 95.723 38.9735 95.9048C39.2321 96.0838 39.4451 96.3139 39.6127 96.5952C39.7804 96.8764 39.8642 97.2216 39.8642 97.6307C39.8642 98.1023 39.7406 98.5284 39.4934 98.9091C39.2491 99.2898 38.8912 99.5923 38.4196 99.8168C37.9508 100.041 37.3812 100.153 36.7108 100.153C36.0858 100.153 35.5446 100.053 35.0872 99.8509C34.6326 99.6491 34.2747 99.3679 34.0133 99.0071C33.7548 98.6463 33.6085 98.2273 33.5744 97.75H34.6653C34.6937 98.0795 34.8045 98.3523 34.9977 98.5682C35.1937 98.7812 35.4409 98.9403 35.7392 99.0455C36.0403 99.1477 36.3642 99.1989 36.7108 99.1989C37.1142 99.1989 37.4764 99.1335 37.7974 99.0028C38.1184 98.8693 38.3727 98.6847 38.5602 98.4489C38.7477 98.2102 38.8414 97.9318 38.8414 97.6136C38.8414 97.3239 38.7605 97.0881 38.5985 96.9062C38.4366 96.7244 38.2235 96.5767 37.9593 96.4631C37.6951 96.3494 37.4096 96.25 37.1028 96.1648L36.0289 95.858C35.3471 95.6619 34.8074 95.3821 34.4096 95.0185C34.0119 94.6548 33.813 94.179 33.813 93.5909C33.813 93.1023 33.9451 92.6761 34.2093 92.3125C34.4764 91.946 34.8343 91.6619 35.2832 91.4602C35.7349 91.2557 36.2392 91.1534 36.796 91.1534C37.3585 91.1534 37.8585 91.2543 38.296 91.456C38.7335 91.6548 39.0801 91.9276 39.3358 92.2741C39.5943 92.6207 39.7306 93.0142 39.7449 93.4545H38.7221ZM46.3745 93.4545C46.3233 93.0227 46.1159 92.6875 45.7523 92.4489C45.3887 92.2102 44.9426 92.0909 44.4142 92.0909C44.0279 92.0909 43.6898 92.1534 43.4 92.2784C43.1131 92.4034 42.8887 92.5753 42.7267 92.794C42.5676 93.0128 42.4881 93.2614 42.4881 93.5398C42.4881 93.7727 42.5435 93.973 42.6543 94.1406C42.7679 94.3054 42.9128 94.4432 43.089 94.554C43.2651 94.6619 43.4498 94.7514 43.6429 94.8224C43.8361 94.8906 44.0137 94.946 44.1756 94.9886L45.062 95.2273C45.2892 95.2869 45.5421 95.3693 45.8205 95.4744C46.1017 95.5795 46.3702 95.723 46.6259 95.9048C46.8844 96.0838 47.0975 96.3139 47.2651 96.5952C47.4327 96.8764 47.5165 97.2216 47.5165 97.6307C47.5165 98.1023 47.3929 98.5284 47.1458 98.9091C46.9015 99.2898 46.5435 99.5923 46.0719 99.8168C45.6032 100.041 45.0336 100.153 44.3631 100.153C43.7381 100.153 43.1969 100.053 42.7395 99.8509C42.285 99.6491 41.927 99.3679 41.6657 99.0071C41.4071 98.6463 41.2608 98.2273 41.2267 97.75H42.3176C42.3461 98.0795 42.4569 98.3523 42.65 98.5682C42.8461 98.7812 43.0932 98.9403 43.3915 99.0455C43.6926 99.1477 44.0165 99.1989 44.3631 99.1989C44.7665 99.1989 45.1287 99.1335 45.4498 99.0028C45.7708 98.8693 46.025 98.6847 46.2125 98.4489C46.4 98.2102 46.4938 97.9318 46.4938 97.6136C46.4938 97.3239 46.4128 97.0881 46.2509 96.9062C46.089 96.7244 45.8759 96.5767 45.6117 96.4631C45.3475 96.3494 45.062 96.25 44.7551 96.1648L43.6813 95.858C42.9995 95.6619 42.4597 95.3821 42.062 95.0185C41.6642 94.6548 41.4654 94.179 41.4654 93.5909C41.4654 93.1023 41.5975 92.6761 41.8617 92.3125C42.1287 91.946 42.4867 91.6619 42.9355 91.4602C43.3873 91.2557 43.8915 91.1534 44.4483 91.1534C45.0108 91.1534 45.5108 91.2543 45.9483 91.456C46.3858 91.6548 46.7324 91.9276 46.9881 92.2741C47.2466 92.6207 47.383 93.0142 47.3972 93.4545H46.3745ZM52.0495 100.119C51.487 100.119 50.9856 100.023 50.5453 99.8295C50.1078 99.6364 49.7598 99.3679 49.5012 99.0241C49.2456 98.6776 49.1064 98.2756 49.0836 97.8182H50.1575C50.1802 98.0994 50.2768 98.3423 50.4473 98.5469C50.6177 98.7486 50.8407 98.9048 51.1163 99.0156C51.3919 99.1264 51.6973 99.1818 52.0325 99.1818C52.4075 99.1818 52.7399 99.1165 53.0297 98.9858C53.3194 98.8551 53.5467 98.6733 53.7115 98.4403C53.8762 98.2074 53.9586 97.9375 53.9586 97.6307C53.9586 97.3097 53.8791 97.027 53.72 96.7827C53.5609 96.5355 53.3279 96.3423 53.0211 96.2031C52.7143 96.0639 52.3393 95.9943 51.8961 95.9943H51.1973V95.0568H51.8961C52.2427 95.0568 52.5467 94.9943 52.8081 94.8693C53.0723 94.7443 53.2782 94.5682 53.426 94.3409C53.5765 94.1136 53.6518 93.8466 53.6518 93.5398C53.6518 93.2443 53.5865 92.9872 53.4558 92.7685C53.3251 92.5497 53.1404 92.3793 52.9018 92.2571C52.666 92.1349 52.3876 92.0739 52.0666 92.0739C51.7654 92.0739 51.4814 92.1293 51.2143 92.2401C50.9501 92.348 50.7342 92.5057 50.5666 92.7131C50.399 92.9176 50.3081 93.1648 50.2939 93.4545H49.2711C49.2882 92.9972 49.426 92.5966 49.6845 92.2528C49.943 91.9062 50.2811 91.6364 50.6987 91.4432C51.1191 91.25 51.5808 91.1534 52.0836 91.1534C52.6234 91.1534 53.0865 91.2628 53.4728 91.4815C53.8592 91.6974 54.1561 91.983 54.3635 92.3381C54.5708 92.6932 54.6745 93.0767 54.6745 93.4886C54.6745 93.9801 54.5453 94.3991 54.2868 94.7457C54.0311 95.0923 53.6831 95.3324 53.2427 95.4659V95.5341C53.7939 95.625 54.2243 95.8594 54.5339 96.2372C54.8436 96.6122 54.9984 97.0767 54.9984 97.6307C54.9984 98.1051 54.8691 98.5312 54.6106 98.9091C54.3549 99.2841 54.0055 99.5795 53.5623 99.7955C53.1191 100.011 52.6149 100.119 52.0495 100.119Z" fill="#0D1117"/>
</svg>
