<svg width="80" height="103" viewBox="0 0 80 103" fill="none" xmlns="http://www.w3.org/2000/svg">
<path d="M24.3596 100V91.2727H29.5925V92.2102H25.4164V95.1591H29.2005V96.0966H25.4164V100H24.3596ZM31.2662 100V93.4545H32.2718V100H31.2662ZM31.7775 92.3636C31.5815 92.3636 31.4125 92.2969 31.2704 92.1634C31.1312 92.0298 31.0616 91.8693 31.0616 91.6818C31.0616 91.4943 31.1312 91.3338 31.2704 91.2003C31.4125 91.0668 31.5815 91 31.7775 91C31.9735 91 32.1412 91.0668 32.2804 91.2003C32.4224 91.3338 32.4934 91.4943 32.4934 91.6818C32.4934 91.8693 32.4224 92.0298 32.2804 92.1634C32.1412 92.2969 31.9735 92.3636 31.7775 92.3636ZM36.7559 102.591C36.2701 102.591 35.8525 102.528 35.503 102.403C35.1536 102.281 34.8624 102.119 34.6294 101.918C34.3993 101.719 34.2161 101.506 34.0797 101.278L34.8809 100.716C34.9718 100.835 35.0868 100.972 35.226 101.125C35.3652 101.281 35.5556 101.416 35.7971 101.53C36.0414 101.646 36.361 101.705 36.7559 101.705C37.2843 101.705 37.7203 101.577 38.0641 101.321C38.4078 101.065 38.5797 100.665 38.5797 100.119V98.7898H38.4945C38.4206 98.9091 38.3155 99.0568 38.1792 99.233C38.0456 99.4062 37.8525 99.5611 37.5996 99.6974C37.3496 99.831 37.0115 99.8977 36.5854 99.8977C36.057 99.8977 35.5826 99.7727 35.1621 99.5227C34.7445 99.2727 34.4135 98.9091 34.1692 98.4318C33.9277 97.9545 33.807 97.375 33.807 96.6932C33.807 96.0227 33.9249 95.4389 34.1607 94.9418C34.3965 94.4418 34.7246 94.0554 35.1451 93.7827C35.5655 93.5071 36.0513 93.3693 36.6025 93.3693C37.0286 93.3693 37.3667 93.4403 37.6167 93.5824C37.8695 93.7216 38.0627 93.8807 38.1962 94.0597C38.3326 94.2358 38.4377 94.3807 38.5115 94.4943H38.6138V93.4545H39.5854V100.188C39.5854 100.75 39.4576 101.207 39.2019 101.56C38.949 101.915 38.6081 102.175 38.1792 102.339C37.753 102.507 37.2786 102.591 36.7559 102.591ZM36.7218 98.9943C37.1252 98.9943 37.4661 98.902 37.7445 98.7173C38.0229 98.5327 38.2346 98.267 38.3794 97.9205C38.5243 97.5739 38.5968 97.1591 38.5968 96.6761C38.5968 96.2045 38.5257 95.7884 38.3837 95.4276C38.2417 95.0668 38.0314 94.7841 37.753 94.5795C37.4746 94.375 37.1309 94.2727 36.7218 94.2727C36.2956 94.2727 35.9405 94.3807 35.6564 94.5966C35.3752 94.8125 35.1635 95.1023 35.0215 95.4659C34.8823 95.8295 34.8127 96.233 34.8127 96.6761C34.8127 97.1307 34.8837 97.5327 35.0257 97.8821C35.1706 98.2287 35.3837 98.5014 35.665 98.7003C35.949 98.8963 36.3013 98.9943 36.7218 98.9943ZM41.4263 100V93.4545H42.3979V94.4773H42.4831C42.6195 94.1278 42.8397 93.8565 43.1436 93.6634C43.4476 93.4673 43.8127 93.3693 44.2388 93.3693C44.6706 93.3693 45.03 93.4673 45.3169 93.6634C45.6067 93.8565 45.8326 94.1278 45.9945 94.4773H46.0627C46.2303 94.1392 46.4817 93.8707 46.8169 93.6719C47.1522 93.4702 47.5542 93.3693 48.0229 93.3693C48.6081 93.3693 49.0868 93.5526 49.459 93.919C49.8311 94.2827 50.0172 94.8494 50.0172 95.6193V100H49.0115V95.6193C49.0115 95.1364 48.8794 94.7912 48.6152 94.5838C48.351 94.3764 48.04 94.2727 47.682 94.2727C47.2218 94.2727 46.8652 94.4119 46.6124 94.6903C46.3596 94.9659 46.2331 95.3153 46.2331 95.7386V100H45.2104V95.517C45.2104 95.1449 45.0897 94.8452 44.8482 94.6179C44.6067 94.3878 44.2956 94.2727 43.915 94.2727C43.6536 94.2727 43.4093 94.3423 43.182 94.4815C42.9576 94.6207 42.7757 94.8139 42.6365 95.0611C42.5002 95.3054 42.432 95.5881 42.432 95.9091V100H41.4263ZM53.7821 100.153C53.3674 100.153 52.9909 100.075 52.6529 99.919C52.3148 99.7599 52.0463 99.5312 51.8475 99.233C51.6486 98.9318 51.5492 98.5682 51.5492 98.142C51.5492 97.767 51.623 97.4631 51.7708 97.2301C51.9185 96.9943 52.1159 96.8097 52.3631 96.6761C52.6103 96.5426 52.883 96.4432 53.1813 96.3778C53.4824 96.3097 53.785 96.2557 54.089 96.2159C54.4867 96.1648 54.8091 96.1264 55.0563 96.1009C55.3063 96.0724 55.4881 96.0256 55.6017 95.9602C55.7182 95.8949 55.7765 95.7812 55.7765 95.6193V95.5852C55.7765 95.1648 55.6614 94.8381 55.4313 94.6051C55.204 94.3722 54.8588 94.2557 54.3958 94.2557C53.9157 94.2557 53.5392 94.3608 53.2665 94.571C52.9938 94.7812 52.802 95.0057 52.6912 95.2443L51.7367 94.9034C51.9071 94.5057 52.1344 94.196 52.4185 93.9744C52.7054 93.75 53.0179 93.5937 53.356 93.5057C53.6969 93.4148 54.0321 93.3693 54.3617 93.3693C54.5719 93.3693 54.8134 93.3949 55.0861 93.446C55.3617 93.4943 55.6273 93.5952 55.883 93.7486C56.1415 93.902 56.356 94.1335 56.5265 94.4432C56.6969 94.7528 56.7821 95.1676 56.7821 95.6875V100H55.7765V99.1136H55.7253C55.6571 99.2557 55.5435 99.4077 55.3844 99.5696C55.2253 99.7315 55.0137 99.8693 54.7495 99.983C54.4853 100.097 54.1628 100.153 53.7821 100.153ZM53.9355 99.25C54.3333 99.25 54.6685 99.1719 54.9412 99.0156C55.2168 98.8594 55.4242 98.6577 55.5634 98.4105C55.7054 98.1634 55.7765 97.9034 55.7765 97.6307V96.7102C55.7338 96.7614 55.6401 96.8082 55.4952 96.8509C55.3532 96.8906 55.1884 96.9261 55.0009 96.9574C54.8162 96.9858 54.6358 97.0114 54.4597 97.0341C54.2864 97.054 54.1458 97.071 54.0378 97.0852C53.7765 97.1193 53.5321 97.1747 53.3049 97.2514C53.0804 97.3253 52.8986 97.4375 52.7594 97.5881C52.623 97.7358 52.5549 97.9375 52.5549 98.1932C52.5549 98.5426 52.6841 98.8068 52.9426 98.9858C53.204 99.1619 53.535 99.25 53.9355 99.25Z" fill="#0D1117"/>
<rect width="80" height="80" rx="8" fill="#F3F3F3"/>
<g clip-path="url(#clip0_366_86)">
<path d="M34.2188 60.3125C37.9375 60.3125 40.9375 57.3125 40.9375 53.5938V46.875H34.2188C30.5 46.875 27.5 49.875 27.5 53.5938C27.5 57.3125 30.5 60.3125 34.2188 60.3125Z" fill="#0ACF83"/>
<path d="M27.9844 40.6328C27.9844 36.9141 30.9844 33.9141 34.7031 33.9141H41.4219V47.3516H34.7031C30.9844 47.3516 27.9844 44.3516 27.9844 40.6328Z" fill="#A259FF"/>
<path d="M27.5 26.7188C27.5 23 30.5 20 34.2188 20H40.9375V33.4375H34.2188C30.5 33.4375 27.5 30.4375 27.5 26.7188Z" fill="#F24E1E"/>
<path d="M40.9375 20H47.6563C51.375 20 54.375 23 54.375 26.7188C54.375 30.4375 51.375 33.4375 47.6563 33.4375H40.9375V20Z" fill="#FF7262"/>
<path d="M54.375 40.1563C54.375 43.875 51.375 46.875 47.6563 46.875C43.9375 46.875 40.9375 43.875 40.9375 40.1563C40.9375 36.4375 43.9375 33.4375 47.6563 33.4375C51.375 33.4375 54.375 36.4375 54.375 40.1563Z" fill="#1ABCFE"/>
</g>
<defs>
<clipPath id="clip0_366_86">
<rect width="40" height="40" fill="white" transform="translate(20 20)"/>
</clipPath>
</defs>
</svg>
