<svg width="80" height="103" viewBox="0 0 80 103" fill="none" xmlns="http://www.w3.org/2000/svg">
<rect width="80" height="80" rx="8" fill="#F3F3F3"/>
<g clip-path="url(#clip0_368_240)">
<path d="M58.9803 38.2432L41.7566 21.02C40.7653 20.0282 39.1566 20.0282 38.1638 21.02L34.5875 24.5969L39.1244 29.1338C40.1791 28.7778 41.3878 29.0166 42.2281 29.8569C43.0728 30.7025 43.3097 31.9216 42.945 32.9797L47.3175 37.3525C48.3753 36.9878 49.5963 37.2235 50.4406 38.0697C51.6219 39.25 51.6219 41.1635 50.4406 42.3444C50.1599 42.6253 49.8266 42.848 49.4598 43C49.0929 43.152 48.6997 43.2303 48.3027 43.2303C47.9056 43.2303 47.5124 43.152 47.1455 43C46.7787 42.848 46.4454 42.6253 46.1647 42.3444C45.7429 41.9224 45.4554 41.3851 45.3384 40.8C45.2213 40.215 45.28 39.6084 45.5069 39.0566L41.4294 34.9791L41.4288 45.7107C41.7246 45.8563 41.9947 46.0493 42.2284 46.2819C43.4091 47.4622 43.4091 49.375 42.2284 50.5578C41.0475 51.7382 39.1334 51.7382 37.9538 50.5578C36.7731 49.3753 36.7731 47.4625 37.9538 46.2819C38.2366 45.9986 38.573 45.7744 38.9434 45.6225V34.7916C38.5727 34.6401 38.2362 34.4158 37.9538 34.1319C37.0594 33.2382 36.8441 31.9257 37.3028 30.8269L32.83 26.3541L21.02 38.1635C20.5435 38.6401 20.2759 39.2864 20.2759 39.9603C20.2759 40.6343 20.5435 41.2806 21.02 41.7572L38.2441 58.9803C39.2359 59.9722 40.8441 59.9722 41.8375 58.9803L58.9806 41.8372C59.457 41.3605 59.7246 40.7141 59.7245 40.0401C59.7244 39.3662 59.4568 38.7198 58.9803 38.2432Z" fill="#F34F29"/>
</g>
<path d="M36.8027 102.591C36.3169 102.591 35.8993 102.528 35.5499 102.403C35.2005 102.281 34.9093 102.119 34.6763 101.918C34.4462 101.719 34.263 101.506 34.1266 101.278L34.9277 100.716C35.0186 100.835 35.1337 100.972 35.2729 101.125C35.4121 101.281 35.6025 101.416 35.8439 101.53C36.0882 101.646 36.4078 101.705 36.8027 101.705C37.3311 101.705 37.7672 101.577 38.111 101.321C38.4547 101.065 38.6266 100.665 38.6266 100.119V98.7898H38.5414C38.4675 98.9091 38.3624 99.0568 38.226 99.233C38.0925 99.4062 37.8993 99.5611 37.6465 99.6974C37.3965 99.831 37.0584 99.8977 36.6323 99.8977C36.1039 99.8977 35.6294 99.7727 35.209 99.5227C34.7914 99.2727 34.4604 98.9091 34.2161 98.4318C33.9746 97.9545 33.8539 97.375 33.8539 96.6932C33.8539 96.0227 33.9718 95.4389 34.2076 94.9418C34.4434 94.4418 34.7715 94.0554 35.1919 93.7827C35.6124 93.5071 36.0982 93.3693 36.6493 93.3693C37.0755 93.3693 37.4135 93.4403 37.6635 93.5824C37.9164 93.7216 38.1096 93.8807 38.2431 94.0597C38.3794 94.2358 38.4846 94.3807 38.5584 94.4943H38.6607V93.4545H39.6323V100.188C39.6323 100.75 39.5044 101.207 39.2488 101.56C38.9959 101.915 38.655 102.175 38.226 102.339C37.7999 102.507 37.3255 102.591 36.8027 102.591ZM36.7686 98.9943C37.1721 98.9943 37.513 98.902 37.7914 98.7173C38.0698 98.5327 38.2814 98.267 38.4263 97.9205C38.5712 97.5739 38.6436 97.1591 38.6436 96.6761C38.6436 96.2045 38.5726 95.7884 38.4306 95.4276C38.2885 95.0668 38.0783 94.7841 37.7999 94.5795C37.5215 94.375 37.1777 94.2727 36.7686 94.2727C36.3425 94.2727 35.9874 94.3807 35.7033 94.5966C35.4221 94.8125 35.2104 95.1023 35.0684 95.4659C34.9292 95.8295 34.8596 96.233 34.8596 96.6761C34.8596 97.1307 34.9306 97.5327 35.0726 97.8821C35.2175 98.2287 35.4306 98.5014 35.7118 98.7003C35.9959 98.8963 36.3482 98.9943 36.7686 98.9943ZM41.4732 100V93.4545H42.4789V100H41.4732ZM41.9846 92.3636C41.7885 92.3636 41.6195 92.2969 41.4775 92.1634C41.3382 92.0298 41.2686 91.8693 41.2686 91.6818C41.2686 91.4943 41.3382 91.3338 41.4775 91.2003C41.6195 91.0668 41.7885 91 41.9846 91C42.1806 91 42.3482 91.0668 42.4874 91.2003C42.6294 91.3338 42.7005 91.4943 42.7005 91.6818C42.7005 91.8693 42.6294 92.0298 42.4874 92.1634C42.3482 92.2969 42.1806 92.3636 41.9846 92.3636ZM47.1674 93.4545V94.3068H43.7754V93.4545H47.1674ZM44.764 91.8864H45.7697V98.125C45.7697 98.4091 45.8109 98.6222 45.8933 98.7642C45.9785 98.9034 46.0865 98.9972 46.2172 99.0455C46.3507 99.0909 46.4913 99.1136 46.639 99.1136C46.7498 99.1136 46.8407 99.108 46.9118 99.0966C46.9828 99.0824 47.0396 99.071 47.0822 99.0625L47.2868 99.9659C47.2186 99.9915 47.1234 100.017 47.0012 100.043C46.8791 100.071 46.7243 100.085 46.5368 100.085C46.2527 100.085 45.9743 100.024 45.7015 99.902C45.4316 99.7798 45.2072 99.5938 45.0282 99.3438C44.8521 99.0938 44.764 98.7784 44.764 98.3977V91.8864Z" fill="#0D1117"/>
<defs>
<clipPath id="clip0_368_240">
<rect width="40" height="40" fill="white" transform="translate(20 20)"/>
</clipPath>
</defs>
</svg>
