<svg width="80" height="103" viewBox="0 0 80 103" fill="none" xmlns="http://www.w3.org/2000/svg">
<rect width="80" height="80" rx="8" fill="black"/>
<g clip-path="url(#clip0_368_206)">
<path d="M58.7083 30.42C58.6408 30.2477 58.5153 30.1042 58.3534 30.0143C58.1916 29.9245 58.0035 29.8938 57.8215 29.9275C57.6395 29.9612 57.4749 30.0572 57.356 30.1991C57.2371 30.341 57.1714 30.5199 57.17 30.705C57.1737 30.8013 57.1882 30.8969 57.2133 30.99C60.7967 40.5067 55.9617 51.1183 46.4467 54.7C45.1422 55.1912 43.7855 55.5307 42.4033 55.7117V47.12C42.9533 47.01 43.48 46.8567 44.0067 46.68V53.91C53.0817 51.69 58.6633 42.5483 56.445 33.4733C55.8915 31.1972 54.8712 29.0608 53.4488 27.1997C52.0263 25.3386 50.2327 23.7932 48.1817 22.6617C48.0909 22.6105 47.9909 22.5779 47.8874 22.5657C47.7839 22.5535 47.679 22.562 47.5789 22.5907C47.4787 22.6194 47.3852 22.6677 47.3039 22.7328C47.2225 22.7979 47.1549 22.8785 47.105 22.97C47.0538 23.0608 47.0212 23.1608 47.0091 23.2643C46.9969 23.3678 47.0054 23.4726 47.0341 23.5728C47.0628 23.673 47.1111 23.7664 47.1762 23.8478C47.2413 23.9291 47.3219 23.9967 47.4133 24.0467C54.8183 28.1333 57.4983 37.4733 53.4133 44.8783C51.6932 47.9994 48.9322 50.4177 45.6117 51.7117V45.3183C46.1073 45.1615 46.5402 44.8514 46.8482 44.4326C47.1561 44.0139 47.3231 43.5081 47.325 42.9883C47.325 42.11 46.885 41.3183 46.1167 40.8783C46.6883 35.3633 49.215 36.8133 49.215 35.0567V34.0233C49.215 31.3867 43.1067 22.795 40.2483 22.5967H39.7217C36.865 22.795 30.7567 31.3867 30.7567 34.0233V35.0567C30.7567 36.8133 33.2617 35.3633 33.855 40.8783C33.4864 41.0933 33.1807 41.4014 32.9686 41.7717C32.7565 42.142 32.6455 42.5616 32.6467 42.9883C32.6467 44.065 33.35 44.9883 34.36 45.3183V51.7117C26.5167 48.6133 22.65 39.7167 25.7467 31.85C27.0543 28.5382 29.469 25.7819 32.58 24.05C32.6734 23.9989 32.7557 23.9297 32.8219 23.8464C32.8882 23.7631 32.9371 23.6674 32.9658 23.5649C32.9946 23.4624 33.0025 23.3552 32.9892 23.2496C32.9759 23.144 32.9416 23.0421 32.8883 22.95C32.8157 22.8286 32.7126 22.7282 32.5892 22.6589C32.4658 22.5896 32.3265 22.5538 32.185 22.555C32.0531 22.5572 31.9242 22.5946 31.8117 22.6633C29.8654 23.7355 28.1496 25.1808 26.7625 26.9167C25.3753 28.6526 24.344 30.6449 23.7276 32.7798C23.1112 34.9146 22.9218 37.15 23.1701 39.3582C23.4185 41.5663 24.0998 43.7038 25.175 45.6483C26.3066 47.6994 27.8519 49.4929 29.713 50.9154C31.5742 52.3379 33.7105 53.3582 35.9867 53.9117V46.7C36.5133 46.8767 37.0417 47.03 37.59 47.14V55.7317C27.505 54.3933 20.4283 45.1417 21.77 35.0567C21.9504 33.6746 22.2893 32.3179 22.78 31.0133C22.8519 30.8148 22.8439 30.5962 22.7578 30.4035C22.6717 30.2107 22.5141 30.0589 22.3183 29.98C22.1197 29.9103 21.902 29.9193 21.7098 30.0051C21.5176 30.091 21.3656 30.2472 21.285 30.4417C17.3967 40.7917 22.6267 52.3267 32.9767 56.195C34.9767 56.9417 37.0633 57.36 39.1933 57.4467V47.2967C39.48 47.3167 40.0083 47.3167 40.0083 47.3167C40.0083 47.3167 40.535 47.3167 40.8217 47.295V57.425C51.8733 56.9633 60.4433 47.6467 59.9817 36.5933C59.8739 34.4827 59.4445 32.401 58.7083 30.42ZM43.6767 41.8233C43.987 41.517 44.4056 41.3452 44.8417 41.3452C45.2778 41.3452 45.6963 41.517 46.0067 41.8233C46.313 42.1337 46.4848 42.5522 46.4848 42.9883C46.4848 43.4244 46.313 43.843 46.0067 44.1533C45.6963 44.4597 45.2778 44.6315 44.8417 44.6315C44.4056 44.6315 43.987 44.4597 43.6767 44.1533C43.5236 44.0004 43.4021 43.8188 43.3193 43.6189C43.2364 43.419 43.1937 43.2047 43.1937 42.9883C43.1937 42.7719 43.2364 42.5577 43.3193 42.3578C43.4021 42.1579 43.5236 41.9763 43.6767 41.8233ZM36.2933 44.1533C35.9874 44.4591 35.5725 44.6308 35.14 44.6308C34.7075 44.6308 34.2926 44.4591 33.9867 44.1533C33.6803 43.843 33.5085 43.4244 33.5085 42.9883C33.5085 42.5522 33.6803 42.1337 33.9867 41.8233C34.297 41.517 34.7156 41.3452 35.1517 41.3452C35.5878 41.3452 36.0063 41.517 36.3167 41.8233C36.4694 41.9771 36.59 42.1597 36.6717 42.3604C36.7533 42.5612 36.7943 42.7761 36.7923 42.9928C36.7903 43.2096 36.7453 43.4237 36.6599 43.6229C36.5746 43.8221 36.4505 44.0024 36.295 44.1533H36.2933Z" fill="#0A847A"/>
</g>
<path d="M19.0266 94C18.9329 93.7131 18.8093 93.456 18.6559 93.2287C18.5053 92.9986 18.3249 92.8026 18.1147 92.6406C17.9073 92.4787 17.6715 92.3551 17.4073 92.2699C17.1431 92.1847 16.8533 92.142 16.538 92.142C16.021 92.142 15.5508 92.2756 15.1275 92.5426C14.7042 92.8097 14.3675 93.2031 14.1175 93.723C13.8675 94.2429 13.7425 94.8807 13.7425 95.6364C13.7425 96.392 13.869 97.0298 14.1218 97.5497C14.3746 98.0696 14.717 98.4631 15.1488 98.7301C15.5806 98.9972 16.0664 99.1307 16.6062 99.1307C17.1062 99.1307 17.5465 99.0241 17.9272 98.8111C18.3107 98.5952 18.609 98.2912 18.8221 97.8991C19.038 97.5043 19.146 97.0398 19.146 96.5057L19.4698 96.5739H16.8448V95.6364H20.1687V96.5739C20.1687 97.2926 20.0153 97.9176 19.7085 98.4489C19.4045 98.9801 18.984 99.392 18.4471 99.6847C17.913 99.9744 17.2994 100.119 16.6062 100.119C15.8335 100.119 15.1545 99.9375 14.5692 99.5739C13.9869 99.2102 13.5323 98.6932 13.2056 98.0227C12.8817 97.3523 12.7198 96.5568 12.7198 95.6364C12.7198 94.946 12.8121 94.3253 12.9968 93.7741C13.1843 93.2202 13.4485 92.7486 13.7894 92.3594C14.1303 91.9702 14.5337 91.6719 14.9996 91.4645C15.4656 91.2571 15.9783 91.1534 16.538 91.1534C16.9982 91.1534 17.4272 91.223 17.8249 91.3622C18.2255 91.4986 18.582 91.6932 18.8945 91.946C19.2099 92.196 19.4727 92.4957 19.6829 92.8452C19.8931 93.1918 20.038 93.5767 20.1175 94H19.0266ZM22.2525 100V93.4545H23.2582V100H22.2525ZM22.7638 92.3636C22.5678 92.3636 22.3988 92.2969 22.2567 92.1634C22.1175 92.0298 22.0479 91.8693 22.0479 91.6818C22.0479 91.4943 22.1175 91.3338 22.2567 91.2003C22.3988 91.0668 22.5678 91 22.7638 91C22.9599 91 23.1275 91.0668 23.2667 91.2003C23.4087 91.3338 23.4798 91.4943 23.4798 91.6818C23.4798 91.8693 23.4087 92.0298 23.2667 92.1634C23.1275 92.2969 22.9599 92.3636 22.7638 92.3636ZM27.9467 93.4545V94.3068H24.5547V93.4545H27.9467ZM25.5433 91.8864H26.549V98.125C26.549 98.4091 26.5902 98.6222 26.6726 98.7642C26.7578 98.9034 26.8658 98.9972 26.9964 99.0455C27.13 99.0909 27.2706 99.1136 27.4183 99.1136C27.5291 99.1136 27.62 99.108 27.6911 99.0966C27.7621 99.0824 27.8189 99.071 27.8615 99.0625L28.0661 99.9659C27.9979 99.9915 27.9027 100.017 27.7805 100.043C27.6584 100.071 27.5036 100.085 27.3161 100.085C27.032 100.085 26.7536 100.024 26.4808 99.902C26.2109 99.7798 25.9865 99.5938 25.8075 99.3438C25.6314 99.0938 25.5433 98.7784 25.5433 98.3977V91.8864ZM29.7365 100V91.2727H30.7933V95.6023H30.8956L34.8161 91.2727H36.1967L32.532 95.2102L36.1967 100H34.9183L31.8842 95.9432L30.7933 97.1705V100H29.7365ZM37.4283 100V93.4545H38.3999V94.4432H38.468C38.5874 94.1193 38.8033 93.8565 39.1158 93.6548C39.4283 93.4531 39.7805 93.3523 40.1726 93.3523C40.2464 93.3523 40.3388 93.3537 40.4496 93.3565C40.5604 93.3594 40.6442 93.3636 40.701 93.3693V94.392C40.6669 94.3835 40.5888 94.3707 40.4666 94.3537C40.3473 94.3338 40.2209 94.3239 40.0874 94.3239C39.7692 94.3239 39.4851 94.3906 39.2351 94.5241C38.9879 94.6548 38.7919 94.8366 38.647 95.0696C38.505 95.2997 38.4339 95.5625 38.4339 95.858V100H37.4283ZM43.8192 100.153C43.4045 100.153 43.0281 100.075 42.69 99.919C42.3519 99.7599 42.0835 99.5312 41.8846 99.233C41.6857 98.9318 41.5863 98.5682 41.5863 98.142C41.5863 97.767 41.6602 97.4631 41.8079 97.2301C41.9556 96.9943 42.1531 96.8097 42.4002 96.6761C42.6474 96.5426 42.9201 96.4432 43.2184 96.3778C43.5195 96.3097 43.8221 96.2557 44.1261 96.2159C44.5238 96.1648 44.8462 96.1264 45.0934 96.1009C45.3434 96.0724 45.5252 96.0256 45.6388 95.9602C45.7553 95.8949 45.8136 95.7812 45.8136 95.6193V95.5852C45.8136 95.1648 45.6985 94.8381 45.4684 94.6051C45.2411 94.3722 44.896 94.2557 44.4329 94.2557C43.9528 94.2557 43.5763 94.3608 43.3036 94.571C43.0309 94.7812 42.8391 95.0057 42.7283 95.2443L41.7738 94.9034C41.9442 94.5057 42.1715 94.196 42.4556 93.9744C42.7425 93.75 43.055 93.5937 43.3931 93.5057C43.734 93.4148 44.0692 93.3693 44.3988 93.3693C44.609 93.3693 44.8505 93.3949 45.1232 93.446C45.3988 93.4943 45.6644 93.5952 45.9201 93.7486C46.1786 93.902 46.3931 94.1335 46.5636 94.4432C46.734 94.7528 46.8192 95.1676 46.8192 95.6875V100H45.8136V99.1136H45.7624C45.6942 99.2557 45.5806 99.4077 45.4215 99.5696C45.2624 99.7315 45.0508 99.8693 44.7866 99.983C44.5224 100.097 44.1999 100.153 43.8192 100.153ZM43.9727 99.25C44.3704 99.25 44.7056 99.1719 44.9783 99.0156C45.2539 98.8594 45.4613 98.6577 45.6005 98.4105C45.7425 98.1634 45.8136 97.9034 45.8136 97.6307V96.7102C45.771 96.7614 45.6772 96.8082 45.5323 96.8509C45.3903 96.8906 45.2255 96.9261 45.038 96.9574C44.8533 96.9858 44.6729 97.0114 44.4968 97.0341C44.3235 97.054 44.1829 97.071 44.0749 97.0852C43.8136 97.1193 43.5692 97.1747 43.342 97.2514C43.1175 97.3253 42.9357 97.4375 42.7965 97.5881C42.6602 97.7358 42.592 97.9375 42.592 98.1932C42.592 98.5426 42.7212 98.8068 42.9798 98.9858C43.2411 99.1619 43.5721 99.25 43.9727 99.25ZM49.5923 97.6136L49.5753 96.3693H49.7798L52.6435 93.4545H53.8878L50.8366 96.5398H50.7514L49.5923 97.6136ZM48.6548 100V91.2727H49.6605V100H48.6548ZM52.8139 100L50.2571 96.7614L50.973 96.0625L54.0923 100H52.8139ZM57.657 100.136C57.0263 100.136 56.4822 99.9972 56.0249 99.7188C55.5703 99.4375 55.2195 99.0455 54.9723 98.5426C54.728 98.0369 54.6058 97.4489 54.6058 96.7784C54.6058 96.108 54.728 95.517 54.9723 95.0057C55.2195 94.4915 55.5632 94.0909 56.0036 93.804C56.4467 93.5142 56.9638 93.3693 57.5547 93.3693C57.8956 93.3693 58.2322 93.4261 58.5646 93.5398C58.897 93.6534 59.1996 93.8381 59.4723 94.0938C59.745 94.3466 59.9624 94.6818 60.1243 95.0994C60.2862 95.517 60.3672 96.0312 60.3672 96.642V97.0682H55.3217V96.1989H59.3445C59.3445 95.8295 59.2706 95.5 59.1229 95.2102C58.978 94.9205 58.7706 94.6918 58.5007 94.5241C58.2337 94.3565 57.9183 94.2727 57.5547 94.2727C57.1541 94.2727 56.8075 94.3722 56.5149 94.571C56.2251 94.767 56.0021 95.0227 55.8459 95.3381C55.6896 95.6534 55.6115 95.9915 55.6115 96.3523V96.9318C55.6115 97.4261 55.6967 97.8452 55.8672 98.1889C56.0405 98.5298 56.2805 98.7898 56.5874 98.9688C56.8942 99.1449 57.2507 99.233 57.657 99.233C57.9212 99.233 58.1598 99.196 58.3729 99.1222C58.5888 99.0455 58.7749 98.9318 58.9311 98.7812C59.0874 98.6278 59.2081 98.4375 59.2933 98.2102L60.2649 98.483C60.1626 98.8125 59.9908 99.1023 59.7493 99.3523C59.5078 99.5994 59.2095 99.7926 58.8544 99.9318C58.4993 100.068 58.1001 100.136 57.657 100.136ZM62.9027 96.0625V100H61.897V93.4545H62.8686V94.4773H62.9538C63.1072 94.1449 63.3402 93.8778 63.6527 93.6761C63.9652 93.4716 64.3686 93.3693 64.8629 93.3693C65.3061 93.3693 65.6939 93.4602 66.0263 93.642C66.3587 93.821 66.6172 94.0938 66.8018 94.4602C66.9865 94.8239 67.0788 95.2841 67.0788 95.8409V100H66.0732V95.9091C66.0732 95.3949 65.9396 94.9943 65.6726 94.7074C65.4055 94.4176 65.0391 94.2727 64.5732 94.2727C64.2521 94.2727 63.9652 94.3423 63.7124 94.4815C63.4624 94.6207 63.2649 94.8239 63.12 95.0909C62.9751 95.358 62.9027 95.6818 62.9027 96.0625Z" fill="white"/>
<defs>
<clipPath id="clip0_368_206">
<rect width="40" height="40" fill="white" transform="translate(20 20)"/>
</clipPath>
</defs>
</svg>
