<svg width="80" height="103" viewBox="0 0 80 103" fill="none" xmlns="http://www.w3.org/2000/svg">
<rect width="80" height="80" rx="8" fill="black"/>
<path d="M26.1153 28.4375L28.6425 56.5372L39.9828 59.5628L51.3547 56.5944L53.8847 28.4375H26.1153ZM48.6281 34.8347L48.4697 36.6578L48.4 37.5H35.0972L35.415 41.25H48.0837L47.9991 41.9472L47.1819 50.9813L47.1219 51.5094L40 53.4262V53.4247L39.9916 53.4284L32.8737 51.5797L32.3906 46.25H35.8806L36.1278 48.8938L39.9981 49.8747L40 49.8016V49.8053L43.8787 48.9775L44.2837 44.6875H32.2353L31.3809 35.0513L31.2975 34.0625H48.7112L48.6281 34.8347ZM28.7362 20.5084H30.4931V22.2447H32.1006V20.5084H33.8578V25.7653H32.1006V24.005H30.4934V25.7653H28.7362V20.5084ZM36.1681 22.2519H34.6212V20.5084H39.4728V22.2519H37.9253V25.7653H36.1681V22.2519ZM40.2428 20.5084H42.0747L43.2019 22.3556L44.3278 20.5084H46.1606V25.7653H44.4103V23.1597L43.2019 25.0288H43.1712L41.9619 23.1597V25.7653H40.2425L40.2428 20.5084ZM47.0353 20.5084H48.7928V24.0278H51.2637V25.7656H47.0353V20.5084Z" fill="#E44D26"/>
<path d="M20.4025 100V91.2727H21.4593V95.1591H26.1127V91.2727H27.1696V100H26.1127V96.0966H21.4593V100H20.4025ZM28.8081 92.2102V91.2727H35.3535V92.2102H32.6092V100H31.5524V92.2102H28.8081ZM36.9846 91.2727H38.2459L41.2118 98.517H41.3141L44.28 91.2727H45.5414V100H44.5527V93.3693H44.4675L41.7402 100H40.7857L38.0584 93.3693H37.9732V100H36.9846V91.2727ZM47.6603 100V91.2727H48.7172V99.0625H52.774V100H47.6603ZM56.9842 100.119C56.4842 100.119 56.0339 100.02 55.6333 99.821C55.2328 99.6222 54.9118 99.3494 54.6703 99.0028C54.4288 98.6562 54.2967 98.2614 54.274 97.8182H55.2967C55.3365 98.2131 55.5154 98.5398 55.8336 98.7983C56.1547 99.054 56.5382 99.1818 56.9842 99.1818C57.3422 99.1818 57.6603 99.098 57.9387 98.9304C58.22 98.7628 58.4402 98.5327 58.5993 98.2401C58.7612 97.9446 58.8422 97.6108 58.8422 97.2386C58.8422 96.858 58.7583 96.5185 58.5907 96.2202C58.426 95.919 58.1987 95.6818 57.9089 95.5085C57.6191 95.3352 57.2882 95.2472 56.916 95.2443C56.649 95.2415 56.3748 95.2827 56.0936 95.3679C55.8123 95.4503 55.5808 95.5568 55.399 95.6875L54.4103 95.5682L54.9387 91.2727H59.4728V92.2102H55.8251L55.5183 94.7841H55.5694C55.7484 94.642 55.9728 94.5241 56.2427 94.4304C56.5126 94.3366 56.7939 94.2898 57.0865 94.2898C57.6206 94.2898 58.0964 94.4176 58.514 94.6733C58.9345 94.9261 59.264 95.2727 59.5027 95.7131C59.7441 96.1534 59.8649 96.6562 59.8649 97.2216C59.8649 97.7784 59.7399 98.2756 59.4899 98.7131C59.2427 99.1477 58.9018 99.4915 58.4672 99.7443C58.0325 99.9943 57.5382 100.119 56.9842 100.119Z" fill="white"/>
</svg>
