<svg width="80" height="80" viewBox="0 0 80 80" fill="none" xmlns="http://www.w3.org/2000/svg">
<rect width="80" height="80" rx="8" fill="#F3F3F3"/>
<g clip-path="url(#clip0_363_61)">
<path fill-rule="evenodd" clip-rule="evenodd" d="M20.3125 20.3125V59.6225C20.625 59.6481 20.6219 59.6959 20.7372 59.6959C32.0712 59.6994 43.445 59.6994 54.7791 59.6994C56.3397 59.6994 57.86 59.7006 59.4209 59.6959C59.5234 59.6956 59.6878 59.6481 59.6878 59.6225L59.6875 20.3125H20.3125ZM55.9375 39.9731V55.1453C55.9375 55.6728 55.8584 55.625 55.35 55.625H24.9284C24.42 55.625 24.375 55.6731 24.375 55.1456V24.7625C24.375 24.2347 24.42 24.0625 24.9669 24.0625H55.3116C55.8587 24.0625 55.9375 24.2347 55.9375 24.8009V39.9731ZM40.1294 32.615C40.0625 32.4081 39.9381 32.3975 39.7566 32.3984C38.7834 32.4044 37.81 32.42 36.8375 32.3984C36.53 32.3919 36.3966 32.4841 36.3016 32.7837C34.9312 37.0916 33.5462 41.3966 32.1662 45.7012C31.9412 46.4031 31.7234 47.1078 31.4834 47.8697C32.3931 47.8697 33.2244 47.8572 34.055 47.8778C34.3372 47.8847 34.4547 47.7919 34.5316 47.5259C34.8872 46.2997 35.2722 45.0819 35.6244 43.8547C35.7072 43.5653 35.8412 43.4872 36.1322 43.4906C37.5147 43.5069 38.8978 43.5069 40.2803 43.4906C40.5494 43.4875 40.6587 43.5744 40.735 43.8225C41.1141 45.0566 41.5169 46.2831 41.8956 47.5172C41.9741 47.7722 42.0725 47.8703 42.3666 47.8491C42.7754 47.822 43.185 47.8098 43.5947 47.8125H45.0297L45.0231 47.7091C43.3912 42.6756 41.7572 37.6497 40.1294 32.615ZM36.2503 41.25C36.8869 39.0625 37.5187 36.9225 38.1412 34.7987C38.7828 36.915 39.4353 39.0625 40.0975 41.25H36.2503ZM45.625 47.8125H48.75V36.5625H45.625V47.8125ZM47.2097 32.0484C46.2837 32.0494 45.6 32.7069 45.6062 33.5909C45.6125 34.4775 46.2694 35.1087 47.1866 35.1103C48.14 35.1116 48.8141 34.4806 48.8075 33.5928C48.8006 32.6834 48.1428 32.0475 47.2097 32.0484Z" fill="#FAA625"/>
</g>
<defs>
<clipPath id="clip0_363_61">
<rect width="40" height="40" fill="white" transform="translate(20 20)"/>
</clipPath>
</defs>
</svg>
