<svg width="80" height="103" viewBox="0 0 80 103" fill="none" xmlns="http://www.w3.org/2000/svg">
<path d="M14.307 91.2727V100H13.2502V91.2727H14.307ZM17.2953 91.2727V100H16.2896V91.2727H17.2953ZM20.1429 91.2727V100H19.1373V91.2727H20.1429ZM26.1099 97.3239V93.4545H27.1156V100H26.1099V98.892H26.0417C25.8883 99.2244 25.6497 99.5071 25.3258 99.7401C25.002 99.9702 24.5929 100.085 24.0985 100.085C23.6895 100.085 23.3258 99.9957 23.0076 99.8168C22.6895 99.6349 22.4395 99.3622 22.2576 98.9986C22.0758 98.6321 21.9849 98.1705 21.9849 97.6136V93.4545H22.9906V97.5455C22.9906 98.0227 23.1241 98.4034 23.3912 98.6875C23.661 98.9716 24.0048 99.1136 24.4224 99.1136C24.6724 99.1136 24.9267 99.0497 25.1852 98.9219C25.4466 98.794 25.6653 98.598 25.8414 98.3338C26.0204 98.0696 26.1099 97.733 26.1099 97.3239ZM33.5939 94.9205L32.6905 95.1761C32.6337 95.0256 32.5499 94.8793 32.4391 94.7372C32.3311 94.5923 32.1834 94.473 31.9959 94.3793C31.8084 94.2855 31.5684 94.2386 31.2757 94.2386C30.8752 94.2386 30.5414 94.331 30.2743 94.5156C30.0101 94.6974 29.878 94.929 29.878 95.2102C29.878 95.4602 29.9689 95.6577 30.1507 95.8026C30.3326 95.9474 30.6167 96.0682 31.003 96.1648L31.9746 96.4034C32.5598 96.5455 32.9959 96.7628 33.2828 97.0554C33.5698 97.3452 33.7132 97.7187 33.7132 98.1761C33.7132 98.5511 33.6053 98.8864 33.3894 99.1818C33.1763 99.4773 32.878 99.7102 32.4945 99.8807C32.111 100.051 31.665 100.136 31.1564 100.136C30.4888 100.136 29.9363 99.9915 29.4988 99.7017C29.0613 99.4119 28.7843 98.9886 28.6678 98.4318L29.6223 98.1932C29.7132 98.5455 29.8851 98.8097 30.138 98.9858C30.3936 99.1619 30.7275 99.25 31.1394 99.25C31.6081 99.25 31.9803 99.1506 32.2559 98.9517C32.5343 98.75 32.6735 98.5085 32.6735 98.2273C32.6735 98 32.5939 97.8097 32.4348 97.6562C32.2757 97.5 32.0314 97.3835 31.7019 97.3068L30.611 97.0511C30.0115 96.9091 29.5712 96.6889 29.29 96.3906C29.0115 96.0895 28.8723 95.7131 28.8723 95.2614C28.8723 94.892 28.976 94.5653 29.1834 94.2812C29.3936 93.9972 29.6792 93.7741 30.04 93.6122C30.4036 93.4503 30.8155 93.3693 31.2757 93.3693C31.9235 93.3693 32.432 93.5114 32.8013 93.7955C33.1735 94.0795 33.4377 94.4545 33.5939 94.9205ZM38.0737 93.4545V94.3068H34.6816V93.4545H38.0737ZM35.6703 91.8864H36.676V98.125C36.676 98.4091 36.7172 98.6222 36.7995 98.7642C36.8848 98.9034 36.9927 98.9972 37.1234 99.0455C37.2569 99.0909 37.3975 99.1136 37.5453 99.1136C37.6561 99.1136 37.747 99.108 37.818 99.0966C37.889 99.0824 37.9458 99.071 37.9885 99.0625L38.193 99.9659C38.1248 99.9915 38.0297 100.017 37.9075 100.043C37.7853 100.071 37.6305 100.085 37.443 100.085C37.1589 100.085 36.8805 100.024 36.6078 99.902C36.3379 99.7798 36.1135 99.5938 35.9345 99.3438C35.7583 99.0938 35.6703 98.7784 35.6703 98.3977V91.8864ZM39.5865 100V93.4545H40.5581V94.4432H40.6262C40.7456 94.1193 40.9615 93.8565 41.274 93.6548C41.5865 93.4531 41.9387 93.3523 42.3308 93.3523C42.4047 93.3523 42.497 93.3537 42.6078 93.3565C42.7186 93.3594 42.8024 93.3636 42.8592 93.3693V94.392C42.8251 94.3835 42.747 94.3707 42.6248 94.3537C42.5055 94.3338 42.3791 94.3239 42.2456 94.3239C41.9274 94.3239 41.6433 94.3906 41.3933 94.5241C41.1461 94.6548 40.9501 94.8366 40.8052 95.0696C40.6632 95.2997 40.5922 95.5625 40.5922 95.858V100H39.5865ZM45.9775 100.153C45.5627 100.153 45.1863 100.075 44.8482 99.919C44.5101 99.7599 44.2417 99.5312 44.0428 99.233C43.8439 98.9318 43.7445 98.5682 43.7445 98.142C43.7445 97.767 43.8184 97.4631 43.9661 97.2301C44.1138 96.9943 44.3113 96.8097 44.5584 96.6761C44.8056 96.5426 45.0783 96.4432 45.3766 96.3778C45.6777 96.3097 45.9803 96.2557 46.2843 96.2159C46.682 96.1648 47.0044 96.1264 47.2516 96.1009C47.5016 96.0724 47.6834 96.0256 47.7971 95.9602C47.9135 95.8949 47.9718 95.7812 47.9718 95.6193V95.5852C47.9718 95.1648 47.8567 94.8381 47.6266 94.6051C47.3993 94.3722 47.0542 94.2557 46.5911 94.2557C46.111 94.2557 45.7346 94.3608 45.4618 94.571C45.1891 94.7812 44.9973 95.0057 44.8865 95.2443L43.932 94.9034C44.1025 94.5057 44.3297 94.196 44.6138 93.9744C44.9007 93.75 45.2132 93.5937 45.5513 93.5057C45.8922 93.4148 46.2275 93.3693 46.557 93.3693C46.7672 93.3693 47.0087 93.3949 47.2814 93.446C47.557 93.4943 47.8226 93.5952 48.0783 93.7486C48.3368 93.902 48.5513 94.1335 48.7218 94.4432C48.8922 94.7528 48.9775 95.1676 48.9775 95.6875V100H47.9718V99.1136H47.9206C47.8525 99.2557 47.7388 99.4077 47.5797 99.5696C47.4206 99.7315 47.209 99.8693 46.9448 99.983C46.6806 100.097 46.3581 100.153 45.9775 100.153ZM46.1309 99.25C46.5286 99.25 46.8638 99.1719 47.1365 99.0156C47.4121 98.8594 47.6195 98.6577 47.7587 98.4105C47.9007 98.1634 47.9718 97.9034 47.9718 97.6307V96.7102C47.9292 96.7614 47.8354 96.8082 47.6905 96.8509C47.5485 96.8906 47.3837 96.9261 47.1962 96.9574C47.0115 96.9858 46.8311 97.0114 46.655 97.0341C46.4817 97.054 46.3411 97.071 46.2331 97.0852C45.9718 97.1193 45.7275 97.1747 45.5002 97.2514C45.2757 97.3253 45.0939 97.4375 44.9547 97.5881C44.8184 97.7358 44.7502 97.9375 44.7502 98.1932C44.7502 98.5426 44.8794 98.8068 45.138 98.9858C45.3993 99.1619 45.7303 99.25 46.1309 99.25ZM53.6596 93.4545V94.3068H50.2676V93.4545H53.6596ZM51.2562 91.8864H52.2619V98.125C52.2619 98.4091 52.3031 98.6222 52.3855 98.7642C52.4707 98.9034 52.5787 98.9972 52.7093 99.0455C52.8429 99.0909 52.9835 99.1136 53.1312 99.1136C53.242 99.1136 53.3329 99.108 53.4039 99.0966C53.475 99.0824 53.5318 99.071 53.5744 99.0625L53.7789 99.9659C53.7108 99.9915 53.6156 100.017 53.4934 100.043C53.3713 100.071 53.2164 100.085 53.0289 100.085C52.7449 100.085 52.4664 100.024 52.1937 99.902C51.9238 99.7798 51.6994 99.5938 51.5204 99.3438C51.3443 99.0938 51.2562 98.7784 51.2562 98.3977V91.8864ZM57.7612 100.136C57.1703 100.136 56.6518 99.9957 56.2058 99.7145C55.7626 99.4332 55.416 99.0398 55.166 98.5341C54.9189 98.0284 54.7953 97.4375 54.7953 96.7614C54.7953 96.0795 54.9189 95.4844 55.166 94.9759C55.416 94.4673 55.7626 94.0724 56.2058 93.7912C56.6518 93.5099 57.1703 93.3693 57.7612 93.3693C58.3521 93.3693 58.8691 93.5099 59.3123 93.7912C59.7583 94.0724 60.1049 94.4673 60.3521 94.9759C60.6021 95.4844 60.7271 96.0795 60.7271 96.7614C60.7271 97.4375 60.6021 98.0284 60.3521 98.5341C60.1049 99.0398 59.7583 99.4332 59.3123 99.7145C58.8691 99.9957 58.3521 100.136 57.7612 100.136ZM57.7612 99.233C58.21 99.233 58.5794 99.1179 58.8691 98.8878C59.1589 98.6577 59.3734 98.3551 59.5126 97.9801C59.6518 97.6051 59.7214 97.1989 59.7214 96.7614C59.7214 96.3239 59.6518 95.9162 59.5126 95.5384C59.3734 95.1605 59.1589 94.8551 58.8691 94.6222C58.5794 94.3892 58.21 94.2727 57.7612 94.2727C57.3123 94.2727 56.943 94.3892 56.6532 94.6222C56.3635 94.8551 56.149 95.1605 56.0098 95.5384C55.8706 95.9162 55.801 96.3239 55.801 96.7614C55.801 97.1989 55.8706 97.6051 56.0098 97.9801C56.149 98.3551 56.3635 98.6577 56.6532 98.8878C56.943 99.1179 57.3123 99.233 57.7612 99.233ZM62.2623 100V93.4545H63.2338V94.4432H63.302C63.4213 94.1193 63.6373 93.8565 63.9498 93.6548C64.2623 93.4531 64.6145 93.3523 65.0066 93.3523C65.0804 93.3523 65.1728 93.3537 65.2836 93.3565C65.3944 93.3594 65.4782 93.3636 65.535 93.3693V94.392C65.5009 94.3835 65.4228 94.3707 65.3006 94.3537C65.1813 94.3338 65.0549 94.3239 64.9213 94.3239C64.6032 94.3239 64.3191 94.3906 64.0691 94.5241C63.8219 94.6548 63.6259 94.8366 63.481 95.0696C63.339 95.2997 63.2679 95.5625 63.2679 95.858V100H62.2623Z" fill="#0D1117"/>
<rect width="80" height="80" rx="8" fill="#F3F3F3"/>
<g clip-path="url(#clip0_366_95)">
<path fill-rule="evenodd" clip-rule="evenodd" d="M20.3125 20.3125V59.6225C20.625 59.6481 20.6219 59.6959 20.7372 59.6959C32.0712 59.6994 43.445 59.6994 54.7791 59.6994C56.3397 59.6994 57.86 59.7006 59.4209 59.6959C59.5234 59.6956 59.6878 59.6481 59.6878 59.6225L59.6875 20.3125H20.3125ZM55.9375 39.9731V55.1453C55.9375 55.6728 55.8584 55.625 55.35 55.625H24.9284C24.42 55.625 24.375 55.6731 24.375 55.1456V24.7625C24.375 24.2347 24.42 24.0625 24.9669 24.0625H55.3116C55.8587 24.0625 55.9375 24.2347 55.9375 24.8009V39.9731ZM40.1294 32.615C40.0625 32.4081 39.9381 32.3975 39.7566 32.3984C38.7834 32.4044 37.81 32.42 36.8375 32.3984C36.53 32.3919 36.3966 32.4841 36.3016 32.7837C34.9312 37.0916 33.5462 41.3966 32.1662 45.7012C31.9412 46.4031 31.7234 47.1078 31.4834 47.8697C32.3931 47.8697 33.2244 47.8572 34.055 47.8778C34.3372 47.8847 34.4547 47.7919 34.5316 47.5259C34.8872 46.2997 35.2722 45.0819 35.6244 43.8547C35.7072 43.5653 35.8412 43.4872 36.1322 43.4906C37.5147 43.5069 38.8978 43.5069 40.2803 43.4906C40.5494 43.4875 40.6587 43.5744 40.735 43.8225C41.1141 45.0566 41.5169 46.2831 41.8956 47.5172C41.9741 47.7722 42.0725 47.8703 42.3666 47.8491C42.7754 47.822 43.185 47.8098 43.5947 47.8125H45.0297L45.0231 47.7091C43.3912 42.6756 41.7572 37.6497 40.1294 32.615ZM36.2503 41.25C36.8869 39.0625 37.5187 36.9225 38.1412 34.7987C38.7828 36.915 39.4353 39.0625 40.0975 41.25H36.2503ZM45.625 47.8125H48.75V36.5625H45.625V47.8125ZM47.2097 32.0484C46.2837 32.0494 45.6 32.7069 45.6062 33.5909C45.6125 34.4775 46.2694 35.1087 47.1866 35.1103C48.14 35.1116 48.8141 34.4806 48.8075 33.5928C48.8006 32.6834 48.1428 32.0475 47.2097 32.0484Z" fill="#FAA625"/>
</g>
<defs>
<clipPath id="clip0_366_95">
<rect width="40" height="40" fill="white" transform="translate(20 20)"/>
</clipPath>
</defs>
</svg>
