<svg width="80" height="103" viewBox="0 0 80 103" fill="none" xmlns="http://www.w3.org/2000/svg">
<rect width="80" height="80" rx="8" fill="black"/>
<g clip-path="url(#clip0_368_222)">
<path d="M33.01 26.4083H37.2817V34.9517H33.01V26.4083ZM30.4583 29.1583C30.2528 29.002 30.031 28.8685 29.7967 28.76C29.552 28.66 29.2892 28.6123 29.025 28.62C28.7467 28.62 28.5283 28.6767 28.3733 28.79C28.298 28.8417 28.2369 28.9115 28.1958 28.9931C28.1548 29.0747 28.135 29.1654 28.1383 29.2567C28.1383 29.41 28.2133 29.5367 28.3633 29.635C28.5117 29.735 28.7 29.83 28.925 29.9183C29.15 30.0083 29.395 30.1017 29.6567 30.1983C29.9183 30.2933 30.1633 30.4117 30.3883 30.5517C30.6133 30.69 30.8017 30.8617 30.95 31.0633C31.1 31.265 31.175 31.52 31.175 31.825C31.175 32.25 31.0233 32.61 30.7217 32.905C30.42 33.2 29.9967 33.3867 29.4533 33.4667V34.93H28.6567V33.4867C28.3037 33.451 27.9581 33.3622 27.6317 33.2233C27.3151 33.0934 27.0196 32.917 26.755 32.7L27.2733 31.915C27.5583 32.1067 27.8467 32.2633 28.1383 32.3817C28.4423 32.5038 28.7674 32.5649 29.095 32.5617C29.4133 32.5617 29.6533 32.5017 29.8167 32.3817C29.8936 32.3286 29.9561 32.2573 29.9986 32.1741C30.041 32.0909 30.0621 31.9984 30.06 31.905C30.0603 31.8207 30.04 31.7375 30.0007 31.6629C29.9615 31.5882 29.9046 31.5243 29.835 31.4767C29.6867 31.3633 29.4983 31.26 29.2733 31.1633C29.0483 31.0667 28.805 30.97 28.5467 30.875C28.2938 30.7806 28.0505 30.6623 27.82 30.5217C27.6036 30.3897 27.4132 30.2191 27.2583 30.0183C27.1028 29.8032 27.0241 29.5419 27.035 29.2767C27.035 28.8467 27.18 28.495 27.4717 28.2217C27.765 27.95 28.1583 27.7817 28.6567 27.715V26.4117H29.4533V27.705C29.805 27.745 30.105 27.835 30.3533 27.9733C30.6017 28.1133 30.83 28.285 31.035 28.4917L30.4583 29.1583ZM26.85 25.0883C26.09 25.495 25.495 26.09 25.0883 26.85C24.6817 27.61 24.4667 28.3633 24.4667 30.44V49.56C24.4667 51.6367 24.6817 52.39 25.0883 53.15C25.495 53.91 26.09 54.505 26.85 54.9117C27.61 55.3183 28.3633 55.5333 30.44 55.5333H49.56C51.6367 55.5333 52.39 55.3183 53.15 54.9117C53.91 54.505 54.505 53.91 54.9117 53.15C55.3183 52.39 55.5333 51.6367 55.5333 49.56V30.44C55.5333 28.3633 55.3183 27.61 54.9117 26.85C54.505 26.09 53.91 25.495 53.15 25.0883C52.39 24.6817 51.6367 24.4667 49.56 24.4667H30.44C28.3633 24.4667 27.61 24.6817 26.85 25.0883ZM30.515 21.5533H49.485C52.6017 21.5533 53.7317 21.8783 54.87 22.4867C56.01 23.0967 56.9033 23.99 57.5133 25.13C58.1217 26.2683 58.4467 27.3983 58.4467 30.515V49.485C58.4467 52.6017 58.1217 53.7317 57.5133 54.87C56.9172 55.9962 55.9962 56.9172 54.87 57.5133C53.7317 58.1217 52.6017 58.4467 49.485 58.4467H30.515C27.3983 58.4467 26.2683 58.1217 25.13 57.5133C24.0038 56.9172 23.0828 55.9962 22.4867 54.87C21.8783 53.7317 21.5533 52.6017 21.5533 49.485V30.515C21.5533 27.3983 21.8783 26.2683 22.4867 25.13C23.0828 24.0038 24.0038 23.0828 25.13 22.4867C26.2683 21.8783 27.3983 21.5533 30.515 21.5533ZM24.57 21.1933C23.1308 21.9542 21.9542 23.1308 21.1933 24.57C20.415 26.025 20 27.4683 20 31.45V48.55C20 52.5317 20.415 53.975 21.1933 55.43C21.9542 56.8692 23.1308 58.0458 24.57 58.8067C26.025 59.585 27.4683 60 31.45 60H48.55C52.5317 60 53.975 59.585 55.43 58.8067C56.8692 58.0458 58.0458 56.8692 58.8067 55.43C59.585 53.975 60 52.5317 60 48.55V31.45C60 27.4683 59.585 26.025 58.8067 24.57C58.0458 23.1308 56.8692 21.9542 55.43 21.1933C53.975 20.415 52.5317 20 48.55 20H31.45C27.4683 20 26.025 20.415 24.57 21.1933Z" fill="#12741D"/>
</g>
<path d="M25.1822 100V93.4545H26.1879V100H25.1822ZM25.6935 92.3636C25.4975 92.3636 25.3285 92.2969 25.1864 92.1634C25.0472 92.0298 24.9776 91.8693 24.9776 91.6818C24.9776 91.4943 25.0472 91.3338 25.1864 91.2003C25.3285 91.0668 25.4975 91 25.6935 91C25.8896 91 26.0572 91.0668 26.1964 91.2003C26.3384 91.3338 26.4094 91.4943 26.4094 91.6818C26.4094 91.8693 26.3384 92.0298 26.1964 92.1634C26.0572 92.2969 25.8896 92.3636 25.6935 92.3636ZM27.6889 92.2102V91.2727H34.2344V92.2102H31.4901V100H30.4332V92.2102H27.6889ZM37.5241 100.136C36.8935 100.136 36.3494 99.9972 35.892 99.7188C35.4375 99.4375 35.0866 99.0455 34.8395 98.5426C34.5952 98.0369 34.473 97.4489 34.473 96.7784C34.473 96.108 34.5952 95.517 34.8395 95.0057C35.0866 94.4915 35.4304 94.0909 35.8707 93.804C36.3139 93.5142 36.831 93.3693 37.4219 93.3693C37.7628 93.3693 38.0994 93.4261 38.4318 93.5398C38.7642 93.6534 39.0668 93.8381 39.3395 94.0938C39.6122 94.3466 39.8295 94.6818 39.9915 95.0994C40.1534 95.517 40.2344 96.0312 40.2344 96.642V97.0682H35.1889V96.1989H39.2116C39.2116 95.8295 39.1378 95.5 38.9901 95.2102C38.8452 94.9205 38.6378 94.6918 38.3679 94.5241C38.1009 94.3565 37.7855 94.2727 37.4219 94.2727C37.0213 94.2727 36.6747 94.3722 36.3821 94.571C36.0923 94.767 35.8693 95.0227 35.7131 95.3381C35.5568 95.6534 35.4787 95.9915 35.4787 96.3523V96.9318C35.4787 97.4261 35.5639 97.8452 35.7344 98.1889C35.9077 98.5298 36.1477 98.7898 36.4545 98.9688C36.7614 99.1449 37.1179 99.233 37.5241 99.233C37.7884 99.233 38.027 99.196 38.2401 99.1222C38.456 99.0455 38.642 98.9318 38.7983 98.7812C38.9545 98.6278 39.0753 98.4375 39.1605 98.2102L40.1321 98.483C40.0298 98.8125 39.858 99.1023 39.6165 99.3523C39.375 99.5994 39.0767 99.7926 38.7216 99.9318C38.3665 100.068 37.9673 100.136 37.5241 100.136ZM41.7642 100V93.4545H42.7358V94.4432H42.804C42.9233 94.1193 43.1392 93.8565 43.4517 93.6548C43.7642 93.4531 44.1165 93.3523 44.5085 93.3523C44.5824 93.3523 44.6747 93.3537 44.7855 93.3565C44.8963 93.3594 44.9801 93.3636 45.0369 93.3693V94.392C45.0028 94.3835 44.9247 94.3707 44.8026 94.3537C44.6832 94.3338 44.5568 94.3239 44.4233 94.3239C44.1051 94.3239 43.821 94.3906 43.571 94.5241C43.3239 94.6548 43.1278 94.8366 42.983 95.0696C42.8409 95.2997 42.7699 95.5625 42.7699 95.858V100H41.7642ZM46.229 100V93.4545H47.2006V94.4773H47.2859C47.4222 94.1278 47.6424 93.8565 47.9464 93.6634C48.2504 93.4673 48.6154 93.3693 49.0415 93.3693C49.4734 93.3693 49.8327 93.4673 50.1197 93.6634C50.4094 93.8565 50.6353 94.1278 50.7972 94.4773H50.8654C51.033 94.1392 51.2844 93.8707 51.6197 93.6719C51.9549 93.4702 52.3569 93.3693 52.8256 93.3693C53.4109 93.3693 53.8896 93.5526 54.2617 93.919C54.6339 94.2827 54.82 94.8494 54.82 95.6193V100H53.8143V95.6193C53.8143 95.1364 53.6822 94.7912 53.418 94.5838C53.1538 94.3764 52.8427 94.2727 52.4847 94.2727C52.0245 94.2727 51.668 94.4119 51.4151 94.6903C51.1623 94.9659 51.0359 95.3153 51.0359 95.7386V100H50.0131V95.517C50.0131 95.1449 49.8924 94.8452 49.6509 94.6179C49.4094 94.3878 49.0984 94.2727 48.7177 94.2727C48.4563 94.2727 48.212 94.3423 47.9847 94.4815C47.7603 94.6207 47.5785 94.8139 47.4393 95.0611C47.3029 95.3054 47.2347 95.5881 47.2347 95.9091V100H46.229Z" fill="white"/>
<defs>
<clipPath id="clip0_368_222">
<rect width="40" height="40" fill="white" transform="translate(20 20)"/>
</clipPath>
</defs>
</svg>
