<svg width="80" height="103" viewBox="0 0 80 103" fill="none" xmlns="http://www.w3.org/2000/svg">
<rect width="80" height="80" rx="8" fill="#F3F3F3"/>
<g clip-path="url(#clip0_367_159)">
<path d="M20.44 20.44H59.56V59.5603H20.44V20.44Z" fill="#F0DB4F"/>
<path d="M56.3584 50.23C56.0719 48.4453 54.9081 46.9462 51.4609 45.5484C50.2634 44.9981 48.9284 44.6041 48.5306 43.6966C48.3894 43.1684 48.3706 42.8709 48.46 42.5512C48.7165 41.5137 49.955 41.1903 50.9365 41.4878C51.5687 41.6997 52.1672 42.1869 52.5281 42.9641C54.2162 41.8709 54.2128 41.8781 55.3915 41.1269C54.96 40.4578 54.7297 40.1491 54.4472 39.8628C53.4319 38.7287 52.0484 38.1447 49.8359 38.1894L48.6834 38.3384C47.5791 38.6175 46.5266 39.1972 45.9094 39.9744C44.0575 42.0756 44.5856 45.7531 46.8391 47.2666C49.0591 48.9328 52.3203 49.3119 52.7369 50.87C53.1422 52.7775 51.335 53.395 49.5387 53.1756C48.215 52.9003 47.4787 52.2275 46.6828 51.0041C45.2178 51.8519 45.2178 51.8519 43.7115 52.7181C44.0687 53.4991 44.4441 53.8525 45.0428 54.5291C47.8766 57.4034 54.9678 57.2622 56.2397 52.9116C56.2912 52.7622 56.6337 51.7659 56.3584 50.23ZM41.7069 38.4197H38.0478L38.0328 47.8797C38.0328 49.8916 38.1369 51.7359 37.8097 52.3012C37.2744 53.4131 35.8872 53.2753 35.255 53.0597C34.6116 52.7434 34.2844 52.2937 33.9053 51.6581C33.8012 51.4756 33.7231 51.3344 33.6969 51.3234L30.7219 53.1453C31.2166 54.1606 31.9453 55.0419 32.8787 55.6144C34.2731 56.4512 36.1472 56.7078 38.1072 56.2578C39.3828 55.8862 40.4834 55.1166 41.0597 53.945C41.8928 52.4091 41.714 50.55 41.7065 48.4937C41.7253 45.1391 41.7069 41.785 41.7069 38.4197Z" fill="#101828"/>
</g>
<path d="M14.5852 91.2727H15.642V97.5114C15.642 98.0682 15.5398 98.5412 15.3352 98.9304C15.1307 99.3196 14.8423 99.6151 14.4702 99.8168C14.098 100.018 13.6591 100.119 13.1534 100.119C12.6761 100.119 12.2514 100.033 11.8793 99.8594C11.5071 99.6832 11.2145 99.4332 11.0014 99.1094C10.7884 98.7855 10.6818 98.4006 10.6818 97.9545H11.7216C11.7216 98.2017 11.7827 98.4176 11.9048 98.6023C12.0298 98.7841 12.2003 98.9261 12.4162 99.0284C12.6321 99.1307 12.8778 99.1818 13.1534 99.1818C13.4574 99.1818 13.7159 99.1179 13.929 98.9901C14.142 98.8622 14.304 98.6747 14.4148 98.4276C14.5284 98.1776 14.5852 97.8722 14.5852 97.5114V91.2727ZM19.5497 100.153C19.1349 100.153 18.7585 100.075 18.4205 99.919C18.0824 99.7599 17.8139 99.5312 17.6151 99.233C17.4162 98.9318 17.3168 98.5682 17.3168 98.142C17.3168 97.767 17.3906 97.4631 17.5384 97.2301C17.6861 96.9943 17.8835 96.8097 18.1307 96.6761C18.3778 96.5426 18.6506 96.4432 18.9489 96.3778C19.25 96.3097 19.5526 96.2557 19.8565 96.2159C20.2543 96.1648 20.5767 96.1264 20.8239 96.1009C21.0739 96.0724 21.2557 96.0256 21.3693 95.9602C21.4858 95.8949 21.544 95.7812 21.544 95.6193V95.5852C21.544 95.1648 21.429 94.8381 21.1989 94.6051C20.9716 94.3722 20.6264 94.2557 20.1634 94.2557C19.6832 94.2557 19.3068 94.3608 19.0341 94.571C18.7614 94.7812 18.5696 95.0057 18.4588 95.2443L17.5043 94.9034C17.6747 94.5057 17.902 94.196 18.1861 93.9744C18.473 93.75 18.7855 93.5937 19.1236 93.5057C19.4645 93.4148 19.7997 93.3693 20.1293 93.3693C20.3395 93.3693 20.581 93.3949 20.8537 93.446C21.1293 93.4943 21.3949 93.5952 21.6506 93.7486C21.9091 93.902 22.1236 94.1335 22.294 94.4432C22.4645 94.7528 22.5497 95.1676 22.5497 95.6875V100H21.544V99.1136H21.4929C21.4247 99.2557 21.3111 99.4077 21.152 99.5696C20.9929 99.7315 20.7813 99.8693 20.517 99.983C20.2528 100.097 19.9304 100.153 19.5497 100.153ZM19.7031 99.25C20.1009 99.25 20.4361 99.1719 20.7088 99.0156C20.9844 98.8594 21.1918 98.6577 21.331 98.4105C21.473 98.1634 21.544 97.9034 21.544 97.6307V96.7102C21.5014 96.7614 21.4077 96.8082 21.2628 96.8509C21.1207 96.8906 20.956 96.9261 20.7685 96.9574C20.5838 96.9858 20.4034 97.0114 20.2273 97.0341C20.054 97.054 19.9134 97.071 19.8054 97.0852C19.544 97.1193 19.2997 97.1747 19.0724 97.2514C18.848 97.3253 18.6662 97.4375 18.527 97.5881C18.3906 97.7358 18.3224 97.9375 18.3224 98.1932C18.3224 98.5426 18.4517 98.8068 18.7102 98.9858C18.9716 99.1619 19.3026 99.25 19.7031 99.25ZM29.5032 93.4545L27.0827 100H26.06L23.6396 93.4545H24.7305L26.5373 98.6705H26.6055L28.4123 93.4545H29.5032ZM32.5575 100.153C32.1428 100.153 31.7663 100.075 31.4283 99.919C31.0902 99.7599 30.8217 99.5312 30.6229 99.233C30.424 98.9318 30.3246 98.5682 30.3246 98.142C30.3246 97.767 30.3984 97.4631 30.5462 97.2301C30.6939 96.9943 30.8913 96.8097 31.1385 96.6761C31.3857 96.5426 31.6584 96.4432 31.9567 96.3778C32.2578 96.3097 32.5604 96.2557 32.8643 96.2159C33.2621 96.1648 33.5845 96.1264 33.8317 96.1009C34.0817 96.0724 34.2635 96.0256 34.3771 95.9602C34.4936 95.8949 34.5518 95.7812 34.5518 95.6193V95.5852C34.5518 95.1648 34.4368 94.8381 34.2067 94.6051C33.9794 94.3722 33.6342 94.2557 33.1712 94.2557C32.6911 94.2557 32.3146 94.3608 32.0419 94.571C31.7692 94.7812 31.5774 95.0057 31.4666 95.2443L30.5121 94.9034C30.6825 94.5057 30.9098 94.196 31.1939 93.9744C31.4808 93.75 31.7933 93.5937 32.1314 93.5057C32.4723 93.4148 32.8075 93.3693 33.1371 93.3693C33.3473 93.3693 33.5888 93.3949 33.8615 93.446C34.1371 93.4943 34.4027 93.5952 34.6584 93.7486C34.9169 93.902 35.1314 94.1335 35.3018 94.4432C35.4723 94.7528 35.5575 95.1676 35.5575 95.6875V100H34.5518V99.1136H34.5007C34.4325 99.2557 34.3189 99.4077 34.1598 99.5696C34.0007 99.7315 33.7891 99.8693 33.5249 99.983C33.2607 100.097 32.9382 100.153 32.5575 100.153ZM32.7109 99.25C33.1087 99.25 33.4439 99.1719 33.7166 99.0156C33.9922 98.8594 34.1996 98.6577 34.3388 98.4105C34.4808 98.1634 34.5518 97.9034 34.5518 97.6307V96.7102C34.5092 96.7614 34.4155 96.8082 34.2706 96.8509C34.1286 96.8906 33.9638 96.9261 33.7763 96.9574C33.5916 96.9858 33.4112 97.0114 33.2351 97.0341C33.0618 97.054 32.9212 97.071 32.8132 97.0852C32.5518 97.1193 32.3075 97.1747 32.0803 97.2514C31.8558 97.3253 31.674 97.4375 31.5348 97.5881C31.3984 97.7358 31.3303 97.9375 31.3303 98.1932C31.3303 98.5426 31.4595 98.8068 31.718 98.9858C31.9794 99.1619 32.3104 99.25 32.7109 99.25ZM42.3022 93.4545C42.2511 93.0227 42.0437 92.6875 41.68 92.4489C41.3164 92.2102 40.8704 92.0909 40.342 92.0909C39.9556 92.0909 39.6175 92.1534 39.3278 92.2784C39.0408 92.4034 38.8164 92.5753 38.6545 92.794C38.4954 93.0128 38.4158 93.2614 38.4158 93.5398C38.4158 93.7727 38.4712 93.973 38.582 94.1406C38.6957 94.3054 38.8406 94.4432 39.0167 94.554C39.1928 94.6619 39.3775 94.7514 39.5707 94.8224C39.7638 94.8906 39.9414 94.946 40.1033 94.9886L40.9897 95.2273C41.217 95.2869 41.4698 95.3693 41.7482 95.4744C42.0295 95.5795 42.2979 95.723 42.5536 95.9048C42.8121 96.0838 43.0252 96.3139 43.1928 96.5952C43.3604 96.8764 43.4442 97.2216 43.4442 97.6307C43.4442 98.1023 43.3207 98.5284 43.0735 98.9091C42.8292 99.2898 42.4712 99.5923 41.9996 99.8168C41.5309 100.041 40.9613 100.153 40.2908 100.153C39.6658 100.153 39.1246 100.053 38.6673 99.8509C38.2127 99.6491 37.8548 99.3679 37.5934 99.0071C37.3349 98.6463 37.1886 98.2273 37.1545 97.75H38.2454C38.2738 98.0795 38.3846 98.3523 38.5778 98.5682C38.7738 98.7812 39.021 98.9403 39.3192 99.0455C39.6204 99.1477 39.9442 99.1989 40.2908 99.1989C40.6942 99.1989 41.0565 99.1335 41.3775 99.0028C41.6985 98.8693 41.9528 98.6847 42.1403 98.4489C42.3278 98.2102 42.4215 97.9318 42.4215 97.6136C42.4215 97.3239 42.3406 97.0881 42.1786 96.9062C42.0167 96.7244 41.8036 96.5767 41.5394 96.4631C41.2752 96.3494 40.9897 96.25 40.6829 96.1648L39.609 95.858C38.9272 95.6619 38.3874 95.3821 37.9897 95.0185C37.592 94.6548 37.3931 94.179 37.3931 93.5909C37.3931 93.1023 37.5252 92.6761 37.7894 92.3125C38.0565 91.946 38.4144 91.6619 38.8633 91.4602C39.315 91.2557 39.8192 91.1534 40.3761 91.1534C40.9386 91.1534 41.4386 91.2543 41.8761 91.456C42.3136 91.6548 42.6602 91.9276 42.9158 92.2741C43.1744 92.6207 43.3107 93.0142 43.3249 93.4545H42.3022ZM47.7045 100.136C47.0909 100.136 46.5625 99.9915 46.1193 99.7017C45.6761 99.4119 45.3352 99.0128 45.0966 98.5043C44.858 97.9957 44.7386 97.4148 44.7386 96.7614C44.7386 96.0966 44.8608 95.5099 45.1051 95.0014C45.3523 94.4901 45.696 94.0909 46.1364 93.804C46.5795 93.5142 47.0966 93.3693 47.6875 93.3693C48.1477 93.3693 48.5625 93.4545 48.9318 93.625C49.3011 93.7955 49.6037 94.0341 49.8395 94.3409C50.0753 94.6477 50.2216 95.0057 50.2784 95.4148H49.2727C49.196 95.1165 49.0256 94.8523 48.7614 94.6222C48.5 94.3892 48.1477 94.2727 47.7045 94.2727C47.3125 94.2727 46.9688 94.375 46.6733 94.5795C46.3807 94.7812 46.152 95.0668 45.9872 95.4361C45.8253 95.8026 45.7443 96.233 45.7443 96.7273C45.7443 97.233 45.8239 97.6733 45.983 98.0483C46.1449 98.4233 46.3722 98.7145 46.6648 98.9219C46.9602 99.1293 47.3068 99.233 47.7045 99.233C47.9659 99.233 48.2031 99.1875 48.4162 99.0966C48.6293 99.0057 48.8097 98.875 48.9574 98.7045C49.1051 98.5341 49.2102 98.3295 49.2727 98.0909H50.2784C50.2216 98.4773 50.081 98.8253 49.8565 99.1349C49.6349 99.4418 49.3409 99.6861 48.9744 99.8679C48.6108 100.047 48.1875 100.136 47.7045 100.136ZM51.7486 100V93.4545H52.7202V94.4432H52.7884C52.9077 94.1193 53.1236 93.8565 53.4361 93.6548C53.7486 93.4531 54.1009 93.3523 54.4929 93.3523C54.5668 93.3523 54.6591 93.3537 54.7699 93.3565C54.8807 93.3594 54.9645 93.3636 55.0213 93.3693V94.392C54.9872 94.3835 54.9091 94.3707 54.7869 94.3537C54.6676 94.3338 54.5412 94.3239 54.4077 94.3239C54.0895 94.3239 53.8054 94.3906 53.5554 94.5241C53.3082 94.6548 53.1122 94.8366 52.9673 95.0696C52.8253 95.2997 52.7543 95.5625 52.7543 95.858V100H51.7486ZM56.2134 100V93.4545H57.2191V100H56.2134ZM56.7248 92.3636C56.5288 92.3636 56.3597 92.2969 56.2177 92.1634C56.0785 92.0298 56.0089 91.8693 56.0089 91.6818C56.0089 91.4943 56.0785 91.3338 56.2177 91.2003C56.3597 91.0668 56.5288 91 56.7248 91C56.9208 91 57.0884 91.0668 57.2276 91.2003C57.3697 91.3338 57.4407 91.4943 57.4407 91.6818C57.4407 91.8693 57.3697 92.0298 57.2276 92.1634C57.0884 92.2969 56.9208 92.3636 56.7248 92.3636ZM59.0611 102.455V93.4545H60.0327V94.4943H60.152C60.2259 94.3807 60.3281 94.2358 60.4588 94.0597C60.5923 93.8807 60.7827 93.7216 61.0298 93.5824C61.2798 93.4403 61.6179 93.3693 62.044 93.3693C62.5952 93.3693 63.081 93.5071 63.5014 93.7827C63.9219 94.0582 64.25 94.4489 64.4858 94.9545C64.7216 95.4602 64.8395 96.0568 64.8395 96.7443C64.8395 97.4375 64.7216 98.0384 64.4858 98.5469C64.25 99.0526 63.9233 99.4446 63.5057 99.723C63.0881 99.9986 62.6065 100.136 62.0611 100.136C61.6406 100.136 61.304 100.067 61.0511 99.9276C60.7983 99.7855 60.6037 99.625 60.4673 99.446C60.331 99.2642 60.2259 99.1136 60.152 98.9943H60.0668V102.455H59.0611ZM60.0497 96.7273C60.0497 97.2216 60.1222 97.6577 60.267 98.0355C60.4119 98.4105 60.6236 98.7045 60.902 98.9176C61.1804 99.1278 61.5213 99.233 61.9247 99.233C62.3452 99.233 62.696 99.1222 62.9773 98.9006C63.2614 98.6761 63.4744 98.375 63.6165 97.9972C63.7614 97.6165 63.8338 97.1932 63.8338 96.7273C63.8338 96.267 63.7628 95.8523 63.6207 95.483C63.4815 95.1108 63.2699 94.8168 62.9858 94.6009C62.7045 94.3821 62.3509 94.2727 61.9247 94.2727C61.5156 94.2727 61.1719 94.3764 60.8935 94.5838C60.6151 94.7884 60.4048 95.0753 60.2628 95.4446C60.1207 95.8111 60.0497 96.2386 60.0497 96.7273ZM69.2202 93.4545V94.3068H65.8281V93.4545H69.2202ZM66.8168 91.8864H67.8224V98.125C67.8224 98.4091 67.8636 98.6222 67.946 98.7642C68.0313 98.9034 68.1392 98.9972 68.2699 99.0455C68.4034 99.0909 68.544 99.1136 68.6918 99.1136C68.8026 99.1136 68.8935 99.108 68.9645 99.0966C69.0355 99.0824 69.0923 99.071 69.1349 99.0625L69.3395 99.9659C69.2713 99.9915 69.1761 100.017 69.054 100.043C68.9318 100.071 68.777 100.085 68.5895 100.085C68.3054 100.085 68.027 100.024 67.7543 99.902C67.4844 99.7798 67.2599 99.5938 67.081 99.3438C66.9048 99.0938 66.8168 98.7784 66.8168 98.3977V91.8864Z" fill="#0D1117"/>
<defs>
<clipPath id="clip0_367_159">
<rect width="40" height="40" fill="white" transform="translate(20 20)"/>
</clipPath>
</defs>
</svg>
