<svg width="80" height="103" viewBox="0 0 80 103" fill="none" xmlns="http://www.w3.org/2000/svg">
<path d="M9.4826 100V91.2727H12.4315C13.1161 91.2727 13.6758 91.3963 14.1104 91.6435C14.5479 91.8878 14.8718 92.2188 15.082 92.6364C15.2923 93.054 15.3974 93.5199 15.3974 94.0341C15.3974 94.5483 15.2923 95.0156 15.082 95.4361C14.8746 95.8565 14.5536 96.1918 14.119 96.4418C13.6843 96.6889 13.1275 96.8125 12.4485 96.8125H10.3349V95.875H12.4144C12.8832 95.875 13.2596 95.794 13.5437 95.6321C13.8278 95.4702 14.0337 95.2514 14.1616 94.9759C14.2923 94.6974 14.3576 94.3835 14.3576 94.0341C14.3576 93.6847 14.2923 93.3722 14.1616 93.0966C14.0337 92.821 13.8263 92.6051 13.5394 92.4489C13.2525 92.2898 12.8718 92.2102 12.3974 92.2102H10.5394V100H9.4826ZM17.9691 96.0625V100H16.9634V91.2727H17.9691V94.4773H18.0543C18.2077 94.1392 18.4379 93.8707 18.7447 93.6719C19.0543 93.4702 19.4663 93.3693 19.9805 93.3693C20.4265 93.3693 20.8171 93.4588 21.1523 93.6378C21.4876 93.8139 21.7475 94.0852 21.9322 94.4517C22.1197 94.8153 22.2134 95.2784 22.2134 95.8409V100H21.2077V95.9091C21.2077 95.3892 21.0728 94.9872 20.8029 94.7031C20.5359 94.4162 20.1651 94.2727 19.6907 94.2727C19.3612 94.2727 19.0657 94.3423 18.8043 94.4815C18.5458 94.6207 18.3413 94.8239 18.1907 95.0909C18.043 95.358 17.9691 95.6818 17.9691 96.0625ZM26.7124 100.136C26.1214 100.136 25.603 99.9957 25.157 99.7145C24.7138 99.4332 24.3672 99.0398 24.1172 98.5341C23.87 98.0284 23.7464 97.4375 23.7464 96.7614C23.7464 96.0795 23.87 95.4844 24.1172 94.9759C24.3672 94.4673 24.7138 94.0724 25.157 93.7912C25.603 93.5099 26.1214 93.3693 26.7124 93.3693C27.3033 93.3693 27.8203 93.5099 28.2635 93.7912C28.7095 94.0724 29.0561 94.4673 29.3033 94.9759C29.5533 95.4844 29.6783 96.0795 29.6783 96.7614C29.6783 97.4375 29.5533 98.0284 29.3033 98.5341C29.0561 99.0398 28.7095 99.4332 28.2635 99.7145C27.8203 99.9957 27.3033 100.136 26.7124 100.136ZM26.7124 99.233C27.1612 99.233 27.5305 99.1179 27.8203 98.8878C28.1101 98.6577 28.3246 98.3551 28.4638 97.9801C28.603 97.6051 28.6726 97.1989 28.6726 96.7614C28.6726 96.3239 28.603 95.9162 28.4638 95.5384C28.3246 95.1605 28.1101 94.8551 27.8203 94.6222C27.5305 94.3892 27.1612 94.2727 26.7124 94.2727C26.2635 94.2727 25.8942 94.3892 25.6044 94.6222C25.3146 94.8551 25.1001 95.1605 24.9609 95.5384C24.8217 95.9162 24.7521 96.3239 24.7521 96.7614C24.7521 97.1989 24.8217 97.6051 24.9609 97.9801C25.1001 98.3551 25.3146 98.6577 25.6044 98.8878C25.8942 99.1179 26.2635 99.233 26.7124 99.233ZM34.06 93.4545V94.3068H30.668V93.4545H34.06ZM31.6566 91.8864H32.6623V98.125C32.6623 98.4091 32.7035 98.6222 32.7859 98.7642C32.8711 98.9034 32.979 98.9972 33.1097 99.0455C33.2433 99.0909 33.3839 99.1136 33.5316 99.1136C33.6424 99.1136 33.7333 99.108 33.8043 99.0966C33.8754 99.0824 33.9322 99.071 33.9748 99.0625L34.1793 99.9659C34.1112 99.9915 34.016 100.017 33.8938 100.043C33.7717 100.071 33.6168 100.085 33.4293 100.085C33.1452 100.085 32.8668 100.024 32.5941 99.902C32.3242 99.7798 32.0998 99.5938 31.9208 99.3438C31.7447 99.0938 31.6566 98.7784 31.6566 98.3977V91.8864ZM38.1616 100.136C37.5707 100.136 37.0522 99.9957 36.6062 99.7145C36.163 99.4332 35.8164 99.0398 35.5664 98.5341C35.3192 98.0284 35.1957 97.4375 35.1957 96.7614C35.1957 96.0795 35.3192 95.4844 35.5664 94.9759C35.8164 94.4673 36.163 94.0724 36.6062 93.7912C37.0522 93.5099 37.5707 93.3693 38.1616 93.3693C38.7525 93.3693 39.2695 93.5099 39.7127 93.7912C40.1587 94.0724 40.5053 94.4673 40.7525 94.9759C41.0025 95.4844 41.1275 96.0795 41.1275 96.7614C41.1275 97.4375 41.0025 98.0284 40.7525 98.5341C40.5053 99.0398 40.1587 99.4332 39.7127 99.7145C39.2695 99.9957 38.7525 100.136 38.1616 100.136ZM38.1616 99.233C38.6104 99.233 38.9798 99.1179 39.2695 98.8878C39.5593 98.6577 39.7738 98.3551 39.913 97.9801C40.0522 97.6051 40.1218 97.1989 40.1218 96.7614C40.1218 96.3239 40.0522 95.9162 39.913 95.5384C39.7738 95.1605 39.5593 94.8551 39.2695 94.6222C38.9798 94.3892 38.6104 94.2727 38.1616 94.2727C37.7127 94.2727 37.3434 94.3892 37.0536 94.6222C36.7638 94.8551 36.5494 95.1605 36.4102 95.5384C36.271 95.9162 36.2013 96.3239 36.2013 96.7614C36.2013 97.1989 36.271 97.6051 36.4102 97.9801C36.5494 98.3551 36.7638 98.6577 37.0536 98.8878C37.3434 99.1179 37.7127 99.233 38.1616 99.233ZM47.299 94.9205L46.3956 95.1761C46.3388 95.0256 46.255 94.8793 46.1442 94.7372C46.0362 94.5923 45.8885 94.473 45.701 94.3793C45.5135 94.2855 45.2734 94.2386 44.9808 94.2386C44.5803 94.2386 44.2464 94.331 43.9794 94.5156C43.7152 94.6974 43.5831 94.929 43.5831 95.2102C43.5831 95.4602 43.674 95.6577 43.8558 95.8026C44.0376 95.9474 44.3217 96.0682 44.7081 96.1648L45.6797 96.4034C46.2649 96.5455 46.701 96.7628 46.9879 97.0554C47.2749 97.3452 47.4183 97.7187 47.4183 98.1761C47.4183 98.5511 47.3104 98.8864 47.0945 99.1818C46.8814 99.4773 46.5831 99.7102 46.1996 99.8807C45.8161 100.051 45.37 100.136 44.8615 100.136C44.1939 100.136 43.6413 99.9915 43.2038 99.7017C42.7663 99.4119 42.4893 98.9886 42.3729 98.4318L43.3274 98.1932C43.4183 98.5455 43.5902 98.8097 43.843 98.9858C44.0987 99.1619 44.4325 99.25 44.8445 99.25C45.3132 99.25 45.6854 99.1506 45.9609 98.9517C46.2393 98.75 46.3786 98.5085 46.3786 98.2273C46.3786 98 46.299 97.8097 46.1399 97.6562C45.9808 97.5 45.7365 97.3835 45.407 97.3068L44.3161 97.0511C43.7166 96.9091 43.2763 96.6889 42.995 96.3906C42.7166 96.0895 42.5774 95.7131 42.5774 95.2614C42.5774 94.892 42.6811 94.5653 42.8885 94.2812C43.0987 93.9972 43.3842 93.7741 43.745 93.6122C44.1087 93.4503 44.5206 93.3693 44.9808 93.3693C45.6286 93.3693 46.1371 93.5114 46.5064 93.7955C46.8786 94.0795 47.1428 94.4545 47.299 94.9205ZM49.9379 96.0625V100H48.9322V91.2727H49.9379V94.4773H50.0231C50.1765 94.1392 50.4066 93.8707 50.7134 93.6719C51.0231 93.4702 51.435 93.3693 51.9492 93.3693C52.3952 93.3693 52.7859 93.4588 53.1211 93.6378C53.4563 93.8139 53.7163 94.0852 53.9009 94.4517C54.0884 94.8153 54.1822 95.2784 54.1822 95.8409V100H53.1765V95.9091C53.1765 95.3892 53.0415 94.9872 52.7717 94.7031C52.5046 94.4162 52.1339 94.2727 51.6594 94.2727C51.3299 94.2727 51.0344 94.3423 50.7731 94.4815C50.5146 94.6207 50.31 94.8239 50.1594 95.0909C50.0117 95.358 49.9379 95.6818 49.9379 96.0625ZM58.6811 100.136C58.0902 100.136 57.5717 99.9957 57.1257 99.7145C56.6825 99.4332 56.3359 99.0398 56.0859 98.5341C55.8388 98.0284 55.7152 97.4375 55.7152 96.7614C55.7152 96.0795 55.8388 95.4844 56.0859 94.9759C56.3359 94.4673 56.6825 94.0724 57.1257 93.7912C57.5717 93.5099 58.0902 93.3693 58.6811 93.3693C59.272 93.3693 59.7891 93.5099 60.2322 93.7912C60.6783 94.0724 61.0249 94.4673 61.272 94.9759C61.522 95.4844 61.647 96.0795 61.647 96.7614C61.647 97.4375 61.522 98.0284 61.272 98.5341C61.0249 99.0398 60.6783 99.4332 60.2322 99.7145C59.7891 99.9957 59.272 100.136 58.6811 100.136ZM58.6811 99.233C59.13 99.233 59.4993 99.1179 59.7891 98.8878C60.0788 98.6577 60.2933 98.3551 60.4325 97.9801C60.5717 97.6051 60.6413 97.1989 60.6413 96.7614C60.6413 96.3239 60.5717 95.9162 60.4325 95.5384C60.2933 95.1605 60.0788 94.8551 59.7891 94.6222C59.4993 94.3892 59.13 94.2727 58.6811 94.2727C58.2322 94.2727 57.8629 94.3892 57.5732 94.6222C57.2834 94.8551 57.0689 95.1605 56.9297 95.5384C56.7905 95.9162 56.7209 96.3239 56.7209 96.7614C56.7209 97.1989 56.7905 97.6051 56.9297 97.9801C57.0689 98.3551 57.2834 98.6577 57.5732 98.8878C57.8629 99.1179 58.2322 99.233 58.6811 99.233ZM63.1822 102.455V93.4545H64.1538V94.4943H64.2731C64.3469 94.3807 64.4492 94.2358 64.5799 94.0597C64.7134 93.8807 64.9038 93.7216 65.1509 93.5824C65.4009 93.4403 65.739 93.3693 66.1651 93.3693C66.7163 93.3693 67.2021 93.5071 67.6225 93.7827C68.043 94.0582 68.3711 94.4489 68.6069 94.9545C68.8427 95.4602 68.9606 96.0568 68.9606 96.7443C68.9606 97.4375 68.8427 98.0384 68.6069 98.5469C68.3711 99.0526 68.0444 99.4446 67.6268 99.723C67.2092 99.9986 66.7276 100.136 66.1822 100.136C65.7617 100.136 65.4251 100.067 65.1722 99.9276C64.9194 99.7855 64.7248 99.625 64.5884 99.446C64.4521 99.2642 64.3469 99.1136 64.2731 98.9943H64.1879V102.455H63.1822ZM64.1708 96.7273C64.1708 97.2216 64.2433 97.6577 64.3881 98.0355C64.533 98.4105 64.7447 98.7045 65.0231 98.9176C65.3015 99.1278 65.6424 99.233 66.0458 99.233C66.4663 99.233 66.8171 99.1222 67.0984 98.9006C67.3825 98.6761 67.5955 98.375 67.7376 97.9972C67.8825 97.6165 67.9549 97.1932 67.9549 96.7273C67.9549 96.267 67.8839 95.8523 67.7418 95.483C67.6026 95.1108 67.391 94.8168 67.1069 94.6009C66.8256 94.3821 66.4719 94.2727 66.0458 94.2727C65.6367 94.2727 65.293 94.3764 65.0146 94.5838C64.7362 94.7884 64.5259 95.0753 64.3839 95.4446C64.2418 95.8111 64.1708 96.2386 64.1708 96.7273Z" fill="#0D1117"/>
<rect width="80" height="80" rx="8" fill="#F3F3F3"/>
<g clip-path="url(#clip0_366_100)">
<path fill-rule="evenodd" clip-rule="evenodd" d="M59.4425 20.2272C48.1228 20.2237 36.8537 20.2241 25.5338 20.2241C23.9147 20.2241 22.2678 20.2228 20.6487 20.2275C20.5462 20.2278 20.3125 20.2753 20.3125 20.3012V59.6875H59.6875V20.3012C59.6875 20.2753 59.5581 20.2272 59.4425 20.2272ZM55.4625 55.8331C45.2622 55.8212 35.0653 55.8237 24.865 55.8237C24.3725 55.8237 24.3747 55.8228 24.3747 55.3153V24.7537C24.375 24.2516 24.37 24.375 24.8678 24.375H55.4297C55.9416 24.375 55.9375 24.2512 55.9375 24.7784V40.04C55.9375 45.14 55.9353 50.24 55.9488 55.3397C55.95 55.7281 55.8584 55.8334 55.4625 55.8331ZM37.7562 32.3887C35.6725 31.9003 33.575 32.1412 31.4797 32.3553C31.035 32.4009 30.95 32.5912 30.9512 32.9859C30.9647 37.7381 30.9375 42.4903 30.9375 47.2425V47.5H33.75V41.9184C35.3125 42.0356 36.7425 42.0078 38.1403 41.5091C40.3806 40.7097 41.5003 38.9744 41.3794 36.4406C41.2816 34.3944 39.9962 32.9137 37.7562 32.3887ZM37.1459 39.3712C36.1478 39.8578 35.0866 39.8462 34.0194 39.7019C33.9362 39.6906 33.8084 39.5422 33.8078 39.4569C33.7953 37.7909 33.7984 36.1253 33.7984 34.4137C34.7769 34.2612 35.7047 34.1869 36.6303 34.4194C37.7781 34.7078 38.4441 35.4566 38.5681 36.5809C38.7044 37.8166 38.1784 38.8681 37.1459 39.3712ZM47.5525 41.5919C47.0934 41.3403 46.59 41.1709 46.1131 40.9503C45.6725 40.7462 45.2278 40.5453 44.8088 40.3016C44.5166 40.1319 44.3837 39.8353 44.3837 39.4856C44.3837 38.8944 44.7881 38.4178 45.4787 38.3612C45.9941 38.3191 46.5291 38.3722 47.0394 38.4675C47.4694 38.5475 47.8772 38.7484 48.315 38.9034L48.8672 36.9444C47.8219 36.4369 46.7581 36.2459 45.6531 36.285C44.7137 36.3178 43.8362 36.5572 43.0431 37.0972C41.5609 38.1062 40.8378 40.7869 43.0591 42.2272C43.6231 42.5931 44.2756 42.8225 44.8875 43.115C45.2681 43.2972 45.6653 43.4522 46.0253 43.6687C46.4791 43.9419 46.6334 44.3866 46.5547 44.9C46.4775 45.4047 46.1391 45.7244 45.6684 45.7981C45.1434 45.8806 44.5853 45.9341 44.0691 45.8431C43.3381 45.7147 42.6319 45.4428 41.8897 45.2247C41.7566 45.7216 41.63 46.2712 41.4572 46.8059C41.3625 47.0991 41.4181 47.2437 41.7056 47.3584C43.4609 48.0556 45.2475 48.1991 47.0438 47.5825C48.3863 47.1216 49.2047 46.1687 49.3112 44.7172C49.415 43.3025 48.7775 42.2637 47.5525 41.5919Z" fill="#80B5E2"/>
</g>
<defs>
<clipPath id="clip0_366_100">
<rect width="40" height="40" fill="white" transform="translate(20 20)"/>
</clipPath>
</defs>
</svg>
