<svg width="80" height="80" viewBox="0 0 80 80" fill="none" xmlns="http://www.w3.org/2000/svg">
<rect width="80" height="80" rx="8" fill="#F3F3F3"/>
<g clip-path="url(#clip0_363_65)">
<path fill-rule="evenodd" clip-rule="evenodd" d="M59.4425 20.2272C48.1228 20.2237 36.8537 20.2241 25.5338 20.2241C23.9147 20.2241 22.2678 20.2228 20.6487 20.2275C20.5462 20.2278 20.3125 20.2753 20.3125 20.3012V59.6875H59.6875V20.3012C59.6875 20.2753 59.5581 20.2272 59.4425 20.2272ZM55.4625 55.8331C45.2622 55.8212 35.0653 55.8237 24.865 55.8237C24.3725 55.8237 24.3747 55.8228 24.3747 55.3153V24.7537C24.375 24.2516 24.37 24.375 24.8678 24.375H55.4297C55.9416 24.375 55.9375 24.2512 55.9375 24.7784V40.04C55.9375 45.14 55.9353 50.24 55.9488 55.3397C55.95 55.7281 55.8584 55.8334 55.4625 55.8331ZM37.7562 32.3887C35.6725 31.9003 33.575 32.1412 31.4797 32.3553C31.035 32.4009 30.95 32.5912 30.9512 32.9859C30.9647 37.7381 30.9375 42.4903 30.9375 47.2425V47.5H33.75V41.9184C35.3125 42.0356 36.7425 42.0078 38.1403 41.5091C40.3806 40.7097 41.5003 38.9744 41.3794 36.4406C41.2816 34.3944 39.9962 32.9137 37.7562 32.3887ZM37.1459 39.3712C36.1478 39.8578 35.0866 39.8462 34.0194 39.7019C33.9362 39.6906 33.8084 39.5422 33.8078 39.4569C33.7953 37.7909 33.7984 36.1253 33.7984 34.4137C34.7769 34.2612 35.7047 34.1869 36.6303 34.4194C37.7781 34.7078 38.4441 35.4566 38.5681 36.5809C38.7044 37.8166 38.1784 38.8681 37.1459 39.3712ZM47.5525 41.5919C47.0934 41.3403 46.59 41.1709 46.1131 40.9503C45.6725 40.7462 45.2278 40.5453 44.8088 40.3016C44.5166 40.1319 44.3837 39.8353 44.3837 39.4856C44.3837 38.8944 44.7881 38.4178 45.4787 38.3612C45.9941 38.3191 46.5291 38.3722 47.0394 38.4675C47.4694 38.5475 47.8772 38.7484 48.315 38.9034L48.8672 36.9444C47.8219 36.4369 46.7581 36.2459 45.6531 36.285C44.7137 36.3178 43.8362 36.5572 43.0431 37.0972C41.5609 38.1062 40.8378 40.7869 43.0591 42.2272C43.6231 42.5931 44.2756 42.8225 44.8875 43.115C45.2681 43.2972 45.6653 43.4522 46.0253 43.6687C46.4791 43.9419 46.6334 44.3866 46.5547 44.9C46.4775 45.4047 46.1391 45.7244 45.6684 45.7981C45.1434 45.8806 44.5853 45.9341 44.0691 45.8431C43.3381 45.7147 42.6319 45.4428 41.8897 45.2247C41.7566 45.7216 41.63 46.2712 41.4572 46.8059C41.3625 47.0991 41.4181 47.2437 41.7056 47.3584C43.4609 48.0556 45.2475 48.1991 47.0438 47.5825C48.3863 47.1216 49.2047 46.1687 49.3112 44.7172C49.415 43.3025 48.7775 42.2637 47.5525 41.5919Z" fill="#80B5E2"/>
</g>
<defs>
<clipPath id="clip0_363_65">
<rect width="40" height="40" fill="white" transform="translate(20 20)"/>
</clipPath>
</defs>
</svg>
