<svg width="80" height="103" viewBox="0 0 80 103" fill="none" xmlns="http://www.w3.org/2000/svg">
<rect width="80" height="80" rx="8" fill="black"/>
<path d="M40 30.3247C29.4562 30.3247 20.9081 34.6566 20.9081 40C20.9081 45.3434 29.4562 49.6753 40 49.6753C50.5437 49.6753 59.0919 45.3434 59.0919 40C59.0919 34.6566 50.5437 30.3247 40 30.3247ZM35.0322 41.885C34.5765 42.3113 34.0706 42.4872 33.5134 42.6684C32.9562 42.85 32.2472 42.8125 31.385 42.8125H29.4309L28.8894 45.9375H26.6078L28.6437 35.3125H33.0312C34.3512 35.3125 35.3141 35.6922 35.9194 36.385C36.5247 37.0778 36.7065 38.0613 36.4653 39.3028C36.3656 39.8144 36.1978 40.29 35.9609 40.7138C35.7155 41.151 35.402 41.5463 35.0322 41.885ZM41.6919 42.8125L42.5922 38.3063C42.6947 37.7788 42.6572 37.3869 42.4794 37.1953C42.3012 37.0034 41.9225 36.875 41.3434 36.875H39.534L38.3681 42.8125H36.1044L38.1403 32.5H40.404L39.8628 35.3125H41.8794C43.1484 35.3125 44.0234 35.5672 44.505 36.0097C44.9865 36.4522 45.1309 37.0584 44.9384 38.0497L43.9912 42.8125H41.6919ZM54.2728 39.3194C54.1734 39.8309 54.0053 40.2984 53.7687 40.7219C53.5319 41.1459 53.2225 41.5338 52.8403 41.885C52.3847 42.3113 51.8784 42.4872 51.3215 42.6684C50.7647 42.85 50.055 42.8125 49.1928 42.8125H47.2387L46.6975 45.9375H44.4159L46.4515 35.3125H50.8394C52.1594 35.3125 53.1222 35.6922 53.7272 36.385C54.3319 37.0778 54.514 38.0781 54.2728 39.3194ZM49.9747 36.875H48.4119L47.5597 41.25H48.9478C49.8672 41.25 50.5528 41.1594 51.0028 40.8125C51.4534 40.4663 51.7569 39.9288 51.9147 39.1184C52.0659 38.34 51.9972 37.7328 51.7084 37.4128C51.4194 37.0928 50.8415 36.875 49.9747 36.875ZM32.1669 36.875H30.6037L29.7515 41.25H31.1394C32.059 41.25 32.7444 41.1594 33.1947 40.8125C33.645 40.4663 33.9487 39.9288 34.1062 39.1184C34.2575 38.34 34.1887 37.7328 33.9 37.4128C33.6112 37.0928 33.0337 36.875 32.1669 36.875Z" fill="#6181B6"/>
<path d="M29.4982 100V91.2727H32.4471C33.1317 91.2727 33.6914 91.3963 34.1261 91.6435C34.5636 91.8878 34.8874 92.2188 35.0977 92.6364C35.3079 93.054 35.413 93.5199 35.413 94.0341C35.413 94.5483 35.3079 95.0156 35.0977 95.4361C34.8903 95.8565 34.5692 96.1918 34.1346 96.4418C33.6999 96.6889 33.1431 96.8125 32.4641 96.8125H30.3505V95.875H32.43C32.8988 95.875 33.2752 95.794 33.5593 95.6321C33.8434 95.4702 34.0494 95.2514 34.1772 94.9759C34.3079 94.6974 34.3732 94.3835 34.3732 94.0341C34.3732 93.6847 34.3079 93.3722 34.1772 93.0966C34.0494 92.821 33.842 92.6051 33.555 92.4489C33.2681 92.2898 32.8874 92.2102 32.413 92.2102H30.555V100H29.4982ZM37.1154 100V91.2727H38.1722V95.1591H42.8256V91.2727H43.8825V100H42.8256V96.0966H38.1722V100H37.1154ZM45.9982 100V91.2727H48.9471C49.6317 91.2727 50.1914 91.3963 50.6261 91.6435C51.0636 91.8878 51.3874 92.2188 51.5977 92.6364C51.8079 93.054 51.913 93.5199 51.913 94.0341C51.913 94.5483 51.8079 95.0156 51.5977 95.4361C51.3903 95.8565 51.0692 96.1918 50.6346 96.4418C50.1999 96.6889 49.6431 96.8125 48.9641 96.8125H46.8505V95.875H48.93C49.3988 95.875 49.7752 95.794 50.0593 95.6321C50.3434 95.4702 50.5494 95.2514 50.6772 94.9759C50.8079 94.6974 50.8732 94.3835 50.8732 94.0341C50.8732 93.6847 50.8079 93.3722 50.6772 93.0966C50.5494 92.821 50.342 92.6051 50.055 92.4489C49.7681 92.2898 49.3874 92.2102 48.913 92.2102H47.055V100H45.9982Z" fill="white"/>
</svg>
