<svg width="80" height="103" viewBox="0 0 80 103" fill="none" xmlns="http://www.w3.org/2000/svg">
<rect width="80" height="80" rx="8" fill="black"/>
<path d="M40 43.5625C41.9675 43.5625 43.5625 41.9675 43.5625 40C43.5625 38.0325 41.9675 36.4375 40 36.4375C38.0325 36.4375 36.4375 38.0325 36.4375 40C36.4375 41.9675 38.0325 43.5625 40 43.5625Z" fill="#61DAFB"/>
<path d="M53.5313 34.125C52.8438 33.875 52.125 33.625 51.375 33.4063C51.5625 32.6563 51.7187 31.9062 51.8438 31.1875C52.5 27.0625 51.7813 24.1562 49.7813 23.0312C49.1875 22.6875 48.5313 22.5312 47.7812 22.5312C45.5938 22.5312 42.8125 24.1562 40 26.875C37.1875 24.1562 34.4062 22.5312 32.2187 22.5312C31.4687 22.5312 30.8125 22.6875 30.2188 23.0312C28.2188 24.1875 27.5 27.0937 28.1563 31.1875C28.2813 31.9062 28.4375 32.6563 28.625 33.4063C27.875 33.625 27.1563 33.8437 26.4688 34.125C22.5625 35.625 20.4375 37.6875 20.4375 40C20.4375 42.3125 22.5938 44.375 26.4688 45.875C27.1563 46.125 27.875 46.375 28.625 46.5938C28.4375 47.3438 28.2813 48.0937 28.1563 48.8125C27.5 52.9375 28.2188 55.8438 30.2188 56.9688C30.8125 57.3125 31.4687 57.4688 32.2187 57.4688C34.4375 57.4688 37.2187 55.8438 40 53.125C42.8125 55.8438 45.5938 57.4688 47.7812 57.4688C48.5313 57.4688 49.1875 57.3125 49.7813 56.9688C51.7813 55.8125 52.5 52.9062 51.8438 48.8125C51.7187 48.0937 51.5625 47.3438 51.375 46.5938C52.125 46.375 52.8438 46.1563 53.5313 45.875C57.4375 44.375 59.5625 42.3125 59.5625 40C59.5625 37.6875 57.4375 35.625 53.5313 34.125ZM48.9062 24.5937C50.1875 25.3437 50.625 27.6562 50.0938 30.9375C50 31.5937 49.8438 32.2813 49.6562 33C48.0313 32.625 46.3125 32.375 44.5 32.2187C43.4375 30.7187 42.3437 29.375 41.25 28.1562C43.5625 25.875 45.9062 24.3125 47.8125 24.3125C48.2187 24.3125 48.5937 24.4062 48.9062 24.5937ZM45.4063 43.125C44.8438 44.125 44.1875 45.125 43.5 46.125C42.3437 46.2188 41.1875 46.25 40 46.25C38.7812 46.25 37.625 46.2188 36.5 46.125C35.8125 45.125 35.1875 44.125 34.625 43.125C34.0312 42.0938 33.4687 41.0313 32.9687 40C33.4687 38.9688 34.0312 37.9063 34.625 36.875C35.1875 35.875 35.8437 34.875 36.5312 33.875C37.6875 33.7813 38.8437 33.75 40.0312 33.75C41.25 33.75 42.4063 33.7813 43.5313 33.875C44.2188 34.875 44.8438 35.875 45.4063 36.875C46 37.9063 46.5625 38.9688 47.0625 40C46.5312 41.0313 46 42.0625 45.4063 43.125ZM48 42.0937C48.4687 43.1875 48.8437 44.25 49.1875 45.3125C48.125 45.5625 47 45.75 45.8125 45.9063C46.1875 45.3125 46.5937 44.6875 46.9375 44.0313C47.3125 43.375 47.6562 42.7187 48 42.0937ZM40 50.5625C39.25 49.75 38.5312 48.875 37.8437 47.9688C38.5625 48 39.2812 48.0312 40 48.0312C40.7187 48.0312 41.4375 48 42.1562 47.9688C41.4687 48.875 40.75 49.75 40 50.5625ZM34.1875 45.875C33 45.7188 31.875 45.5313 30.8125 45.2813C31.1562 44.25 31.5312 43.1562 32 42.0625C32.3438 42.6875 32.6875 43.3437 33.0625 43.9687C33.4375 44.6562 33.8125 45.25 34.1875 45.875ZM32 37.9062C31.5312 36.8125 31.1562 35.75 30.8125 34.6875C31.875 34.4375 33 34.25 34.1875 34.0938C33.8125 34.6875 33.4062 35.3125 33.0625 35.9688C32.6875 36.625 32.3438 37.2812 32 37.9062ZM40 29.4375C40.75 30.25 41.4687 31.125 42.1562 32.0312C41.4375 32 40.7187 31.9687 40 31.9687C39.2812 31.9687 38.5625 32 37.8437 32.0312C38.5312 31.125 39.25 30.25 40 29.4375ZM46.9375 36L45.8125 34.125C47 34.2812 48.125 34.4687 49.1875 34.7188C48.8437 35.75 48.4687 36.8438 48 37.9375C47.6562 37.2813 47.3125 36.625 46.9375 36ZM29.9063 30.9375C29.375 27.6562 29.8125 25.3437 31.0937 24.5937C31.4062 24.4062 31.7812 24.3125 32.1875 24.3125C34.0625 24.3125 36.4062 25.8437 38.75 28.1562C37.6562 29.3437 36.5625 30.7187 35.5 32.2187C33.6875 32.375 31.9687 32.6562 30.3437 33C30.1562 32.2813 30.0313 31.5937 29.9063 30.9375ZM22.1875 40C22.1875 38.5313 23.9688 36.9688 27.0938 35.8125C27.7188 35.5625 28.4063 35.3438 29.0938 35.1563C29.5938 36.7188 30.2187 38.375 30.9687 40.0312C30.2187 41.6875 29.5625 43.3125 29.0938 44.875C24.7813 43.625 22.1875 41.75 22.1875 40ZM31.0937 55.4063C29.8125 54.6563 29.375 52.3438 29.9063 49.0625C30 48.4063 30.1562 47.7188 30.3437 47C31.9687 47.375 33.6875 47.625 35.5 47.7813C36.5625 49.2813 37.6562 50.625 38.75 51.8438C36.4375 54.125 34.0937 55.6875 32.1875 55.6875C31.7812 55.6875 31.4062 55.5938 31.0937 55.4063ZM50.0938 49.0625C50.625 52.3438 50.1875 54.6563 48.9062 55.4063C48.5937 55.5938 48.2187 55.6875 47.8125 55.6875C45.9375 55.6875 43.5937 54.1563 41.25 51.8438C42.3437 50.6563 43.4375 49.2813 44.5 47.7813C46.3125 47.625 48.0313 47.3438 49.6562 47C49.8438 47.7188 49.9688 48.4063 50.0938 49.0625ZM52.9063 44.1875C52.2813 44.4375 51.5938 44.6563 50.9062 44.8438C50.4062 43.2813 49.7813 41.625 49.0312 39.9688C49.7813 38.3125 50.4375 36.6875 50.9062 35.125C55.2188 36.375 57.8125 38.25 57.8125 40C57.8125 41.4688 56 43.0313 52.9063 44.1875Z" fill="#61DAFB"/>
<path d="M25.3498 100V91.2727H28.2987C28.9805 91.2727 29.5401 91.3892 29.9776 91.6222C30.4151 91.8523 30.739 92.169 30.9492 92.5724C31.1594 92.9759 31.2646 93.4347 31.2646 93.9489C31.2646 94.4631 31.1594 94.919 30.9492 95.3168C30.739 95.7145 30.4165 96.027 29.9819 96.2543C29.5472 96.4787 28.9918 96.5909 28.3157 96.5909H25.9293V95.6364H28.2816C28.7475 95.6364 29.1225 95.5682 29.4066 95.4318C29.6935 95.2955 29.9009 95.1023 30.0288 94.8523C30.1594 94.5994 30.2248 94.2983 30.2248 93.9489C30.2248 93.5994 30.1594 93.294 30.0288 93.0327C29.8981 92.7713 29.6893 92.5696 29.4023 92.4276C29.1154 92.2827 28.7362 92.2102 28.2646 92.2102H26.4066V100H25.3498ZM29.4577 96.0795L31.6055 100H30.3782L28.2646 96.0795H29.4577ZM35.5632 100.136C34.9325 100.136 34.3885 99.9972 33.9311 99.7188C33.4766 99.4375 33.1257 99.0455 32.8786 98.5426C32.6342 98.0369 32.5121 97.4489 32.5121 96.7784C32.5121 96.108 32.6342 95.517 32.8786 95.0057C33.1257 94.4915 33.4695 94.0909 33.9098 93.804C34.353 93.5142 34.87 93.3693 35.4609 93.3693C35.8018 93.3693 36.1385 93.4261 36.4709 93.5398C36.8033 93.6534 37.1058 93.8381 37.3786 94.0938C37.6513 94.3466 37.8686 94.6818 38.0305 95.0994C38.1925 95.517 38.2734 96.0312 38.2734 96.642V97.0682H33.228V96.1989H37.2507C37.2507 95.8295 37.1768 95.5 37.0291 95.2102C36.8842 94.9205 36.6768 94.6918 36.407 94.5241C36.1399 94.3565 35.8246 94.2727 35.4609 94.2727C35.0604 94.2727 34.7138 94.3722 34.4212 94.571C34.1314 94.767 33.9084 95.0227 33.7521 95.3381C33.5959 95.6534 33.5178 95.9915 33.5178 96.3523V96.9318C33.5178 97.4261 33.603 97.8452 33.7734 98.1889C33.9467 98.5298 34.1868 98.7898 34.4936 98.9688C34.8004 99.1449 35.157 99.233 35.5632 99.233C35.8274 99.233 36.0661 99.196 36.2791 99.1222C36.495 99.0455 36.6811 98.9318 36.8374 98.7812C36.9936 98.6278 37.1143 98.4375 37.1996 98.2102L38.1712 98.483C38.0689 98.8125 37.897 99.1023 37.6555 99.3523C37.4141 99.5994 37.1158 99.7926 36.7607 99.9318C36.4055 100.068 36.0064 100.136 35.5632 100.136ZM41.7294 100.153C41.3146 100.153 40.9382 100.075 40.6001 99.919C40.2621 99.7599 39.9936 99.5312 39.7947 99.233C39.5959 98.9318 39.4964 98.5682 39.4964 98.142C39.4964 97.767 39.5703 97.4631 39.718 97.2301C39.8658 96.9943 40.0632 96.8097 40.3104 96.6761C40.5575 96.5426 40.8303 96.4432 41.1286 96.3778C41.4297 96.3097 41.7322 96.2557 42.0362 96.2159C42.4339 96.1648 42.7564 96.1264 43.0036 96.1009C43.2536 96.0724 43.4354 96.0256 43.549 95.9602C43.6655 95.8949 43.7237 95.7812 43.7237 95.6193V95.5852C43.7237 95.1648 43.6087 94.8381 43.3786 94.6051C43.1513 94.3722 42.8061 94.2557 42.343 94.2557C41.8629 94.2557 41.4865 94.3608 41.2138 94.571C40.9411 94.7812 40.7493 95.0057 40.6385 95.2443L39.6839 94.9034C39.8544 94.5057 40.0817 94.196 40.3658 93.9744C40.6527 93.75 40.9652 93.5937 41.3033 93.5057C41.6442 93.4148 41.9794 93.3693 42.3089 93.3693C42.5192 93.3693 42.7607 93.3949 43.0334 93.446C43.3089 93.4943 43.5746 93.5952 43.8303 93.7486C44.0888 93.902 44.3033 94.1335 44.4737 94.4432C44.6442 94.7528 44.7294 95.1676 44.7294 95.6875V100H43.7237V99.1136H43.6726C43.6044 99.2557 43.4908 99.4077 43.3317 99.5696C43.1726 99.7315 42.9609 99.8693 42.6967 99.983C42.4325 100.097 42.1101 100.153 41.7294 100.153ZM41.8828 99.25C42.2805 99.25 42.6158 99.1719 42.8885 99.0156C43.1641 98.8594 43.3714 98.6577 43.5107 98.4105C43.6527 98.1634 43.7237 97.9034 43.7237 97.6307V96.7102C43.6811 96.7614 43.5874 96.8082 43.4425 96.8509C43.3004 96.8906 43.1357 96.9261 42.9482 96.9574C42.7635 96.9858 42.5831 97.0114 42.407 97.0341C42.2337 97.054 42.093 97.071 41.9851 97.0852C41.7237 97.1193 41.4794 97.1747 41.2521 97.2514C41.0277 97.3253 40.8459 97.4375 40.7067 97.5881C40.5703 97.7358 40.5021 97.9375 40.5021 98.1932C40.5021 98.5426 40.6314 98.8068 40.8899 98.9858C41.1513 99.1619 41.4822 99.25 41.8828 99.25ZM49.2241 100.136C48.6104 100.136 48.082 99.9915 47.6388 99.7017C47.1957 99.4119 46.8548 99.0128 46.6161 98.5043C46.3775 97.9957 46.2582 97.4148 46.2582 96.7614C46.2582 96.0966 46.3803 95.5099 46.6246 95.0014C46.8718 94.4901 47.2156 94.0909 47.6559 93.804C48.0991 93.5142 48.6161 93.3693 49.207 93.3693C49.6673 93.3693 50.082 93.4545 50.4513 93.625C50.8207 93.7955 51.1232 94.0341 51.359 94.3409C51.5948 94.6477 51.7411 95.0057 51.7979 95.4148H50.7923C50.7156 95.1165 50.5451 94.8523 50.2809 94.6222C50.0195 94.3892 49.6673 94.2727 49.2241 94.2727C48.832 94.2727 48.4883 94.375 48.1928 94.5795C47.9002 94.7812 47.6715 95.0668 47.5067 95.4361C47.3448 95.8026 47.2638 96.233 47.2638 96.7273C47.2638 97.233 47.3434 97.6733 47.5025 98.0483C47.6644 98.4233 47.8917 98.7145 48.1843 98.9219C48.4798 99.1293 48.8263 99.233 49.2241 99.233C49.4854 99.233 49.7227 99.1875 49.9357 99.0966C50.1488 99.0057 50.3292 98.875 50.4769 98.7045C50.6246 98.5341 50.7298 98.3295 50.7923 98.0909H51.7979C51.7411 98.4773 51.6005 98.8253 51.3761 99.1349C51.1545 99.4418 50.8604 99.6861 50.494 99.8679C50.1303 100.047 49.707 100.136 49.2241 100.136ZM56.1147 93.4545V94.3068H52.7227V93.4545H56.1147ZM53.7113 91.8864H54.717V98.125C54.717 98.4091 54.7582 98.6222 54.8406 98.7642C54.9258 98.9034 55.0337 98.9972 55.1644 99.0455C55.2979 99.0909 55.4386 99.1136 55.5863 99.1136C55.6971 99.1136 55.788 99.108 55.859 99.0966C55.93 99.0824 55.9869 99.071 56.0295 99.0625L56.234 99.9659C56.1658 99.9915 56.0707 100.017 55.9485 100.043C55.8263 100.071 55.6715 100.085 55.484 100.085C55.1999 100.085 54.9215 100.024 54.6488 99.902C54.3789 99.7798 54.1545 99.5938 53.9755 99.3438C53.7994 99.0938 53.7113 98.7784 53.7113 98.3977V91.8864Z" fill="white"/>
</svg>
