<svg width="80" height="103" viewBox="0 0 80 103" fill="none" xmlns="http://www.w3.org/2000/svg">
<rect width="80" height="80" rx="8" fill="#F3F3F3"/>
<path fill-rule="evenodd" clip-rule="evenodd" d="M20.381 37.5487C20.381 37.7684 20.4456 37.9134 20.4819 38.0544C20.7181 38.9709 21.226 39.7575 21.8285 40.475C22.6866 41.4975 23.7375 42.3206 24.8141 43.0947C25.7478 43.7659 26.7006 44.4222 27.6381 45.0884C27.7991 45.2028 27.9513 45.3344 28.126 45.4747C27.9756 45.5559 27.8506 45.6275 27.7206 45.6934C26.4835 46.3209 25.2931 47.0244 24.196 47.8766C23.5347 48.3903 22.8953 48.9362 22.4438 49.6497C21.7172 50.7972 21.46 52.0197 22.0016 53.325C22.1597 53.7062 22.401 54.0356 22.7413 54.2791C22.8516 54.3578 22.9753 54.4359 23.1044 54.4666C23.435 54.5444 23.7719 54.5953 24.1066 54.6569L25.0544 54.6563C26.1025 54.5628 27.0566 54.2037 27.9188 53.6087C29.2663 52.6787 30.1741 51.4319 30.5644 49.8316C30.8481 48.6684 30.8597 47.5041 30.5253 46.3462C30.4933 46.239 30.4564 46.1332 30.4147 46.0294C30.3741 45.9253 30.3263 45.8241 30.27 45.6944L32.4188 44.4587L32.4509 44.4863C32.4119 44.6141 32.3703 44.7416 32.335 44.8706C32.0797 45.8031 31.91 46.7519 31.971 47.7197C32.036 48.7509 32.3238 49.7162 32.9275 50.5778C33.4156 51.2747 34.5788 51.3006 35.0975 50.6013C35.2816 50.3528 35.46 50.0931 35.5941 49.8159C35.9444 49.0925 36.2688 48.3563 36.6035 47.625L36.6619 47.4913C36.6378 47.8375 36.6097 48.1416 36.5969 48.4459C36.5769 48.9213 36.6047 49.3938 36.7672 49.8459C36.9063 50.2328 37.1428 50.5219 37.586 50.5728C37.8891 50.6075 38.1306 50.4687 38.3535 50.2928C38.6986 50.02 38.9847 49.6799 39.1944 49.2931C39.7885 48.2022 40.3985 47.1178 40.9369 45.9994C41.5194 44.7897 42.0288 43.5447 42.5697 42.3144L42.6591 42.0963C42.7869 42.5984 42.8759 43.0903 43.04 43.5559C43.2306 44.0962 43.4666 44.6237 43.7235 45.1366C43.845 45.3787 43.831 45.5359 43.6625 45.7391C42.9575 46.5891 42.2647 47.4494 41.5713 48.3087C41.4178 48.4984 41.265 48.6916 41.1372 48.8987C41.0597 49.0296 41.0087 49.1744 40.9872 49.325C40.9657 49.4636 40.9987 49.6052 41.0793 49.72C41.1598 49.8348 41.2817 49.914 41.4194 49.9409C41.6972 50.0008 41.9821 50.0211 42.2656 50.0012C43.2335 49.93 44.1122 49.5903 44.8891 49.0147C45.8956 48.2691 46.2188 47.2516 45.975 46.0456C45.9091 45.7184 45.7925 45.4003 45.6791 45.085C45.6281 44.9428 45.6247 44.8431 45.7175 44.7106C46.5222 43.5616 47.2097 42.3425 47.8491 41.0953C47.8744 41.0462 47.9003 40.9972 47.9447 40.9447C48.1519 42.0228 48.4638 43.0619 49.0225 44.0047C48.7375 44.2794 48.4553 44.5284 48.2 44.8028C47.6378 45.4072 47.1503 46.0634 46.896 46.8637C46.7866 47.2087 46.7025 47.5594 46.7513 47.9278C46.8269 48.5 47.2956 48.8719 47.8585 48.7416C49.0628 48.4628 50.1025 47.8953 50.8622 46.89C51.3735 46.2131 51.42 45.4581 51.206 44.6672C51.1472 44.4522 51.0775 44.2406 51.0025 43.9941C51.2997 43.9019 51.5894 43.7913 51.8891 43.7228C53.445 43.3678 54.9841 43.4297 56.4835 43.9916C57.3588 44.3197 58.066 44.8688 58.4853 45.7325C58.9975 46.7884 58.7144 47.7903 57.7191 48.4578C57.6263 48.52 57.52 48.5691 57.4431 48.6469C57.4185 48.6754 57.4001 48.7088 57.3891 48.7448C57.378 48.7809 57.3746 48.8188 57.3791 48.8562C57.3856 48.8947 57.4872 48.9428 57.5456 48.9422C57.8728 48.9397 58.1381 48.7681 58.3928 48.5919C59.031 48.1503 59.4966 47.5563 59.5969 46.7741L59.6166 46.7153L59.5925 46.2059C59.5828 46.1766 59.5997 46.1475 59.5975 46.1253C59.4619 44.9862 58.8535 44.1028 57.9685 43.4103C56.9435 42.6088 55.7331 42.2787 54.4531 42.2266C53.415 42.1819 52.3782 42.3415 51.4016 42.6962C51.1213 42.7978 50.8434 42.9181 50.5616 43.0316C50.5238 42.9631 50.4831 42.8975 50.4497 42.8297C50.1603 42.2372 49.8097 41.6709 49.7322 40.9916C49.6772 40.5091 49.6097 40.0272 49.7244 39.55C49.8347 39.0909 49.9784 38.6397 50.1138 38.1869C50.1834 37.9538 50.1344 37.8231 49.9119 37.7181C49.8344 37.6795 49.7516 37.6523 49.6663 37.6375C49.1194 37.5581 48.58 37.6034 48.0503 37.7575C47.8628 37.8122 47.7266 37.9172 47.685 38.1247C47.6613 38.2438 47.6128 38.3578 47.5791 38.4753C47.4406 38.9637 47.3425 39.4616 47.1188 39.9269C46.5581 41.0941 45.9181 42.2172 45.2631 43.3322C45.1922 43.4525 45.1175 43.5706 45.0281 43.7166C44.7981 43.2353 44.5528 42.8034 44.4785 42.2972C44.3944 41.7247 44.3281 41.1531 44.4706 40.585C44.5766 40.1613 44.715 39.7453 44.8425 39.3272C44.9028 39.1284 44.875 39.0241 44.695 38.9194C44.6041 38.8666 44.5013 38.8197 44.3988 38.8044C43.838 38.719 43.2651 38.7658 42.7256 38.9412C42.556 38.9962 42.4669 39.1059 42.415 39.2809C42.2625 39.7972 42.1325 40.3259 41.9185 40.8169C41.0516 42.8044 40.1597 44.7816 39.2688 46.7584C39.0828 47.1712 38.865 47.5697 38.6553 47.9716C38.6022 48.0734 38.5247 48.1631 38.4585 48.2588C38.4053 48.1959 38.3847 48.1528 38.385 48.1097C38.3866 47.8556 38.3563 47.5941 38.4047 47.3484C38.5534 46.6056 38.7179 45.8659 38.8978 45.13C39.0447 44.5219 39.2156 43.9194 39.3785 43.3153C39.4331 43.1131 39.4341 42.9241 39.2888 42.7541C39.0447 42.4694 38.5347 42.4069 38.2322 42.6262L38.0985 42.7019L38.1244 42.4863C38.1881 42.0241 38.201 41.5634 38.0741 41.1081C37.916 40.5406 37.511 40.2141 36.9222 40.2322C36.6478 40.2406 36.3597 40.2875 36.1056 40.3875C35.0372 40.8062 34.2156 41.5478 33.5163 42.44C33.4514 42.5228 33.3711 42.5923 33.2797 42.6444C32.3756 43.1456 31.4688 43.6406 30.5622 44.1375L29.5531 44.6903C29.2825 44.4322 29.0366 44.1644 28.7575 43.9372C27.9053 43.2422 27.0394 42.5644 26.1813 41.8772C25.4206 41.2681 24.6838 40.6337 24.12 39.8272C23.7006 39.2272 23.4303 38.5706 23.4044 37.8287C23.3716 36.8834 23.6397 36.0197 24.121 35.2156C24.7366 34.1869 25.5763 33.3612 26.4994 32.6134C27.476 31.8228 28.5322 31.1516 29.6269 30.5387C31.1585 29.6816 32.7338 28.9228 34.4228 28.4219C36.1547 27.9081 37.9119 27.6141 39.7244 27.8191C40.4369 27.8997 41.1288 28.0628 41.7641 28.4113C42.2506 28.6778 42.6497 29.0269 42.8353 29.5725C43.0184 30.1094 43.0128 30.6534 42.886 31.1987C42.6281 32.3031 42.0235 33.2134 41.2625 34.0269C40.0144 35.3603 38.4919 36.2681 36.7778 36.8678C35.7923 37.2131 34.7669 37.4318 33.7263 37.5188C32.8735 37.5903 32.0385 37.5147 31.231 37.2181C30.6963 37.0216 30.2306 36.7209 29.8563 36.2847C29.7894 36.2066 29.7038 36.1219 29.5791 36.195C29.4569 36.2669 29.4353 36.3831 29.4763 36.5009C29.5447 36.6966 29.6078 36.9003 29.7144 37.0753C29.9822 37.5144 30.3728 37.8328 30.8028 38.1059C31.6288 38.6312 32.5519 38.8078 33.5091 38.8488C34.9616 38.9116 36.3788 38.6947 37.776 38.305C39.7706 37.7488 41.505 36.7663 42.8959 35.2163C44.0541 33.9256 44.8813 32.4691 45.0584 30.7103C45.145 29.8519 45.0528 29.0109 44.651 28.2278C44.215 27.3794 43.5219 26.7484 42.6931 26.3138C41.4863 25.6809 40.1838 25.3125 38.8394 25.3125H37.4925C35.8644 25.3125 34.2903 25.7791 32.7603 26.3356C31.6022 26.7572 30.4666 27.2547 29.3641 27.8053C26.9631 29.005 24.7272 30.4516 22.8906 32.4406C21.9756 33.4316 21.201 34.525 20.7553 35.8125C20.6208 36.1969 20.505 36.5876 20.4081 36.9831M29.1078 48.2372C29.0038 49.6306 28.3722 50.7603 27.34 51.6753C26.7594 52.1897 26.0935 52.5559 25.3178 52.6847C25.0366 52.7313 24.7488 52.7425 24.476 52.6259C24.0869 52.4597 23.9997 52.1144 23.9922 51.7466C23.9806 51.1603 24.186 50.6303 24.4675 50.1259C24.835 49.4684 25.3738 48.9672 25.9491 48.4991C26.8553 47.7612 27.8385 47.1369 28.8453 46.5475L28.9213 46.5162C29.0769 47.0912 29.151 47.6591 29.1078 48.2372ZM36.9697 42.1813C36.8963 42.6263 36.8044 43.0716 36.6744 43.5028C36.225 44.9956 35.6478 46.4422 35.0238 47.8694C34.9085 48.1334 34.7406 48.3744 34.5947 48.6247C34.5699 48.6632 34.5401 48.6983 34.5063 48.7291C34.3256 48.9075 34.1544 48.8981 34.0631 48.6647C33.9569 48.3934 33.8916 48.1031 33.8353 47.8159C33.7975 47.6231 33.8066 47.4206 33.7947 47.2231C33.8069 45.8187 34.2353 44.5425 34.9622 43.3544C35.2619 42.8644 35.5881 42.3975 36.0866 42.0875C36.2416 41.9911 36.4094 41.9168 36.585 41.8669C36.8506 41.7922 37.0138 41.915 36.9697 42.1813ZM42.3335 49.015L44.2613 46.7641C44.3416 47.6 42.9206 49.2687 42.3335 49.015ZM48.4906 47.5003C48.3544 47.5784 48.2059 47.6347 48.0663 47.7069C47.9384 47.7731 47.8963 47.7062 47.8925 47.5962C47.8906 47.5201 47.9004 47.4441 47.9216 47.3709C48.1819 46.4528 48.661 45.6691 49.3738 45.0316L49.4238 45.0059C49.7628 45.9544 49.3709 46.9959 48.4906 47.5003Z" fill="#CB6699"/>
<path d="M32.853 93.4545C32.8018 93.0227 32.5945 92.6875 32.2308 92.4489C31.8672 92.2102 31.4212 92.0909 30.8928 92.0909C30.5064 92.0909 30.1683 92.1534 29.8786 92.2784C29.5916 92.4034 29.3672 92.5753 29.2053 92.794C29.0462 93.0128 28.9666 93.2614 28.9666 93.5398C28.9666 93.7727 29.022 93.973 29.1328 94.1406C29.2464 94.3054 29.3913 94.4432 29.5675 94.554C29.7436 94.6619 29.9283 94.7514 30.1214 94.8224C30.3146 94.8906 30.4922 94.946 30.6541 94.9886L31.5405 95.2273C31.7678 95.2869 32.0206 95.3693 32.299 95.4744C32.5803 95.5795 32.8487 95.723 33.1044 95.9048C33.3629 96.0838 33.576 96.3139 33.7436 96.5952C33.9112 96.8764 33.995 97.2216 33.995 97.6307C33.995 98.1023 33.8714 98.5284 33.6243 98.9091C33.38 99.2898 33.022 99.5923 32.5504 99.8168C32.0817 100.041 31.5121 100.153 30.8416 100.153C30.2166 100.153 29.6754 100.053 29.218 99.8509C28.7635 99.6491 28.4055 99.3679 28.1442 99.0071C27.8857 98.6463 27.7393 98.2273 27.7053 97.75H28.7962C28.8246 98.0795 28.9354 98.3523 29.1286 98.5682C29.3246 98.7812 29.5717 98.9403 29.87 99.0455C30.1712 99.1477 30.495 99.1989 30.8416 99.1989C31.245 99.1989 31.6072 99.1335 31.9283 99.0028C32.2493 98.8693 32.5036 98.6847 32.6911 98.4489C32.8786 98.2102 32.9723 97.9318 32.9723 97.6136C32.9723 97.3239 32.8913 97.0881 32.7294 96.9062C32.5675 96.7244 32.3544 96.5767 32.0902 96.4631C31.826 96.3494 31.5405 96.25 31.2337 96.1648L30.1598 95.858C29.478 95.6619 28.9382 95.3821 28.5405 95.0185C28.1428 94.6548 27.9439 94.179 27.9439 93.5909C27.9439 93.1023 28.076 92.6761 28.3402 92.3125C28.6072 91.946 28.9652 91.6619 29.4141 91.4602C29.8658 91.2557 30.37 91.1534 30.9268 91.1534C31.4893 91.1534 31.9893 91.2543 32.4268 91.456C32.8643 91.6548 33.2109 91.9276 33.4666 92.2741C33.7251 92.6207 33.8615 93.0142 33.8757 93.4545H32.853ZM37.5224 100.153C37.1076 100.153 36.7312 100.075 36.3931 99.919C36.055 99.7599 35.7866 99.5312 35.5877 99.233C35.3888 98.9318 35.2894 98.5682 35.2894 98.142C35.2894 97.767 35.3633 97.4631 35.511 97.2301C35.6587 96.9943 35.8562 96.8097 36.1033 96.6761C36.3505 96.5426 36.6232 96.4432 36.9215 96.3778C37.2227 96.3097 37.5252 96.2557 37.8292 96.2159C38.2269 96.1648 38.5494 96.1264 38.7965 96.1009C39.0465 96.0724 39.2283 96.0256 39.342 95.9602C39.4585 95.8949 39.5167 95.7812 39.5167 95.6193V95.5852C39.5167 95.1648 39.4016 94.8381 39.1715 94.6051C38.9442 94.3722 38.5991 94.2557 38.136 94.2557C37.6559 94.2557 37.2795 94.3608 37.0067 94.571C36.734 94.7812 36.5423 95.0057 36.4315 95.2443L35.4769 94.9034C35.6474 94.5057 35.8746 94.196 36.1587 93.9744C36.4457 93.75 36.7582 93.5937 37.0962 93.5057C37.4371 93.4148 37.7724 93.3693 38.1019 93.3693C38.3121 93.3693 38.5536 93.3949 38.8263 93.446C39.1019 93.4943 39.3675 93.5952 39.6232 93.7486C39.8817 93.902 40.0962 94.1335 40.2667 94.4432C40.4371 94.7528 40.5224 95.1676 40.5224 95.6875V100H39.5167V99.1136H39.4656C39.3974 99.2557 39.2837 99.4077 39.1246 99.5696C38.9656 99.7315 38.7539 99.8693 38.4897 99.983C38.2255 100.097 37.9031 100.153 37.5224 100.153ZM37.6758 99.25C38.0735 99.25 38.4087 99.1719 38.6815 99.0156C38.957 98.8594 39.1644 98.6577 39.3036 98.4105C39.4457 98.1634 39.5167 97.9034 39.5167 97.6307V96.7102C39.4741 96.7614 39.3803 96.8082 39.2354 96.8509C39.0934 96.8906 38.9286 96.9261 38.7411 96.9574C38.5565 96.9858 38.3761 97.0114 38.1999 97.0341C38.0266 97.054 37.886 97.071 37.7781 97.0852C37.5167 97.1193 37.2724 97.1747 37.0451 97.2514C36.8207 97.3253 36.6388 97.4375 36.4996 97.5881C36.3633 97.7358 36.2951 97.9375 36.2951 98.1932C36.2951 98.5426 36.4244 98.8068 36.6829 98.9858C36.9442 99.1619 37.2752 99.25 37.6758 99.25ZM46.9943 94.9205L46.0909 95.1761C46.0341 95.0256 45.9503 94.8793 45.8395 94.7372C45.7315 94.5923 45.5838 94.473 45.3963 94.3793C45.2088 94.2855 44.9688 94.2386 44.6761 94.2386C44.2756 94.2386 43.9418 94.331 43.6747 94.5156C43.4105 94.6974 43.2784 94.929 43.2784 95.2102C43.2784 95.4602 43.3693 95.6577 43.5511 95.8026C43.733 95.9474 44.017 96.0682 44.4034 96.1648L45.375 96.4034C45.9602 96.5455 46.3963 96.7628 46.6832 97.0554C46.9702 97.3452 47.1136 97.7187 47.1136 98.1761C47.1136 98.5511 47.0057 98.8864 46.7898 99.1818C46.5767 99.4773 46.2784 99.7102 45.8949 99.8807C45.5114 100.051 45.0653 100.136 44.5568 100.136C43.8892 100.136 43.3366 99.9915 42.8991 99.7017C42.4616 99.4119 42.1847 98.9886 42.0682 98.4318L43.0227 98.1932C43.1136 98.5455 43.2855 98.8097 43.5384 98.9858C43.794 99.1619 44.1278 99.25 44.5398 99.25C45.0085 99.25 45.3807 99.1506 45.6562 98.9517C45.9347 98.75 46.0739 98.5085 46.0739 98.2273C46.0739 98 45.9943 97.8097 45.8352 97.6562C45.6761 97.5 45.4318 97.3835 45.1023 97.3068L44.0114 97.0511C43.4119 96.9091 42.9716 96.6889 42.6903 96.3906C42.4119 96.0895 42.2727 95.7131 42.2727 95.2614C42.2727 94.892 42.3764 94.5653 42.5838 94.2812C42.794 93.9972 43.0795 93.7741 43.4403 93.6122C43.804 93.4503 44.2159 93.3693 44.6761 93.3693C45.3239 93.3693 45.8324 93.5114 46.2017 93.7955C46.5739 94.0795 46.8381 94.4545 46.9943 94.9205ZM53.2638 94.9205L52.3604 95.1761C52.3036 95.0256 52.2198 94.8793 52.109 94.7372C52.0011 94.5923 51.8533 94.473 51.6658 94.3793C51.4783 94.2855 51.2383 94.2386 50.9457 94.2386C50.5451 94.2386 50.2113 94.331 49.9442 94.5156C49.68 94.6974 49.5479 94.929 49.5479 95.2102C49.5479 95.4602 49.6388 95.6577 49.8207 95.8026C50.0025 95.9474 50.2866 96.0682 50.6729 96.1648L51.6445 96.4034C52.2298 96.5455 52.6658 96.7628 52.9528 97.0554C53.2397 97.3452 53.3832 97.7187 53.3832 98.1761C53.3832 98.5511 53.2752 98.8864 53.0593 99.1818C52.8462 99.4773 52.5479 99.7102 52.1644 99.8807C51.7809 100.051 51.3349 100.136 50.8263 100.136C50.1587 100.136 49.6062 99.9915 49.1687 99.7017C48.7312 99.4119 48.4542 98.9886 48.3377 98.4318L49.2923 98.1932C49.3832 98.5455 49.555 98.8097 49.8079 98.9858C50.0636 99.1619 50.3974 99.25 50.8093 99.25C51.2781 99.25 51.6502 99.1506 51.9258 98.9517C52.2042 98.75 52.3434 98.5085 52.3434 98.2273C52.3434 98 52.2638 97.8097 52.1048 97.6562C51.9457 97.5 51.7013 97.3835 51.3718 97.3068L50.2809 97.0511C49.6815 96.9091 49.2411 96.6889 48.9599 96.3906C48.6815 96.0895 48.5423 95.7131 48.5423 95.2614C48.5423 94.892 48.646 94.5653 48.8533 94.2812C49.0636 93.9972 49.3491 93.7741 49.7099 93.6122C50.0735 93.4503 50.4854 93.3693 50.9457 93.3693C51.5934 93.3693 52.1019 93.5114 52.4712 93.7955C52.8434 94.0795 53.1076 94.4545 53.2638 94.9205Z" fill="#0D1117"/>
</svg>
