<svg width="80" height="103" viewBox="0 0 80 103" fill="none" xmlns="http://www.w3.org/2000/svg">
<rect width="80" height="80" rx="8" fill="#F3F3F3"/>
<path d="M56.6667 55.1867L54.5571 52.52H42.4273V49.6533H52.2989L50.2029 46.9867H42.4273V44.12H52.7181L50.7708 41.4533H42.4273V38.5867H48.6883L46.7411 35.92H42.4273V33.0533H48.3502L46.4436 30.3867H42.4273V27.52H44.3881L42.4814 24.8533H42.4273V20L33.5294 32.2267L38.5328 32.24L28.4314 46.12H33.6376L23.3333 60H42.4273V55.1867H56.6667Z" fill="#54FFB9"/>
<path d="M20.6401 92.2102V91.2727H27.1855V92.2102H24.4412V100H23.3844V92.2102H20.6401ZM28.6802 100V93.4545H29.6859V100H28.6802ZM29.1916 92.3636C28.9956 92.3636 28.8265 92.2969 28.6845 92.1634C28.5453 92.0298 28.4757 91.8693 28.4757 91.6818C28.4757 91.4943 28.5453 91.3338 28.6845 91.2003C28.8265 91.0668 28.9956 91 29.1916 91C29.3876 91 29.5552 91.0668 29.6944 91.2003C29.8365 91.3338 29.9075 91.4943 29.9075 91.6818C29.9075 91.8693 29.8365 92.0298 29.6944 92.1634C29.5552 92.2969 29.3876 92.3636 29.1916 92.3636ZM31.5279 100V93.4545H32.4995V94.4773H32.5847C32.7211 94.1278 32.9412 93.8565 33.2452 93.6634C33.5492 93.4673 33.9142 93.3693 34.3404 93.3693C34.7722 93.3693 35.1316 93.4673 35.4185 93.6634C35.7083 93.8565 35.9341 94.1278 36.0961 94.4773H36.1642C36.3319 94.1392 36.5833 93.8707 36.9185 93.6719C37.2537 93.4702 37.6557 93.3693 38.1245 93.3693C38.7097 93.3693 39.1884 93.5526 39.5605 93.919C39.9327 94.2827 40.1188 94.8494 40.1188 95.6193V100H39.1131V95.6193C39.1131 95.1364 38.981 94.7912 38.7168 94.5838C38.4526 94.3764 38.1415 94.2727 37.7836 94.2727C37.3233 94.2727 36.9668 94.4119 36.714 94.6903C36.4611 94.9659 36.3347 95.3153 36.3347 95.7386V100H35.312V95.517C35.312 95.1449 35.1912 94.8452 34.9498 94.6179C34.7083 94.3878 34.3972 94.2727 34.0165 94.2727C33.7551 94.2727 33.5108 94.3423 33.2836 94.4815C33.0591 94.6207 32.8773 94.8139 32.7381 95.0611C32.6017 95.3054 32.5336 95.5881 32.5336 95.9091V100H31.5279ZM42.0939 100V91.2727H43.0996V94.4943H43.1848C43.2587 94.3807 43.361 94.2358 43.4917 94.0597C43.6252 93.8807 43.8155 93.7216 44.0627 93.5824C44.3127 93.4403 44.6507 93.3693 45.0769 93.3693C45.628 93.3693 46.1138 93.5071 46.5343 93.7827C46.9547 94.0582 47.2828 94.4489 47.5186 94.9545C47.7544 95.4602 47.8723 96.0568 47.8723 96.7443C47.8723 97.4375 47.7544 98.0384 47.5186 98.5469C47.2828 99.0526 46.9561 99.4446 46.5385 99.723C46.1209 99.9986 45.6394 100.136 45.0939 100.136C44.6735 100.136 44.3368 100.067 44.084 99.9276C43.8311 99.7855 43.6365 99.625 43.5002 99.446C43.3638 99.2642 43.2587 99.1136 43.1848 98.9943H43.0655V100H42.0939ZM43.0826 96.7273C43.0826 97.2216 43.155 97.6577 43.2999 98.0355C43.4448 98.4105 43.6564 98.7045 43.9348 98.9176C44.2132 99.1278 44.5542 99.233 44.9576 99.233C45.378 99.233 45.7289 99.1222 46.0101 98.9006C46.2942 98.6761 46.5073 98.375 46.6493 97.9972C46.7942 97.6165 46.8667 97.1932 46.8667 96.7273C46.8667 96.267 46.7956 95.8523 46.6536 95.483C46.5144 95.1108 46.3027 94.8168 46.0186 94.6009C45.7374 94.3821 45.3837 94.2727 44.9576 94.2727C44.5485 94.2727 44.2047 94.3764 43.9263 94.5838C43.6479 94.7884 43.4377 95.0753 43.2956 95.4446C43.1536 95.8111 43.0826 96.2386 43.0826 96.7273ZM52.155 100.136C51.5243 100.136 50.9803 99.9972 50.5229 99.7188C50.0684 99.4375 49.7175 99.0455 49.4703 98.5426C49.226 98.0369 49.1039 97.4489 49.1039 96.7784C49.1039 96.108 49.226 95.517 49.4703 95.0057C49.7175 94.4915 50.0613 94.0909 50.5016 93.804C50.9448 93.5142 51.4618 93.3693 52.0527 93.3693C52.3936 93.3693 52.7303 93.4261 53.0627 93.5398C53.3951 93.6534 53.6976 93.8381 53.9703 94.0938C54.2431 94.3466 54.4604 94.6818 54.6223 95.0994C54.7843 95.517 54.8652 96.0312 54.8652 96.642V97.0682H49.8198V96.1989H53.8425C53.8425 95.8295 53.7686 95.5 53.6209 95.2102C53.476 94.9205 53.2686 94.6918 52.9988 94.5241C52.7317 94.3565 52.4164 94.2727 52.0527 94.2727C51.6522 94.2727 51.3056 94.3722 51.013 94.571C50.7232 94.767 50.5002 95.0227 50.3439 95.3381C50.1877 95.6534 50.1096 95.9915 50.1096 96.3523V96.9318C50.1096 97.4261 50.1948 97.8452 50.3652 98.1889C50.5385 98.5298 50.7786 98.7898 51.0854 98.9688C51.3922 99.1449 51.7488 99.233 52.155 99.233C52.4192 99.233 52.6578 99.196 52.8709 99.1222C53.0868 99.0455 53.2729 98.9318 53.4292 98.7812C53.5854 98.6278 53.7061 98.4375 53.7914 98.2102L54.763 98.483C54.6607 98.8125 54.4888 99.1023 54.2473 99.3523C54.0059 99.5994 53.7076 99.7926 53.3525 99.9318C52.9973 100.068 52.5982 100.136 52.155 100.136ZM56.3951 100V93.4545H57.3667V94.4432H57.4348C57.5542 94.1193 57.7701 93.8565 58.0826 93.6548C58.3951 93.4531 58.7473 93.3523 59.1394 93.3523C59.2132 93.3523 59.3056 93.3537 59.4164 93.3565C59.5272 93.3594 59.611 93.3636 59.6678 93.3693V94.392C59.6337 94.3835 59.5556 94.3707 59.4334 94.3537C59.3141 94.3338 59.1877 94.3239 59.0542 94.3239C58.736 94.3239 58.4519 94.3906 58.2019 94.5241C57.9547 94.6548 57.7587 94.8366 57.6138 95.0696C57.4718 95.2997 57.4007 95.5625 57.4007 95.858V100H56.3951Z" fill="#0D1117"/>
</svg>
