<svg width="80" height="103" viewBox="0 0 80 103" fill="none" xmlns="http://www.w3.org/2000/svg">
<rect width="80" height="80" rx="8" fill="#F3F3F3"/>
<g clip-path="url(#clip0_370_289)">
<path d="M20.625 39.9719V59.5031H59.6875V20.4406H20.625V39.9719ZM52.1031 38.4094C53.0387 38.6265 53.8891 39.1158 54.5469 39.8156C54.909 40.1926 55.2238 40.6124 55.4844 41.0656C55.4844 41.1156 53.7969 42.2562 52.7688 42.8937C52.7313 42.9187 52.5813 42.7562 52.4156 42.5094C52.2279 42.1855 51.9613 41.9145 51.6405 41.7216C51.3197 41.5287 50.9553 41.4202 50.5813 41.4062C49.3969 41.325 48.6344 41.9469 48.6406 42.9687C48.6308 43.2232 48.6891 43.4756 48.8094 43.7C49.0688 44.2406 49.5531 44.5625 51.0719 45.2187C53.8688 46.4219 55.0656 47.2156 55.8094 48.3437C56.6406 49.5937 56.825 51.6125 56.2625 53.1062C55.6375 54.7312 54.1062 55.8344 51.9406 56.2C50.9515 56.3133 49.9521 56.3028 48.9656 56.1687C47.4601 55.9245 46.0712 55.2076 45 54.1219C44.6406 53.725 43.9406 52.6906 43.9844 52.6156C44.0985 52.5309 44.2186 52.4547 44.3438 52.3875L45.7812 51.5625L46.9031 50.9125L47.1375 51.2594C47.533 51.8252 48.0364 52.3073 48.6188 52.6781C49.8688 53.3344 51.575 53.2437 52.4187 52.4844C52.702 52.2061 52.8788 51.8373 52.9182 51.4422C52.9576 51.047 52.8571 50.6506 52.6344 50.3219C52.3219 49.8875 51.6969 49.5219 49.95 48.7594C47.9344 47.8906 47.0656 47.3531 46.2719 46.4969C45.7764 45.9318 45.4105 45.2652 45.2 44.5437C45.043 43.7195 45.0198 42.8754 45.1312 42.0437C45.5469 40.0969 47.0062 38.7375 49.1375 38.3344C50.1245 38.2122 51.1243 38.2396 52.1031 38.4156V38.4094ZM42.9344 40.0469V41.6469H37.8625V56.0937H34.2656V41.6437H29.1812V40.0812C29.1676 39.5433 29.1822 39.0051 29.225 38.4687C29.2438 38.4437 32.35 38.4312 36.1 38.4375H42.9156L42.9344 40.0469Z" fill="#007ACC"/>
</g>
<path d="M9.94673 92.2102V91.2727H16.4922V92.2102H13.7479V100H12.6911V92.2102H9.94673ZM17.8846 102.455C17.7141 102.455 17.5621 102.44 17.4286 102.412C17.2951 102.386 17.2028 102.361 17.1516 102.335L17.4073 101.449C17.6516 101.511 17.8675 101.534 18.055 101.517C18.2425 101.5 18.4087 101.416 18.5536 101.266C18.7013 101.118 18.8363 100.878 18.9585 100.545L19.146 100.034L16.7255 93.4545H17.8164L19.6232 98.6705H19.6914L21.4982 93.4545H22.5891L19.8107 100.955C19.6857 101.293 19.5309 101.572 19.3462 101.794C19.1616 102.018 18.9471 102.185 18.7028 102.293C18.4613 102.401 18.1886 102.455 17.8846 102.455ZM23.9165 102.455V93.4545H24.8881V94.4943H25.0075C25.0813 94.3807 25.1836 94.2358 25.3143 94.0597C25.4478 93.8807 25.6381 93.7216 25.8853 93.5824C26.1353 93.4403 26.4734 93.3693 26.8995 93.3693C27.4506 93.3693 27.9364 93.5071 28.3569 93.7827C28.7773 94.0582 29.1055 94.4489 29.3413 94.9545C29.5771 95.4602 29.695 96.0568 29.695 96.7443C29.695 97.4375 29.5771 98.0384 29.3413 98.5469C29.1055 99.0526 28.7788 99.4446 28.3612 99.723C27.9435 99.9986 27.462 100.136 26.9165 100.136C26.4961 100.136 26.1594 100.067 25.9066 99.9276C25.6538 99.7855 25.4592 99.625 25.3228 99.446C25.1864 99.2642 25.0813 99.1136 25.0075 98.9943H24.9222V102.455H23.9165ZM24.9052 96.7273C24.9052 97.2216 24.9776 97.6577 25.1225 98.0355C25.2674 98.4105 25.479 98.7045 25.7575 98.9176C26.0359 99.1278 26.3768 99.233 26.7802 99.233C27.2006 99.233 27.5515 99.1222 27.8327 98.9006C28.1168 98.6761 28.3299 98.375 28.4719 97.9972C28.6168 97.6165 28.6893 97.1932 28.6893 96.7273C28.6893 96.267 28.6183 95.8523 28.4762 95.483C28.337 95.1108 28.1254 94.8168 27.8413 94.6009C27.56 94.3821 27.2063 94.2727 26.7802 94.2727C26.3711 94.2727 26.0273 94.3764 25.7489 94.5838C25.4705 94.7884 25.2603 95.0753 25.1183 95.4446C24.9762 95.8111 24.9052 96.2386 24.9052 96.7273ZM33.9734 100.136C33.3427 100.136 32.7987 99.9972 32.3413 99.7188C31.8867 99.4375 31.5359 99.0455 31.2887 98.5426C31.0444 98.0369 30.9222 97.4489 30.9222 96.7784C30.9222 96.108 31.0444 95.517 31.2887 95.0057C31.5359 94.4915 31.8796 94.0909 32.32 93.804C32.7631 93.5142 33.2802 93.3693 33.8711 93.3693C34.212 93.3693 34.5487 93.4261 34.881 93.5398C35.2134 93.6534 35.516 93.8381 35.7887 94.0938C36.0614 94.3466 36.2788 94.6818 36.4407 95.0994C36.6026 95.517 36.6836 96.0312 36.6836 96.642V97.0682H31.6381V96.1989H35.6609C35.6609 95.8295 35.587 95.5 35.4393 95.2102C35.2944 94.9205 35.087 94.6918 34.8171 94.5241C34.5501 94.3565 34.2347 94.2727 33.8711 94.2727C33.4705 94.2727 33.1239 94.3722 32.8313 94.571C32.5415 94.767 32.3185 95.0227 32.1623 95.3381C32.006 95.6534 31.9279 95.9915 31.9279 96.3523V96.9318C31.9279 97.4261 32.0131 97.8452 32.1836 98.1889C32.3569 98.5298 32.5969 98.7898 32.9038 98.9688C33.2106 99.1449 33.5671 99.233 33.9734 99.233C34.2376 99.233 34.4762 99.196 34.6893 99.1222C34.9052 99.0455 35.0913 98.9318 35.2475 98.7812C35.4038 98.6278 35.5245 98.4375 35.6097 98.2102L36.5813 98.483C36.479 98.8125 36.3072 99.1023 36.0657 99.3523C35.8242 99.5994 35.5259 99.7926 35.1708 99.9318C34.8157 100.068 34.4165 100.136 33.9734 100.136ZM43.1225 93.4545C43.0714 93.0227 42.864 92.6875 42.5004 92.4489C42.1367 92.2102 41.6907 92.0909 41.1623 92.0909C40.7759 92.0909 40.4379 92.1534 40.1481 92.2784C39.8612 92.4034 39.6367 92.5753 39.4748 92.794C39.3157 93.0128 39.2362 93.2614 39.2362 93.5398C39.2362 93.7727 39.2915 93.973 39.4023 94.1406C39.516 94.3054 39.6609 94.4432 39.837 94.554C40.0131 94.6619 40.1978 94.7514 40.391 94.8224C40.5842 94.8906 40.7617 94.946 40.9237 94.9886L41.81 95.2273C42.0373 95.2869 42.2901 95.3693 42.5685 95.4744C42.8498 95.5795 43.1183 95.723 43.3739 95.9048C43.6325 96.0838 43.8455 96.3139 44.0131 96.5952C44.1808 96.8764 44.2646 97.2216 44.2646 97.6307C44.2646 98.1023 44.141 98.5284 43.8938 98.9091C43.6495 99.2898 43.2915 99.5923 42.82 99.8168C42.3512 100.041 41.7816 100.153 41.1112 100.153C40.4862 100.153 39.945 100.053 39.4876 99.8509C39.033 99.6491 38.6751 99.3679 38.4137 99.0071C38.1552 98.6463 38.0089 98.2273 37.9748 97.75H39.0657C39.0941 98.0795 39.2049 98.3523 39.3981 98.5682C39.5941 98.7812 39.8413 98.9403 40.1396 99.0455C40.4407 99.1477 40.7646 99.1989 41.1112 99.1989C41.5146 99.1989 41.8768 99.1335 42.1978 99.0028C42.5188 98.8693 42.7731 98.6847 42.9606 98.4489C43.1481 98.2102 43.2418 97.9318 43.2418 97.6136C43.2418 97.3239 43.1609 97.0881 42.9989 96.9062C42.837 96.7244 42.6239 96.5767 42.3597 96.4631C42.0955 96.3494 41.81 96.25 41.5032 96.1648L40.4293 95.858C39.7475 95.6619 39.2077 95.3821 38.81 95.0185C38.4123 94.6548 38.2134 94.179 38.2134 93.5909C38.2134 93.1023 38.3455 92.6761 38.6097 92.3125C38.8768 91.946 39.2347 91.6619 39.6836 91.4602C40.1353 91.2557 40.6396 91.1534 41.1964 91.1534C41.7589 91.1534 42.2589 91.2543 42.6964 91.456C43.1339 91.6548 43.4805 91.9276 43.7362 92.2741C43.9947 92.6207 44.131 93.0142 44.1452 93.4545H43.1225ZM48.5249 100.136C47.9112 100.136 47.3828 99.9915 46.9396 99.7017C46.4964 99.4119 46.1555 99.0128 45.9169 98.5043C45.6783 97.9957 45.5589 97.4148 45.5589 96.7614C45.5589 96.0966 45.6811 95.5099 45.9254 95.0014C46.1726 94.4901 46.5163 94.0909 46.9567 93.804C47.3999 93.5142 47.9169 93.3693 48.5078 93.3693C48.968 93.3693 49.3828 93.4545 49.7521 93.625C50.1214 93.7955 50.424 94.0341 50.6598 94.3409C50.8956 94.6477 51.0419 95.0057 51.0987 95.4148H50.093C50.0163 95.1165 49.8459 94.8523 49.5817 94.6222C49.3203 94.3892 48.968 94.2727 48.5249 94.2727C48.1328 94.2727 47.7891 94.375 47.4936 94.5795C47.201 94.7812 46.9723 95.0668 46.8075 95.4361C46.6456 95.8026 46.5646 96.233 46.5646 96.7273C46.5646 97.233 46.6442 97.6733 46.8033 98.0483C46.9652 98.4233 47.1925 98.7145 47.4851 98.9219C47.7805 99.1293 48.1271 99.233 48.5249 99.233C48.7862 99.233 49.0234 99.1875 49.2365 99.0966C49.4496 99.0057 49.63 98.875 49.7777 98.7045C49.9254 98.5341 50.0305 98.3295 50.093 98.0909H51.0987C51.0419 98.4773 50.9013 98.8253 50.6768 99.1349C50.4553 99.4418 50.1612 99.6861 49.7947 99.8679C49.4311 100.047 49.0078 100.136 48.5249 100.136ZM52.5689 100V93.4545H53.5405V94.4432H53.6087C53.728 94.1193 53.9439 93.8565 54.2564 93.6548C54.5689 93.4531 54.9212 93.3523 55.3132 93.3523C55.3871 93.3523 55.4794 93.3537 55.5902 93.3565C55.701 93.3594 55.7848 93.3636 55.8416 93.3693V94.392C55.8075 94.3835 55.7294 94.3707 55.6072 94.3537C55.4879 94.3338 55.3615 94.3239 55.228 94.3239C54.9098 94.3239 54.6257 94.3906 54.3757 94.5241C54.1286 94.6548 53.9325 94.8366 53.7876 95.0696C53.6456 95.2997 53.5746 95.5625 53.5746 95.858V100H52.5689ZM57.0337 100V93.4545H58.0394V100H57.0337ZM57.5451 92.3636C57.3491 92.3636 57.18 92.2969 57.038 92.1634C56.8988 92.0298 56.8292 91.8693 56.8292 91.6818C56.8292 91.4943 56.8988 91.3338 57.038 91.2003C57.18 91.0668 57.3491 91 57.5451 91C57.7411 91 57.9087 91.0668 58.0479 91.2003C58.19 91.3338 58.261 91.4943 58.261 91.6818C58.261 91.8693 58.19 92.0298 58.0479 92.1634C57.9087 92.2969 57.7411 92.3636 57.5451 92.3636ZM59.8814 102.455V93.4545H60.853V94.4943H60.9723C61.0462 94.3807 61.1484 94.2358 61.2791 94.0597C61.4126 93.8807 61.603 93.7216 61.8501 93.5824C62.1001 93.4403 62.4382 93.3693 62.8643 93.3693C63.4155 93.3693 63.9013 93.5071 64.3217 93.7827C64.7422 94.0582 65.0703 94.4489 65.3061 94.9545C65.5419 95.4602 65.6598 96.0568 65.6598 96.7443C65.6598 97.4375 65.5419 98.0384 65.3061 98.5469C65.0703 99.0526 64.7436 99.4446 64.326 99.723C63.9084 99.9986 63.4268 100.136 62.8814 100.136C62.4609 100.136 62.1243 100.067 61.8714 99.9276C61.6186 99.7855 61.424 99.625 61.2876 99.446C61.1513 99.2642 61.0462 99.1136 60.9723 98.9943H60.8871V102.455H59.8814ZM60.87 96.7273C60.87 97.2216 60.9425 97.6577 61.0874 98.0355C61.2322 98.4105 61.4439 98.7045 61.7223 98.9176C62.0007 99.1278 62.3416 99.233 62.745 99.233C63.1655 99.233 63.5163 99.1222 63.7976 98.9006C64.0817 98.6761 64.2947 98.375 64.4368 97.9972C64.5817 97.6165 64.6541 97.1932 64.6541 96.7273C64.6541 96.267 64.5831 95.8523 64.4411 95.483C64.3018 95.1108 64.0902 94.8168 63.8061 94.6009C63.5249 94.3821 63.1712 94.2727 62.745 94.2727C62.3359 94.2727 61.9922 94.3764 61.7138 94.5838C61.4354 94.7884 61.2251 95.0753 61.0831 95.4446C60.9411 95.8111 60.87 96.2386 60.87 96.7273ZM70.0405 93.4545V94.3068H66.6484V93.4545H70.0405ZM67.6371 91.8864H68.6428V98.125C68.6428 98.4091 68.6839 98.6222 68.7663 98.7642C68.8516 98.9034 68.9595 98.9972 69.0902 99.0455C69.2237 99.0909 69.3643 99.1136 69.5121 99.1136C69.6229 99.1136 69.7138 99.108 69.7848 99.0966C69.8558 99.0824 69.9126 99.071 69.9553 99.0625L70.1598 99.9659C70.0916 99.9915 69.9964 100.017 69.8743 100.043C69.7521 100.071 69.5973 100.085 69.4098 100.085C69.1257 100.085 68.8473 100.024 68.5746 99.902C68.3047 99.7798 68.0803 99.5938 67.9013 99.3438C67.7251 99.0938 67.6371 98.7784 67.6371 98.3977V91.8864Z" fill="#0D1117"/>
<defs>
<clipPath id="clip0_370_289">
<rect width="40" height="40" fill="white" transform="translate(20 20)"/>
</clipPath>
</defs>
</svg>
