<svg width="80" height="103" viewBox="0 0 80 103" fill="none" xmlns="http://www.w3.org/2000/svg">
<rect width="80" height="80" rx="8" fill="black"/>
<g clip-path="url(#clip0_367_110)">
<path d="M21.1425 34.0759C21.1425 34.0759 20.1966 33.3912 21.3331 32.4781L23.9794 30.105C23.9794 30.105 24.7375 29.3053 25.5384 30.0025L49.9681 48.5425V57.4331C49.9681 57.4331 49.9559 58.8294 48.1691 58.6756L21.1425 34.0759Z" fill="#2489CA"/>
<path d="M27.4403 39.8059L21.1425 45.5444C21.1425 45.5444 20.4956 46.0266 21.1425 46.8897L24.0663 49.5544C24.0663 49.5544 24.7606 50.3028 25.7875 49.4519L32.4622 44.3775L27.4403 39.8059Z" fill="#1070B3"/>
<path d="M38.495 39.8534L50.0428 31.0144L49.9681 22.1716C49.9681 22.1716 49.475 20.2416 47.8297 21.2469L32.4622 35.2659L38.495 39.8534Z" fill="#0877B9"/>
<path d="M48.1688 58.6866C48.8391 59.375 49.6522 59.1491 49.6522 59.1491L58.6513 54.7047C59.8034 53.9172 59.6422 52.9406 59.6422 52.9406V26.3953C59.6422 25.2281 58.4509 24.8253 58.4509 24.8253L50.6506 21.0562C48.9466 20.0003 47.8297 21.2469 47.8297 21.2469C47.8297 21.2469 49.265 20.2103 49.9681 22.1719V57.2709C49.9681 57.5125 49.9169 57.7491 49.8144 57.9628C49.6094 58.3791 49.1625 58.7659 48.0944 58.6037L48.1688 58.6866Z" fill="#3C99D4"/>
</g>
<path d="M18.8699 91.2727L21.4608 98.6193H21.563L24.1539 91.2727H25.2619L22.0574 100H20.9664L17.7619 91.2727H18.8699ZM31.394 93.4545C31.3429 93.0227 31.1355 92.6875 30.7718 92.4489C30.4082 92.2102 29.9622 92.0909 29.4338 92.0909C29.0474 92.0909 28.7093 92.1534 28.4196 92.2784C28.1326 92.4034 27.9082 92.5753 27.7463 92.794C27.5872 93.0128 27.5076 93.2614 27.5076 93.5398C27.5076 93.7727 27.563 93.973 27.6738 94.1406C27.7875 94.3054 27.9324 94.4432 28.1085 94.554C28.2846 94.6619 28.4693 94.7514 28.6625 94.8224C28.8556 94.8906 29.0332 94.946 29.1951 94.9886L30.0815 95.2273C30.3088 95.2869 30.5616 95.3693 30.84 95.4744C31.1213 95.5795 31.3897 95.723 31.6454 95.9048C31.9039 96.0838 32.117 96.3139 32.2846 96.5952C32.4522 96.8764 32.536 97.2216 32.536 97.6307C32.536 98.1023 32.4125 98.5284 32.1653 98.9091C31.921 99.2898 31.563 99.5923 31.0914 99.8168C30.6227 100.041 30.0531 100.153 29.3826 100.153C28.7576 100.153 28.2164 100.053 27.7591 99.8509C27.3045 99.6491 26.9466 99.3679 26.6852 99.0071C26.4267 98.6463 26.2804 98.2273 26.2463 97.75H27.3372C27.3656 98.0795 27.4764 98.3523 27.6696 98.5682C27.8656 98.7812 28.1127 98.9403 28.411 99.0455C28.7122 99.1477 29.036 99.1989 29.3826 99.1989C29.786 99.1989 30.1483 99.1335 30.4693 99.0028C30.7903 98.8693 31.0446 98.6847 31.2321 98.4489C31.4196 98.2102 31.5133 97.9318 31.5133 97.6136C31.5133 97.3239 31.4324 97.0881 31.2704 96.9062C31.1085 96.7244 30.8954 96.5767 30.6312 96.4631C30.367 96.3494 30.0815 96.25 29.7747 96.1648L28.7008 95.858C28.019 95.6619 27.4792 95.3821 27.0815 95.0185C26.6838 94.6548 26.4849 94.179 26.4849 93.5909C26.4849 93.1023 26.617 92.6761 26.8812 92.3125C27.1483 91.946 27.5062 91.6619 27.9551 91.4602C28.4068 91.2557 28.911 91.1534 29.4679 91.1534C30.0304 91.1534 30.5304 91.2543 30.9679 91.456C31.4054 91.6548 31.752 91.9276 32.0076 92.2741C32.2662 92.6207 32.4025 93.0142 32.4167 93.4545H31.394ZM41.2963 94H40.2395C40.177 93.696 40.0676 93.429 39.9114 93.1989C39.758 92.9688 39.5705 92.7756 39.3489 92.6193C39.1301 92.4602 38.8873 92.3409 38.6202 92.2614C38.3532 92.1818 38.0748 92.142 37.785 92.142C37.2566 92.142 36.7779 92.2756 36.3489 92.5426C35.9228 92.8097 35.5833 93.2031 35.3304 93.723C35.0804 94.2429 34.9554 94.8807 34.9554 95.6364C34.9554 96.392 35.0804 97.0298 35.3304 97.5497C35.5833 98.0696 35.9228 98.4631 36.3489 98.7301C36.7779 98.9972 37.2566 99.1307 37.785 99.1307C38.0748 99.1307 38.3532 99.0909 38.6202 99.0114C38.8873 98.9318 39.1301 98.8139 39.3489 98.6577C39.5705 98.4986 39.758 98.304 39.9114 98.0739C40.0676 97.8409 40.177 97.5739 40.2395 97.2727H41.2963C41.2168 97.7187 41.0719 98.1179 40.8617 98.4702C40.6515 98.8224 40.3901 99.1222 40.0776 99.3693C39.7651 99.6136 39.4142 99.7997 39.025 99.9276C38.6387 100.055 38.2253 100.119 37.785 100.119C37.0407 100.119 36.3787 99.9375 35.7992 99.5739C35.2196 99.2102 34.7637 98.6932 34.4313 98.0227C34.0989 97.3523 33.9327 96.5568 33.9327 95.6364C33.9327 94.7159 34.0989 93.9205 34.4313 93.25C34.7637 92.5795 35.2196 92.0625 35.7992 91.6989C36.3787 91.3352 37.0407 91.1534 37.785 91.1534C38.2253 91.1534 38.6387 91.2173 39.025 91.3452C39.4142 91.473 39.7651 91.6605 40.0776 91.9077C40.3901 92.152 40.6515 92.4503 40.8617 92.8026C41.0719 93.152 41.2168 93.5511 41.2963 94ZM45.5268 100.136C44.9359 100.136 44.4174 99.9957 43.9714 99.7145C43.5282 99.4332 43.1816 99.0398 42.9316 98.5341C42.6845 98.0284 42.5609 97.4375 42.5609 96.7614C42.5609 96.0795 42.6845 95.4844 42.9316 94.9759C43.1816 94.4673 43.5282 94.0724 43.9714 93.7912C44.4174 93.5099 44.9359 93.3693 45.5268 93.3693C46.1177 93.3693 46.6348 93.5099 47.0779 93.7912C47.524 94.0724 47.8706 94.4673 48.1177 94.9759C48.3677 95.4844 48.4927 96.0795 48.4927 96.7614C48.4927 97.4375 48.3677 98.0284 48.1177 98.5341C47.8706 99.0398 47.524 99.4332 47.0779 99.7145C46.6348 99.9957 46.1177 100.136 45.5268 100.136ZM45.5268 99.233C45.9757 99.233 46.345 99.1179 46.6348 98.8878C46.9245 98.6577 47.139 98.3551 47.2782 97.9801C47.4174 97.6051 47.487 97.1989 47.487 96.7614C47.487 96.3239 47.4174 95.9162 47.2782 95.5384C47.139 95.1605 46.9245 94.8551 46.6348 94.6222C46.345 94.3892 45.9757 94.2727 45.5268 94.2727C45.0779 94.2727 44.7086 94.3892 44.4189 94.6222C44.1291 94.8551 43.9146 95.1605 43.7754 95.5384C43.6362 95.9162 43.5666 96.3239 43.5666 96.7614C43.5666 97.1989 43.6362 97.6051 43.7754 97.9801C43.9146 98.3551 44.1291 98.6577 44.4189 98.8878C44.7086 99.1179 45.0779 99.233 45.5268 99.233ZM52.4995 100.136C51.954 100.136 51.4725 99.9986 51.0549 99.723C50.6373 99.4446 50.3105 99.0526 50.0748 98.5469C49.839 98.0384 49.7211 97.4375 49.7211 96.7443C49.7211 96.0568 49.839 95.4602 50.0748 94.9545C50.3105 94.4489 50.6387 94.0582 51.0591 93.7827C51.4796 93.5071 51.9654 93.3693 52.5165 93.3693C52.9426 93.3693 53.2793 93.4403 53.5265 93.5824C53.7765 93.7216 53.9668 93.8807 54.0975 94.0597C54.231 94.2358 54.3347 94.3807 54.4086 94.4943H54.4938V91.2727H55.4995V100H54.5279V98.9943H54.4086C54.3347 99.1136 54.2296 99.2642 54.0932 99.446C53.9569 99.625 53.7623 99.7855 53.5094 99.9276C53.2566 100.067 52.9199 100.136 52.4995 100.136ZM52.6358 99.233C53.0392 99.233 53.3801 99.1278 53.6586 98.9176C53.937 98.7045 54.1486 98.4105 54.2935 98.0355C54.4384 97.6577 54.5108 97.2216 54.5108 96.7273C54.5108 96.2386 54.4398 95.8111 54.2978 95.4446C54.1557 95.0753 53.9455 94.7884 53.6671 94.5838C53.3887 94.3764 53.0449 94.2727 52.6358 94.2727C52.2097 94.2727 51.8546 94.3821 51.5705 94.6009C51.2892 94.8168 51.0776 95.1108 50.9355 95.483C50.7963 95.8523 50.7267 96.267 50.7267 96.7273C50.7267 97.1932 50.7978 97.6165 50.9398 97.9972C51.0847 98.375 51.2978 98.6761 51.579 98.9006C51.8631 99.1222 52.2154 99.233 52.6358 99.233ZM60.2253 100.136C59.5946 100.136 59.0506 99.9972 58.5932 99.7188C58.1387 99.4375 57.7878 99.0455 57.5407 98.5426C57.2963 98.0369 57.1742 97.4489 57.1742 96.7784C57.1742 96.108 57.2963 95.517 57.5407 95.0057C57.7878 94.4915 58.1316 94.0909 58.5719 93.804C59.0151 93.5142 59.5321 93.3693 60.123 93.3693C60.464 93.3693 60.8006 93.4261 61.133 93.5398C61.4654 93.6534 61.7679 93.8381 62.0407 94.0938C62.3134 94.3466 62.5307 94.6818 62.6926 95.0994C62.8546 95.517 62.9355 96.0312 62.9355 96.642V97.0682H57.8901V96.1989H61.9128C61.9128 95.8295 61.839 95.5 61.6912 95.2102C61.5463 94.9205 61.339 94.6918 61.0691 94.5241C60.802 94.3565 60.4867 94.2727 60.123 94.2727C59.7225 94.2727 59.3759 94.3722 59.0833 94.571C58.7935 94.767 58.5705 95.0227 58.4142 95.3381C58.258 95.6534 58.1799 95.9915 58.1799 96.3523V96.9318C58.1799 97.4261 58.2651 97.8452 58.4355 98.1889C58.6088 98.5298 58.8489 98.7898 59.1557 98.9688C59.4625 99.1449 59.8191 99.233 60.2253 99.233C60.4895 99.233 60.7282 99.196 60.9412 99.1222C61.1571 99.0455 61.3432 98.9318 61.4995 98.7812C61.6557 98.6278 61.7765 98.4375 61.8617 98.2102L62.8333 98.483C62.731 98.8125 62.5591 99.1023 62.3176 99.3523C62.0762 99.5994 61.7779 99.7926 61.4228 99.9318C61.0676 100.068 60.6685 100.136 60.2253 100.136Z" fill="white"/>
<defs>
<clipPath id="clip0_367_110">
<rect width="40" height="40" fill="white" transform="translate(20 20)"/>
</clipPath>
</defs>
</svg>
