<svg width="80" height="103" viewBox="0 0 80 103" fill="none" xmlns="http://www.w3.org/2000/svg">
<rect width="80" height="80" rx="8" fill="#F3F3F3"/>
<path d="M56.6531 50.6562L40.7 59.6875V52.6531L50.625 47.1875L56.6531 50.6562ZM57.7469 49.6688V30.7969L51.9094 34.1719V46.3L57.7437 49.6656L57.7469 49.6688ZM23.3469 50.6562L39.2844 59.6813V52.6531L29.3562 47.1875L23.3469 50.6562ZM22.2531 49.6688V30.7969L28.0906 34.1719V46.3L22.2531 49.6688ZM22.9375 29.575L39.3 20.3125V27.1125L28.8156 32.8781L28.7312 32.925L22.9375 29.575ZM57.0562 29.575L40.7 20.3125V27.1125L51.1844 32.875L51.2687 32.9219L57.0625 29.575H57.0562ZM39.3 51.0531L29.4906 45.6562V34.975L39.3 40.625V51.0531ZM40.7 51.0531L50.5094 45.6625V34.975L40.7 40.625V51.0531ZM30.1562 33.75L40 28.3312L49.8437 33.75L40 39.425L30.1562 33.75Z" fill="#1C78C0"/>
<path d="M16.728 100L14.3416 91.2727H15.4155L17.2393 98.3807H17.3246L19.1825 91.2727H20.3757L22.2337 98.3807H22.3189L24.1428 91.2727H25.2166L22.8303 100H21.7393L19.8132 93.0455H19.745L17.8189 100H16.728ZM28.532 100.136C27.9013 100.136 27.3572 99.9972 26.8999 99.7188C26.4453 99.4375 26.0945 99.0455 25.8473 98.5426C25.603 98.0369 25.4808 97.4489 25.4808 96.7784C25.4808 96.108 25.603 95.517 25.8473 95.0057C26.0945 94.4915 26.4382 94.0909 26.8786 93.804C27.3217 93.5142 27.8388 93.3693 28.4297 93.3693C28.7706 93.3693 29.1072 93.4261 29.4396 93.5398C29.772 93.6534 30.0746 93.8381 30.3473 94.0938C30.62 94.3466 30.8374 94.6818 30.9993 95.0994C31.1612 95.517 31.2422 96.0312 31.2422 96.642V97.0682H26.1967V96.1989H30.2195C30.2195 95.8295 30.1456 95.5 29.9979 95.2102C29.853 94.9205 29.6456 94.6918 29.3757 94.5241C29.1087 94.3565 28.7933 94.2727 28.4297 94.2727C28.0291 94.2727 27.6825 94.3722 27.3899 94.571C27.1001 94.767 26.8771 95.0227 26.7209 95.3381C26.5646 95.6534 26.4865 95.9915 26.4865 96.3523V96.9318C26.4865 97.4261 26.5717 97.8452 26.7422 98.1889C26.9155 98.5298 27.1555 98.7898 27.4624 98.9688C27.7692 99.1449 28.1257 99.233 28.532 99.233C28.7962 99.233 29.0348 99.196 29.2479 99.1222C29.4638 99.0455 29.6499 98.9318 29.8061 98.7812C29.9624 98.6278 30.0831 98.4375 30.1683 98.2102L31.1399 98.483C31.0376 98.8125 30.8658 99.1023 30.6243 99.3523C30.3828 99.5994 30.0845 99.7926 29.7294 99.9318C29.3743 100.068 28.9751 100.136 28.532 100.136ZM32.9084 100V91.2727H33.9141V94.4943H33.9993C34.0732 94.3807 34.1754 94.2358 34.3061 94.0597C34.4396 93.8807 34.63 93.7216 34.8771 93.5824C35.1271 93.4403 35.4652 93.3693 35.8913 93.3693C36.4425 93.3693 36.9283 93.5071 37.3487 93.7827C37.7692 94.0582 38.0973 94.4489 38.3331 94.9545C38.5689 95.4602 38.6868 96.0568 38.6868 96.7443C38.6868 97.4375 38.5689 98.0384 38.3331 98.5469C38.0973 99.0526 37.7706 99.4446 37.353 99.723C36.9354 99.9986 36.4538 100.136 35.9084 100.136C35.4879 100.136 35.1513 100.067 34.8984 99.9276C34.6456 99.7855 34.451 99.625 34.3146 99.446C34.1783 99.2642 34.0732 99.1136 33.9993 98.9943H33.88V100H32.9084ZM33.897 96.7273C33.897 97.2216 33.9695 97.6577 34.1143 98.0355C34.2592 98.4105 34.4709 98.7045 34.7493 98.9176C35.0277 99.1278 35.3686 99.233 35.772 99.233C36.1925 99.233 36.5433 99.1222 36.8246 98.9006C37.1087 98.6761 37.3217 98.375 37.4638 97.9972C37.6087 97.6165 37.6811 97.1932 37.6811 96.7273C37.6811 96.267 37.6101 95.8523 37.468 95.483C37.3288 95.1108 37.1172 94.8168 36.8331 94.6009C36.5518 94.3821 36.1982 94.2727 35.772 94.2727C35.3629 94.2727 35.0192 94.3764 34.7408 94.5838C34.4624 94.7884 34.2521 95.0753 34.1101 95.4446C33.968 95.8111 33.897 96.2386 33.897 96.7273ZM40.3615 100V91.2727H43.3104C43.995 91.2727 44.5547 91.3963 44.9893 91.6435C45.4268 91.8878 45.7507 92.2188 45.9609 92.6364C46.1712 93.054 46.2763 93.5199 46.2763 94.0341C46.2763 94.5483 46.1712 95.0156 45.9609 95.4361C45.7536 95.8565 45.4325 96.1918 44.9979 96.4418C44.5632 96.6889 44.0064 96.8125 43.3274 96.8125H41.2138V95.875H43.2933C43.7621 95.875 44.1385 95.794 44.4226 95.6321C44.7067 95.4702 44.9126 95.2514 45.0405 94.9759C45.1712 94.6974 45.2365 94.3835 45.2365 94.0341C45.2365 93.6847 45.1712 93.3722 45.0405 93.0966C44.9126 92.821 44.7053 92.6051 44.4183 92.4489C44.1314 92.2898 43.7507 92.2102 43.2763 92.2102H41.4183V100H40.3615ZM49.7685 100.153C49.3537 100.153 48.9773 100.075 48.6392 99.919C48.3011 99.7599 48.0327 99.5312 47.8338 99.233C47.6349 98.9318 47.5355 98.5682 47.5355 98.142C47.5355 97.767 47.6094 97.4631 47.7571 97.2301C47.9048 96.9943 48.1023 96.8097 48.3494 96.6761C48.5966 96.5426 48.8693 96.4432 49.1676 96.3778C49.4688 96.3097 49.7713 96.2557 50.0753 96.2159C50.473 96.1648 50.7955 96.1264 51.0426 96.1009C51.2926 96.0724 51.4744 96.0256 51.5881 95.9602C51.7045 95.8949 51.7628 95.7812 51.7628 95.6193V95.5852C51.7628 95.1648 51.6477 94.8381 51.4176 94.6051C51.1903 94.3722 50.8452 94.2557 50.3821 94.2557C49.902 94.2557 49.5256 94.3608 49.2528 94.571C48.9801 94.7812 48.7884 95.0057 48.6776 95.2443L47.723 94.9034C47.8935 94.5057 48.1207 94.196 48.4048 93.9744C48.6918 93.75 49.0043 93.5937 49.3423 93.5057C49.6832 93.4148 50.0185 93.3693 50.348 93.3693C50.5582 93.3693 50.7997 93.3949 51.0724 93.446C51.348 93.4943 51.6136 93.5952 51.8693 93.7486C52.1278 93.902 52.3423 94.1335 52.5128 94.4432C52.6832 94.7528 52.7685 95.1676 52.7685 95.6875V100H51.7628V99.1136H51.7116C51.6435 99.2557 51.5298 99.4077 51.3707 99.5696C51.2116 99.7315 51 99.8693 50.7358 99.983C50.4716 100.097 50.1491 100.153 49.7685 100.153ZM49.9219 99.25C50.3196 99.25 50.6548 99.1719 50.9276 99.0156C51.2031 98.8594 51.4105 98.6577 51.5497 98.4105C51.6918 98.1634 51.7628 97.9034 51.7628 97.6307V96.7102C51.7202 96.7614 51.6264 96.8082 51.4815 96.8509C51.3395 96.8906 51.1747 96.9261 50.9872 96.9574C50.8026 96.9858 50.6222 97.0114 50.446 97.0341C50.2727 97.054 50.1321 97.071 50.0241 97.0852C49.7628 97.1193 49.5185 97.1747 49.2912 97.2514C49.0668 97.3253 48.8849 97.4375 48.7457 97.5881C48.6094 97.7358 48.5412 97.9375 48.5412 98.1932C48.5412 98.5426 48.6705 98.8068 48.929 98.9858C49.1903 99.1619 49.5213 99.25 49.9219 99.25ZM57.2631 100.136C56.6495 100.136 56.1211 99.9915 55.6779 99.7017C55.2347 99.4119 54.8938 99.0128 54.6552 98.5043C54.4165 97.9957 54.2972 97.4148 54.2972 96.7614C54.2972 96.0966 54.4194 95.5099 54.6637 95.0014C54.9109 94.4901 55.2546 94.0909 55.695 93.804C56.1381 93.5142 56.6552 93.3693 57.2461 93.3693C57.7063 93.3693 58.1211 93.4545 58.4904 93.625C58.8597 93.7955 59.1623 94.0341 59.3981 94.3409C59.6339 94.6477 59.7802 95.0057 59.837 95.4148H58.8313C58.7546 95.1165 58.5842 94.8523 58.32 94.6222C58.0586 94.3892 57.7063 94.2727 57.2631 94.2727C56.8711 94.2727 56.5273 94.375 56.2319 94.5795C55.9393 94.7812 55.7106 95.0668 55.5458 95.4361C55.3839 95.8026 55.3029 96.233 55.3029 96.7273C55.3029 97.233 55.3825 97.6733 55.5415 98.0483C55.7035 98.4233 55.9308 98.7145 56.2234 98.9219C56.5188 99.1293 56.8654 99.233 57.2631 99.233C57.5245 99.233 57.7617 99.1875 57.9748 99.0966C58.1879 99.0057 58.3683 98.875 58.516 98.7045C58.6637 98.5341 58.7688 98.3295 58.8313 98.0909H59.837C59.7802 98.4773 59.6396 98.8253 59.4151 99.1349C59.1935 99.4418 58.8995 99.6861 58.533 99.8679C58.1694 100.047 57.7461 100.136 57.2631 100.136ZM62.2447 97.6136L62.2276 96.3693H62.4322L65.2958 93.4545H66.5401L63.489 96.5398H63.4038L62.2447 97.6136ZM61.3072 100V91.2727H62.3129V100H61.3072ZM65.4663 100L62.9094 96.7614L63.6254 96.0625L66.7447 100H65.4663Z" fill="#0D1117"/>
</svg>
