<svg width="80" height="103" viewBox="0 0 80 103" fill="none" xmlns="http://www.w3.org/2000/svg">
<rect width="80" height="80" rx="8" fill="black"/>
<g clip-path="url(#clip0_372_433)">
<path fill-rule="evenodd" clip-rule="evenodd" d="M40.0294 59.445C50.7403 59.4288 59.4109 50.7159 59.4109 39.9684C59.4109 29.3956 50.7803 20.6881 40.4694 20.5041C29.6406 20.3109 20.5919 29.0978 20.5891 39.7531C20.5859 50.7153 29.2178 59.4606 40.0294 59.445ZM39.9978 21.4469C50.2812 21.4434 58.4747 29.7984 58.4716 40.2844C58.4681 50.1841 50.0575 58.4656 40.0053 58.4678C29.7644 58.47 21.5287 50.1669 21.5291 39.8403C21.5297 29.78 29.8934 21.4503 39.9978 21.4469ZM32.2366 31.2175C32.4047 31.7778 31.9341 31.9728 31.4337 32.0119C30.9072 32.0525 30.3809 32.0922 29.7697 32.1388C31.7872 38.1494 33.7744 44.0709 35.8087 50.1303C35.9537 49.8931 36.0134 49.8263 36.0397 49.7481C37.1566 46.41 38.2797 43.0741 39.3681 39.7266C39.4675 39.4213 39.4181 39.0169 39.3094 38.7031C38.7334 37.0406 38.0434 35.4144 37.5384 33.7319C37.1931 32.58 36.735 31.8347 35.3734 31.9681C35.1416 31.9909 34.8584 31.4919 34.5987 31.2341C34.9128 31.0466 35.2247 30.7016 35.5416 30.6969C38.3141 30.6543 41.0872 30.6551 43.8597 30.6994C44.1778 30.7047 44.4897 31.0588 44.8037 31.2509C44.5287 31.5022 44.2916 31.8791 43.97 31.9763C43.4541 32.1319 42.8819 32.1025 42.2644 32.1575L48.3109 50.145C49.2269 47.1025 50.0791 44.3088 50.9078 41.5078C51.6472 39.0075 51.2066 36.6725 49.8697 34.4703C49.4678 33.8081 48.9741 33.1656 48.7462 32.4434C48.4875 31.6219 48.2725 30.6866 48.4097 29.8625C48.6425 28.4659 49.7141 27.7725 51.1641 27.6397C43.2291 20.2753 30.7597 22.9116 26.165 30.9131C27.9337 30.8316 29.6225 30.7244 31.3125 30.7013C31.6319 30.6972 32.1616 30.9672 32.2366 31.2175ZM35.3981 55.5834C35.3612 55.6913 35.3591 55.8113 35.33 55.9903C38.7497 56.9384 42.1034 56.87 45.5359 55.7134L40.2922 41.3509C38.6141 46.2294 37.0047 50.9056 35.3981 55.5834ZM32.7556 54.9341L24.8553 33.2622C21.2912 40.2241 24.0025 50.8459 32.7556 54.9341ZM56.6394 41.0084C56.89 37.7166 55.7544 33.1588 54.7737 32.5319C54.6644 33.7428 54.7406 35.09 54.3931 36.3175C53.5753 39.2097 52.5753 42.0516 51.6122 44.9013C50.5653 47.9988 49.4772 51.0822 48.4069 54.1719C53.4356 51.1909 56.1991 46.7913 56.6394 41.0084Z" fill="#21759B"/>
</g>
<path d="M12.1088 100L9.72248 91.2727H10.7963L12.6202 98.3807H12.7054L14.5634 91.2727H15.7566L17.6145 98.3807H17.6998L19.5236 91.2727H20.5975L18.2111 100H17.1202L15.1941 93.0455H15.1259L13.1998 100H12.1088ZM23.8276 100.136C23.2367 100.136 22.7182 99.9957 22.2722 99.7145C21.829 99.4332 21.4824 99.0398 21.2324 98.5341C20.9853 98.0284 20.8617 97.4375 20.8617 96.7614C20.8617 96.0795 20.9853 95.4844 21.2324 94.9759C21.4824 94.4673 21.829 94.0724 22.2722 93.7912C22.7182 93.5099 23.2367 93.3693 23.8276 93.3693C24.4185 93.3693 24.9355 93.5099 25.3787 93.7912C25.8248 94.0724 26.1713 94.4673 26.4185 94.9759C26.6685 95.4844 26.7935 96.0795 26.7935 96.7614C26.7935 97.4375 26.6685 98.0284 26.4185 98.5341C26.1713 99.0398 25.8248 99.4332 25.3787 99.7145C24.9355 99.9957 24.4185 100.136 23.8276 100.136ZM23.8276 99.233C24.2765 99.233 24.6458 99.1179 24.9355 98.8878C25.2253 98.6577 25.4398 98.3551 25.579 97.9801C25.7182 97.6051 25.7878 97.1989 25.7878 96.7614C25.7878 96.3239 25.7182 95.9162 25.579 95.5384C25.4398 95.1605 25.2253 94.8551 24.9355 94.6222C24.6458 94.3892 24.2765 94.2727 23.8276 94.2727C23.3787 94.2727 23.0094 94.3892 22.7196 94.6222C22.4299 94.8551 22.2154 95.1605 22.0762 95.5384C21.937 95.9162 21.8674 96.3239 21.8674 96.7614C21.8674 97.1989 21.937 97.6051 22.0762 97.9801C22.2154 98.3551 22.4299 98.6577 22.7196 98.8878C23.0094 99.1179 23.3787 99.233 23.8276 99.233ZM28.3287 100V93.4545H29.3002V94.4432H29.3684C29.4877 94.1193 29.7037 93.8565 30.0162 93.6548C30.3287 93.4531 30.6809 93.3523 31.073 93.3523C31.1468 93.3523 31.2392 93.3537 31.35 93.3565C31.4608 93.3594 31.5446 93.3636 31.6014 93.3693V94.392C31.5673 94.3835 31.4892 94.3707 31.367 94.3537C31.2477 94.3338 31.1213 94.3239 30.9877 94.3239C30.6696 94.3239 30.3855 94.3906 30.1355 94.5241C29.8883 94.6548 29.6923 94.8366 29.5474 95.0696C29.4054 95.2997 29.3343 95.5625 29.3343 95.858V100H28.3287ZM35.0659 100.136C34.5204 100.136 34.0389 99.9986 33.6213 99.723C33.2037 99.4446 32.877 99.0526 32.6412 98.5469C32.4054 98.0384 32.2875 97.4375 32.2875 96.7443C32.2875 96.0568 32.4054 95.4602 32.6412 94.9545C32.877 94.4489 33.2051 94.0582 33.6255 93.7827C34.046 93.5071 34.5318 93.3693 35.0829 93.3693C35.5091 93.3693 35.8457 93.4403 36.0929 93.5824C36.3429 93.7216 36.5332 93.8807 36.6639 94.0597C36.7974 94.2358 36.9011 94.3807 36.975 94.4943H37.0602V91.2727H38.0659V100H37.0943V98.9943H36.975C36.9011 99.1136 36.796 99.2642 36.6596 99.446C36.5233 99.625 36.3287 99.7855 36.0758 99.9276C35.823 100.067 35.4863 100.136 35.0659 100.136ZM35.2022 99.233C35.6056 99.233 35.9466 99.1278 36.225 98.9176C36.5034 98.7045 36.715 98.4105 36.8599 98.0355C37.0048 97.6577 37.0772 97.2216 37.0772 96.7273C37.0772 96.2386 37.0062 95.8111 36.8642 95.4446C36.7221 95.0753 36.5119 94.7884 36.2335 94.5838C35.9551 94.3764 35.6113 94.2727 35.2022 94.2727C34.7761 94.2727 34.421 94.3821 34.1369 94.6009C33.8556 94.8168 33.644 95.1108 33.502 95.483C33.3627 95.8523 33.2931 96.267 33.2931 96.7273C33.2931 97.1932 33.3642 97.6165 33.5062 97.9972C33.6511 98.375 33.8642 98.6761 34.1454 98.9006C34.4295 99.1222 34.7818 99.233 35.2022 99.233ZM40.1838 100V91.2727H43.1326C43.8173 91.2727 44.377 91.3963 44.8116 91.6435C45.2491 91.8878 45.573 92.2188 45.7832 92.6364C45.9934 93.054 46.0985 93.5199 46.0985 94.0341C46.0985 94.5483 45.9934 95.0156 45.7832 95.4361C45.5758 95.8565 45.2548 96.1918 44.8201 96.4418C44.3855 96.6889 43.8287 96.8125 43.1497 96.8125H41.036V95.875H43.1156C43.5843 95.875 43.9608 95.794 44.2449 95.6321C44.5289 95.4702 44.7349 95.2514 44.8627 94.9759C44.9934 94.6974 45.0588 94.3835 45.0588 94.0341C45.0588 93.6847 44.9934 93.3722 44.8627 93.0966C44.7349 92.821 44.5275 92.6051 44.2406 92.4489C43.9537 92.2898 43.573 92.2102 43.0985 92.2102H41.2406V100H40.1838ZM47.6646 100V93.4545H48.6362V94.4432H48.7044C48.8237 94.1193 49.0396 93.8565 49.3521 93.6548C49.6646 93.4531 50.0169 93.3523 50.4089 93.3523C50.4828 93.3523 50.5751 93.3537 50.6859 93.3565C50.7967 93.3594 50.8805 93.3636 50.9373 93.3693V94.392C50.9032 94.3835 50.8251 94.3707 50.7029 94.3537C50.5836 94.3338 50.4572 94.3239 50.3237 94.3239C50.0055 94.3239 49.7214 94.3906 49.4714 94.5241C49.2243 94.6548 49.0282 94.8366 48.8833 95.0696C48.7413 95.2997 48.6703 95.5625 48.6703 95.858V100H47.6646ZM54.6745 100.136C54.0439 100.136 53.4998 99.9972 53.0424 99.7188C52.5879 99.4375 52.237 99.0455 51.9899 98.5426C51.7456 98.0369 51.6234 97.4489 51.6234 96.7784C51.6234 96.108 51.7456 95.517 51.9899 95.0057C52.237 94.4915 52.5808 94.0909 53.0211 93.804C53.4643 93.5142 53.9814 93.3693 54.5723 93.3693C54.9132 93.3693 55.2498 93.4261 55.5822 93.5398C55.9146 93.6534 56.2172 93.8381 56.4899 94.0938C56.7626 94.3466 56.9799 94.6818 57.1419 95.0994C57.3038 95.517 57.3848 96.0312 57.3848 96.642V97.0682H52.3393V96.1989H56.362C56.362 95.8295 56.2882 95.5 56.1404 95.2102C55.9956 94.9205 55.7882 94.6918 55.5183 94.5241C55.2512 94.3565 54.9359 94.2727 54.5723 94.2727C54.1717 94.2727 53.8251 94.3722 53.5325 94.571C53.2427 94.767 53.0197 95.0227 52.8635 95.3381C52.7072 95.6534 52.6291 95.9915 52.6291 96.3523V96.9318C52.6291 97.4261 52.7143 97.8452 52.8848 98.1889C53.0581 98.5298 53.2981 98.7898 53.6049 98.9688C53.9118 99.1449 54.2683 99.233 54.6745 99.233C54.9387 99.233 55.1774 99.196 55.3904 99.1222C55.6064 99.0455 55.7924 98.9318 55.9487 98.7812C56.1049 98.6278 56.2257 98.4375 56.3109 98.2102L57.2825 98.483C57.1802 98.8125 57.0083 99.1023 56.7669 99.3523C56.5254 99.5994 56.2271 99.7926 55.872 99.9318C55.5169 100.068 55.1177 100.136 54.6745 100.136ZM63.551 94.9205L62.6475 95.1761C62.5907 95.0256 62.5069 94.8793 62.3961 94.7372C62.2882 94.5923 62.1404 94.473 61.9529 94.3793C61.7654 94.2855 61.5254 94.2386 61.2328 94.2386C60.8322 94.2386 60.4984 94.331 60.2314 94.5156C59.9672 94.6974 59.835 94.929 59.835 95.2102C59.835 95.4602 59.926 95.6577 60.1078 95.8026C60.2896 95.9474 60.5737 96.0682 60.96 96.1648L61.9316 96.4034C62.5169 96.5455 62.9529 96.7628 63.2399 97.0554C63.5268 97.3452 63.6703 97.7187 63.6703 98.1761C63.6703 98.5511 63.5623 98.8864 63.3464 99.1818C63.1333 99.4773 62.835 99.7102 62.4515 99.8807C62.068 100.051 61.622 100.136 61.1135 100.136C60.4458 100.136 59.8933 99.9915 59.4558 99.7017C59.0183 99.4119 58.7413 98.9886 58.6248 98.4318L59.5794 98.1932C59.6703 98.5455 59.8422 98.8097 60.095 98.9858C60.3507 99.1619 60.6845 99.25 61.0964 99.25C61.5652 99.25 61.9373 99.1506 62.2129 98.9517C62.4913 98.75 62.6305 98.5085 62.6305 98.2273C62.6305 98 62.551 97.8097 62.3919 97.6562C62.2328 97.5 61.9885 97.3835 61.6589 97.3068L60.568 97.0511C59.9686 96.9091 59.5282 96.6889 59.247 96.3906C58.9686 96.0895 58.8294 95.7131 58.8294 95.2614C58.8294 94.892 58.9331 94.5653 59.1404 94.2812C59.3507 93.9972 59.6362 93.7741 59.997 93.6122C60.3606 93.4503 60.7725 93.3693 61.2328 93.3693C61.8805 93.3693 62.389 93.5114 62.7583 93.7955C63.1305 94.0795 63.3947 94.4545 63.551 94.9205ZM69.8205 94.9205L68.9171 95.1761C68.8603 95.0256 68.7765 94.8793 68.6657 94.7372C68.5577 94.5923 68.41 94.473 68.2225 94.3793C68.035 94.2855 67.7949 94.2386 67.5023 94.2386C67.1017 94.2386 66.7679 94.331 66.5009 94.5156C66.2367 94.6974 66.1046 94.929 66.1046 95.2102C66.1046 95.4602 66.1955 95.6577 66.3773 95.8026C66.5591 95.9474 66.8432 96.0682 67.2296 96.1648L68.2012 96.4034C68.7864 96.5455 69.2225 96.7628 69.5094 97.0554C69.7963 97.3452 69.9398 97.7187 69.9398 98.1761C69.9398 98.5511 69.8319 98.8864 69.6159 99.1818C69.4029 99.4773 69.1046 99.7102 68.7211 99.8807C68.3375 100.051 67.8915 100.136 67.383 100.136C66.7154 100.136 66.1628 99.9915 65.7253 99.7017C65.2878 99.4119 65.0108 98.9886 64.8944 98.4318L65.8489 98.1932C65.9398 98.5455 66.1117 98.8097 66.3645 98.9858C66.6202 99.1619 66.954 99.25 67.3659 99.25C67.8347 99.25 68.2069 99.1506 68.4824 98.9517C68.7608 98.75 68.9 98.5085 68.9 98.2273C68.9 98 68.8205 97.8097 68.6614 97.6562C68.5023 97.5 68.258 97.3835 67.9284 97.3068L66.8375 97.0511C66.2381 96.9091 65.7978 96.6889 65.5165 96.3906C65.2381 96.0895 65.0989 95.7131 65.0989 95.2614C65.0989 94.892 65.2026 94.5653 65.41 94.2812C65.6202 93.9972 65.9057 93.7741 66.2665 93.6122C66.6301 93.4503 67.0421 93.3693 67.5023 93.3693C68.15 93.3693 68.6586 93.5114 69.0279 93.7955C69.4 94.0795 69.6642 94.4545 69.8205 94.9205Z" fill="white"/>
<defs>
<clipPath id="clip0_372_433">
<rect width="40" height="40" fill="white" transform="translate(20 20)"/>
</clipPath>
</defs>
</svg>
