<svg width="80" height="103" viewBox="0 0 80 103" fill="none" xmlns="http://www.w3.org/2000/svg">
<rect width="80" height="80" rx="8" fill="black"/>
<g clip-path="url(#clip0_364_69)">
<path d="M59.4375 20.2188H20.6562C20.5312 20.2188 20.3125 20.2813 20.3125 20.3125V59.6875H59.6875V20.3125C59.6875 20.2813 59.5625 20.2188 59.4375 20.2188ZM55.4688 55.8438H24.875C24.375 55.8438 24.375 55.8438 24.375 55.3438V24.75C24.375 24.25 24.375 24.375 24.875 24.375H55.4375C55.9375 24.375 55.9375 24.25 55.9375 24.7813V55.3438C55.9375 55.7188 55.8438 55.8438 55.4688 55.8438ZM43.9687 47.4688C45.7187 47.9688 47.4688 47.7188 49.2188 47.5C49.5938 47.4688 49.6563 47.25 49.6563 46.875V32.4375H47.3125V38C46 37.875 44.8125 37.9063 43.6562 38.4063C41.7812 39.1875 40.8437 40.9375 40.9375 43.4375C41 45.4688 42.0937 46.9375 43.9687 47.4688ZM44.3438 40.625C45.2188 40.125 46.125 40.1563 47.0312 40.2813C47.0938 40.2813 47.2187 40.4375 47.2187 40.5312V45.5625C46.375 45.7188 45.5625 45.7813 44.7813 45.5625C43.7813 45.2813 43.2188 44.5313 43.0938 43.4063C43 42.1875 43.4688 41.125 44.3438 40.625ZM33.75 47.5313L36.2812 42.0625L38.7188 47.5313H41.5L37.8437 39.7812L41.5313 32.4062H38.8125L36.1875 37.5312L34.0625 32.4375L31.1875 32.4062L34.5625 40.1875L30.9375 47.5313H33.75Z" fill="#DD80BC"/>
</g>
<path d="M13.4851 100H12.3771L15.5817 91.2727H16.6726L19.8771 100H18.7692L16.1612 92.6534H16.093L13.4851 100ZM13.8942 96.5909H18.3601V97.5284H13.8942V96.5909ZM23.5717 100.136C23.0263 100.136 22.5447 99.9986 22.1271 99.723C21.7095 99.4446 21.3828 99.0526 21.147 98.5469C20.9112 98.0384 20.7933 97.4375 20.7933 96.7443C20.7933 96.0568 20.9112 95.4602 21.147 94.9545C21.3828 94.4489 21.7109 94.0582 22.1314 93.7827C22.5518 93.5071 23.0376 93.3693 23.5888 93.3693C24.0149 93.3693 24.3516 93.4403 24.5987 93.5824C24.8487 93.7216 25.0391 93.8807 25.1697 94.0597C25.3033 94.2358 25.407 94.3807 25.4808 94.4943H25.5661V91.2727H26.5717V100H25.6001V98.9943H25.4808C25.407 99.1136 25.3018 99.2642 25.1655 99.446C25.0291 99.625 24.8345 99.7855 24.5817 99.9276C24.3288 100.067 23.9922 100.136 23.5717 100.136ZM23.7081 99.233C24.1115 99.233 24.4524 99.1278 24.7308 98.9176C25.0092 98.7045 25.2209 98.4105 25.3658 98.0355C25.5107 97.6577 25.5831 97.2216 25.5831 96.7273C25.5831 96.2386 25.5121 95.8111 25.37 95.4446C25.228 95.0753 25.0178 94.7884 24.7393 94.5838C24.4609 94.3764 24.1172 94.2727 23.7081 94.2727C23.282 94.2727 22.9268 94.3821 22.6428 94.6009C22.3615 94.8168 22.1499 95.1108 22.0078 95.483C21.8686 95.8523 21.799 96.267 21.799 96.7273C21.799 97.1932 21.87 97.6165 22.0121 97.9972C22.157 98.375 22.37 98.6761 22.6513 98.9006C22.9354 99.1222 23.2876 99.233 23.7081 99.233ZM31.2124 100.136C30.6214 100.136 30.103 99.9957 29.657 99.7145C29.2138 99.4332 28.8672 99.0398 28.6172 98.5341C28.37 98.0284 28.2464 97.4375 28.2464 96.7614C28.2464 96.0795 28.37 95.4844 28.6172 94.9759C28.8672 94.4673 29.2138 94.0724 29.657 93.7912C30.103 93.5099 30.6214 93.3693 31.2124 93.3693C31.8033 93.3693 32.3203 93.5099 32.7635 93.7912C33.2095 94.0724 33.5561 94.4673 33.8033 94.9759C34.0533 95.4844 34.1783 96.0795 34.1783 96.7614C34.1783 97.4375 34.0533 98.0284 33.8033 98.5341C33.5561 99.0398 33.2095 99.4332 32.7635 99.7145C32.3203 99.9957 31.8033 100.136 31.2124 100.136ZM31.2124 99.233C31.6612 99.233 32.0305 99.1179 32.3203 98.8878C32.6101 98.6577 32.8246 98.3551 32.9638 97.9801C33.103 97.6051 33.1726 97.1989 33.1726 96.7614C33.1726 96.3239 33.103 95.9162 32.9638 95.5384C32.8246 95.1605 32.6101 94.8551 32.3203 94.6222C32.0305 94.3892 31.6612 94.2727 31.2124 94.2727C30.7635 94.2727 30.3942 94.3892 30.1044 94.6222C29.8146 94.8551 29.6001 95.1605 29.4609 95.5384C29.3217 95.9162 29.2521 96.3239 29.2521 96.7614C29.2521 97.1989 29.3217 97.6051 29.4609 97.9801C29.6001 98.3551 29.8146 98.6577 30.1044 98.8878C30.3942 99.1179 30.7635 99.233 31.2124 99.233ZM35.8498 100V91.2727H36.8555V94.4943H36.9407C37.0146 94.3807 37.1168 94.2358 37.2475 94.0597C37.381 93.8807 37.5714 93.7216 37.8185 93.5824C38.0685 93.4403 38.4066 93.3693 38.8327 93.3693C39.3839 93.3693 39.8697 93.5071 40.2901 93.7827C40.7106 94.0582 41.0387 94.4489 41.2745 94.9545C41.5103 95.4602 41.6282 96.0568 41.6282 96.7443C41.6282 97.4375 41.5103 98.0384 41.2745 98.5469C41.0387 99.0526 40.712 99.4446 40.2944 99.723C39.8768 99.9986 39.3952 100.136 38.8498 100.136C38.4293 100.136 38.0927 100.067 37.8398 99.9276C37.587 99.7855 37.3924 99.625 37.256 99.446C37.1197 99.2642 37.0146 99.1136 36.9407 98.9943H36.8214V100H35.8498ZM36.8384 96.7273C36.8384 97.2216 36.9109 97.6577 37.0558 98.0355C37.2006 98.4105 37.4123 98.7045 37.6907 98.9176C37.9691 99.1278 38.31 99.233 38.7134 99.233C39.1339 99.233 39.4847 99.1222 39.766 98.9006C40.0501 98.6761 40.2631 98.375 40.4052 97.9972C40.5501 97.6165 40.6225 97.1932 40.6225 96.7273C40.6225 96.267 40.5515 95.8523 40.4094 95.483C40.2702 95.1108 40.0586 94.8168 39.7745 94.6009C39.4933 94.3821 39.1396 94.2727 38.7134 94.2727C38.3043 94.2727 37.9606 94.3764 37.6822 94.5838C37.4038 94.7884 37.1935 95.0753 37.0515 95.4446C36.9094 95.8111 36.8384 96.2386 36.8384 96.7273ZM45.9109 100.136C45.2802 100.136 44.7362 99.9972 44.2788 99.7188C43.8242 99.4375 43.4734 99.0455 43.2262 98.5426C42.9819 98.0369 42.8597 97.4489 42.8597 96.7784C42.8597 96.108 42.9819 95.517 43.2262 95.0057C43.4734 94.4915 43.8171 94.0909 44.2575 93.804C44.7006 93.5142 45.2177 93.3693 45.8086 93.3693C46.1495 93.3693 46.4862 93.4261 46.8185 93.5398C47.1509 93.6534 47.4535 93.8381 47.7262 94.0938C47.9989 94.3466 48.2163 94.6818 48.3782 95.0994C48.5401 95.517 48.6211 96.0312 48.6211 96.642V97.0682H43.5756V96.1989H47.5984C47.5984 95.8295 47.5245 95.5 47.3768 95.2102C47.2319 94.9205 47.0245 94.6918 46.7546 94.5241C46.4876 94.3565 46.1722 94.2727 45.8086 94.2727C45.408 94.2727 45.0614 94.3722 44.7688 94.571C44.479 94.767 44.256 95.0227 44.0998 95.3381C43.9435 95.6534 43.8654 95.9915 43.8654 96.3523V96.9318C43.8654 97.4261 43.9506 97.8452 44.1211 98.1889C44.2944 98.5298 44.5344 98.7898 44.8413 98.9688C45.1481 99.1449 45.5046 99.233 45.9109 99.233C46.1751 99.233 46.4137 99.196 46.6268 99.1222C46.8427 99.0455 47.0288 98.9318 47.185 98.7812C47.3413 98.6278 47.462 98.4375 47.5472 98.2102L48.5188 98.483C48.4165 98.8125 48.2447 99.1023 48.0032 99.3523C47.7617 99.5994 47.4634 99.7926 47.1083 99.9318C46.7532 100.068 46.354 100.136 45.9109 100.136ZM54.1737 91.2727L56.4237 94.9034H56.4918L58.7418 91.2727H59.9862L57.2418 95.6364L59.9862 100H58.7418L56.4918 96.4375H56.4237L54.1737 100H52.9293L55.7418 95.6364L52.9293 91.2727H54.1737ZM64.0547 100H61.3615V91.2727H64.174C65.0206 91.2727 65.745 91.4474 66.3473 91.7969C66.9496 92.1435 67.4112 92.642 67.7322 93.2926C68.0533 93.9403 68.2138 94.7159 68.2138 95.6193C68.2138 96.5284 68.0518 97.3111 67.728 97.9673C67.4041 98.6207 66.9325 99.1236 66.3132 99.4759C65.6939 99.8253 64.9411 100 64.0547 100ZM62.4183 99.0625H63.9865C64.7081 99.0625 65.3061 98.9233 65.7805 98.6449C66.255 98.3665 66.6087 97.9702 66.8416 97.456C67.0746 96.9418 67.1911 96.3295 67.1911 95.6193C67.1911 94.9148 67.076 94.3082 66.8459 93.7997C66.6158 93.2884 66.272 92.8963 65.8146 92.6236C65.3572 92.348 64.7876 92.2102 64.1058 92.2102H62.4183V99.0625Z" fill="white"/>
<defs>
<clipPath id="clip0_364_69">
<rect width="40" height="40" fill="white" transform="translate(20 20)"/>
</clipPath>
</defs>
</svg>
