<svg width="80" height="80" viewBox="0 0 80 80" fill="none" xmlns="http://www.w3.org/2000/svg">
<rect width="80" height="80" rx="8" fill="black"/>
<g clip-path="url(#clip0_364_69)">
<path d="M59.4375 20.2188H20.6562C20.5312 20.2188 20.3125 20.2813 20.3125 20.3125V59.6875H59.6875V20.3125C59.6875 20.2813 59.5625 20.2188 59.4375 20.2188ZM55.4688 55.8438H24.875C24.375 55.8438 24.375 55.8438 24.375 55.3438V24.75C24.375 24.25 24.375 24.375 24.875 24.375H55.4375C55.9375 24.375 55.9375 24.25 55.9375 24.7813V55.3438C55.9375 55.7188 55.8438 55.8438 55.4688 55.8438ZM43.9687 47.4688C45.7187 47.9688 47.4688 47.7188 49.2188 47.5C49.5938 47.4688 49.6563 47.25 49.6563 46.875V32.4375H47.3125V38C46 37.875 44.8125 37.9063 43.6562 38.4063C41.7812 39.1875 40.8437 40.9375 40.9375 43.4375C41 45.4688 42.0937 46.9375 43.9687 47.4688ZM44.3438 40.625C45.2188 40.125 46.125 40.1563 47.0312 40.2813C47.0938 40.2813 47.2187 40.4375 47.2187 40.5312V45.5625C46.375 45.7188 45.5625 45.7813 44.7813 45.5625C43.7813 45.2813 43.2188 44.5313 43.0938 43.4063C43 42.1875 43.4688 41.125 44.3438 40.625ZM33.75 47.5313L36.2812 42.0625L38.7188 47.5313H41.5L37.8437 39.7812L41.5313 32.4062H38.8125L36.1875 37.5312L34.0625 32.4375L31.1875 32.4062L34.5625 40.1875L30.9375 47.5313H33.75Z" fill="#DD80BC"/>
</g>
<defs>
<clipPath id="clip0_364_69">
<rect width="40" height="40" fill="white" transform="translate(20 20)"/>
</clipPath>
</defs>
</svg>
