<svg width="80" height="103" viewBox="0 0 80 103" fill="none" xmlns="http://www.w3.org/2000/svg">
<rect width="80" height="80" rx="8" fill="#F3F3F3"/>
<g clip-path="url(#clip0_370_323)">
<path d="M51.0125 45.2219C49.6563 45.2375 48.4688 45.9375 47.4656 46.5625C45.5906 47.7219 44.6531 47.6469 44.6531 47.6469L44.6219 47.5938C44.4938 47.3844 45.2219 45.5063 44.4063 43.2688C43.525 40.8219 42.125 40.2313 42.2375 40.0438C42.7156 39.2344 43.9125 37.95 44.3906 35.5563C44.675 34.1063 44.6 31.7188 43.9563 30.4688C43.8375 30.2375 42.775 30.8563 42.775 30.8563C42.775 30.8563 41.7813 28.6406 41.5031 28.4625C40.6063 27.8875 39.6281 30.8406 39.6281 30.8406C38.9508 30.7743 38.2674 30.8668 37.6321 31.1109C36.9969 31.3551 36.4273 31.744 35.9688 32.2469C35.6288 32.5743 35.2167 32.8173 34.7656 32.9563C34.6375 33 34.4813 32.9938 34.0938 34.0406C33.5 35.625 35.1063 37.4188 35.1063 37.4188C35.1063 37.4188 33.1906 38.7719 32.4813 40.4563C32.0075 41.6111 31.8198 42.8633 31.9344 44.1063C31.9344 44.1063 30.5719 45.2875 30.4844 46.5063C30.4032 47.36 30.597 48.2173 31.0375 48.9531C31.0719 49.0266 31.1207 49.0924 31.1809 49.1466C31.2412 49.2009 31.3117 49.2425 31.3883 49.269C31.465 49.2955 31.5462 49.3064 31.6271 49.301C31.708 49.2956 31.787 49.274 31.8594 49.2375C31.8594 49.2375 30.9531 50.2938 31.8 50.7406C32.5719 51.1438 33.8719 51.3656 34.5594 50.6812C35.0594 50.1812 35.1594 49.0656 35.3438 48.6094C35.3875 48.5031 35.5375 48.7875 35.6813 48.9219C35.8139 49.0378 35.956 49.1424 36.1063 49.2344C36.1063 49.2344 34.8875 49.7594 35.3875 50.9562C35.5531 51.3531 36.1438 51.6063 37.1094 51.6C37.4688 51.6 41.4094 51.375 42.4594 51.1219C42.7768 51.0715 43.066 50.9097 43.275 50.6656C44.98 50.1585 46.6083 49.4226 48.1156 48.4781C49.5969 47.5125 50.2031 47.25 51.4 46.9656C52.3875 46.7313 52.3219 45.2 51.0125 45.2219Z" fill="#2C8EBB"/>
<path d="M40 20.625C36.168 20.625 32.422 21.7613 29.2358 23.8903C26.0496 26.0192 23.5663 29.0452 22.0998 32.5855C20.6334 36.1258 20.2497 40.0215 20.9973 43.7799C21.7449 47.5383 23.5902 50.9905 26.2998 53.7002C29.0095 56.4098 32.4618 58.2551 36.2201 59.0027C39.9785 59.7503 43.8742 59.3666 47.4145 57.9002C50.9548 56.4337 53.9808 53.9504 56.1097 50.7642C58.2387 47.578 59.375 43.832 59.375 40C59.375 34.8614 57.3337 29.9333 53.7002 26.2998C50.0667 22.6663 45.1386 20.625 40 20.625ZM51.6563 48.0719C50.6094 48.325 50.1219 48.5219 48.7156 49.4344C47.1975 50.3873 45.5633 51.1414 43.8531 51.6781C43.5227 51.9493 43.133 52.1388 42.7156 52.2312C41.525 52.5219 37.4406 52.7406 37.1188 52.7406H37.0438C35.7938 52.7406 35.0844 52.3531 34.7031 51.9469C33.6406 52.4781 32.2656 52.2594 31.2656 51.7312C31.0262 51.6138 30.817 51.4428 30.6544 51.2314C30.4918 51.0201 30.3802 50.774 30.3281 50.5125C30.291 50.2995 30.291 50.0817 30.3281 49.8687C30.236 49.7727 30.1534 49.6681 30.0813 49.5562C29.5136 48.6117 29.2659 47.5091 29.375 46.4125C29.4656 45.2469 30.2719 44.2062 30.7969 43.6531C30.7533 42.4038 30.9726 41.1592 31.4406 40C31.9434 38.9219 32.6699 37.9631 33.5719 37.1875C33.0563 36.3187 32.5313 34.9812 33.0406 33.6187C33.4063 32.6469 33.7063 32.1062 34.3656 31.875C34.6536 31.7919 34.9208 31.6493 35.15 31.4562C36.1117 30.4116 37.4392 29.778 38.8563 29.6875C38.9156 29.5375 38.9844 29.375 39.0594 29.2312C39.5594 28.1687 40.0906 27.5719 40.7125 27.3562C40.9378 27.272 41.1798 27.2423 41.4188 27.2694C41.6577 27.2966 41.8869 27.3799 42.0875 27.5125C42.2906 27.6469 42.55 27.825 43.3063 29.3875C43.5927 29.2849 43.904 29.274 44.1969 29.3562C44.3567 29.3998 44.5057 29.4762 44.6343 29.5806C44.7629 29.685 44.8683 29.8151 44.9438 29.9625C45.7156 31.4437 45.8188 34.0844 45.4813 35.7812C45.1818 37.2836 44.559 38.7029 43.6563 39.9406C44.4637 40.7807 45.079 41.7862 45.4594 42.8875C45.8312 43.9294 45.9812 45.0374 45.9 46.1406C46.236 45.9798 46.5616 45.7982 46.875 45.5969C47.8313 45.0062 49.275 44.1156 50.9969 44.0937C51.5192 44.0588 52.0354 44.2231 52.4413 44.5537C52.8473 44.8842 53.1128 45.3564 53.1844 45.875C53.2497 46.3658 53.1291 46.8633 52.8464 47.2698C52.5636 47.6763 52.1391 47.9624 51.6563 48.0719Z" fill="#2C8EBB"/>
</g>
<path d="M29.7049 102.455C29.5344 102.455 29.3825 102.44 29.2489 102.412C29.1154 102.386 29.0231 102.361 28.9719 102.335L29.2276 101.449C29.4719 101.511 29.6879 101.534 29.8754 101.517C30.0629 101.5 30.229 101.416 30.3739 101.266C30.5217 101.118 30.6566 100.878 30.7788 100.545L30.9663 100.034L28.5458 93.4545H29.6367L31.4435 98.6705H31.5117L33.3185 93.4545H34.4094L31.631 100.955C31.506 101.293 31.3512 101.572 31.1665 101.794C30.9819 102.018 30.7674 102.185 30.5231 102.293C30.2816 102.401 30.0089 102.455 29.7049 102.455ZM37.4638 100.153C37.049 100.153 36.6726 100.075 36.3345 99.919C35.9964 99.7599 35.728 99.5312 35.5291 99.233C35.3303 98.9318 35.2308 98.5682 35.2308 98.142C35.2308 97.767 35.3047 97.4631 35.4524 97.2301C35.6001 96.9943 35.7976 96.8097 36.0447 96.6761C36.2919 96.5426 36.5646 96.4432 36.8629 96.3778C37.1641 96.3097 37.4666 96.2557 37.7706 96.2159C38.1683 96.1648 38.4908 96.1264 38.7379 96.1009C38.9879 96.0724 39.1697 96.0256 39.2834 95.9602C39.3999 95.8949 39.4581 95.7812 39.4581 95.6193V95.5852C39.4581 95.1648 39.343 94.8381 39.1129 94.6051C38.8857 94.3722 38.5405 94.2557 38.0774 94.2557C37.5973 94.2557 37.2209 94.3608 36.9482 94.571C36.6754 94.7812 36.4837 95.0057 36.3729 95.2443L35.4183 94.9034C35.5888 94.5057 35.8161 94.196 36.1001 93.9744C36.3871 93.75 36.6996 93.5937 37.0376 93.5057C37.3786 93.4148 37.7138 93.3693 38.0433 93.3693C38.2536 93.3693 38.495 93.3949 38.7678 93.446C39.0433 93.4943 39.3089 93.5952 39.5646 93.7486C39.8232 93.902 40.0376 94.1335 40.2081 94.4432C40.3786 94.7528 40.4638 95.1676 40.4638 95.6875V100H39.4581V99.1136H39.407C39.3388 99.2557 39.2251 99.4077 39.0661 99.5696C38.907 99.7315 38.6953 99.8693 38.4311 99.983C38.1669 100.097 37.8445 100.153 37.4638 100.153ZM37.6172 99.25C38.0149 99.25 38.3501 99.1719 38.6229 99.0156C38.8984 98.8594 39.1058 98.6577 39.245 98.4105C39.3871 98.1634 39.4581 97.9034 39.4581 97.6307V96.7102C39.4155 96.7614 39.3217 96.8082 39.1768 96.8509C39.0348 96.8906 38.87 96.9261 38.6825 96.9574C38.4979 96.9858 38.3175 97.0114 38.1413 97.0341C37.968 97.054 37.8274 97.071 37.7195 97.0852C37.4581 97.1193 37.2138 97.1747 36.9865 97.2514C36.7621 97.3253 36.5803 97.4375 36.4411 97.5881C36.3047 97.7358 36.2365 97.9375 36.2365 98.1932C36.2365 98.5426 36.3658 98.8068 36.6243 98.9858C36.8857 99.1619 37.2166 99.25 37.6172 99.25ZM42.2994 100V93.4545H43.271V94.4432H43.3391C43.4585 94.1193 43.6744 93.8565 43.9869 93.6548C44.2994 93.4531 44.6516 93.3523 45.0437 93.3523C45.1175 93.3523 45.2099 93.3537 45.3207 93.3565C45.4315 93.3594 45.5153 93.3636 45.5721 93.3693V94.392C45.538 94.3835 45.4599 94.3707 45.3377 94.3537C45.2184 94.3338 45.092 94.3239 44.9585 94.3239C44.6403 94.3239 44.3562 94.3906 44.1062 94.5241C43.859 94.6548 43.663 94.8366 43.5181 95.0696C43.3761 95.2997 43.305 95.5625 43.305 95.858V100H42.2994ZM47.7699 96.0625V100H46.7642V93.4545H47.7358V94.4773H47.821C47.9744 94.1449 48.2074 93.8778 48.5199 93.6761C48.8324 93.4716 49.2358 93.3693 49.7301 93.3693C50.1733 93.3693 50.5611 93.4602 50.8935 93.642C51.2259 93.821 51.4844 94.0938 51.669 94.4602C51.8537 94.8239 51.946 95.2841 51.946 95.8409V100H50.9403V95.9091C50.9403 95.3949 50.8068 94.9943 50.5398 94.7074C50.2727 94.4176 49.9063 94.2727 49.4403 94.2727C49.1193 94.2727 48.8324 94.3423 48.5795 94.4815C48.3295 94.6207 48.1321 94.8239 47.9872 95.0909C47.8423 95.358 47.7699 95.6818 47.7699 96.0625Z" fill="#0D1117"/>
<defs>
<clipPath id="clip0_370_323">
<rect width="40" height="40" fill="white" transform="translate(20 20)"/>
</clipPath>
</defs>
</svg>
