<svg width="174" height="32" viewBox="0 0 174 32" fill="none" xmlns="http://www.w3.org/2000/svg">
<path d="M15.7501 0.00331061C17.1213 -0.0250682 18.4902 0.129108 19.8207 0.461776C20.9467 0.66462 22.0226 1.08457 22.9882 1.69824C23.8909 2.2647 24.5986 3.09366 25.0166 4.0739C25.4903 5.21809 25.7221 6.44792 25.6973 7.68603C25.7523 9.09792 25.3315 10.4874 24.5026 11.6316C23.6845 12.7526 22.5944 13.6467 21.335 14.2296C23.0676 14.6683 24.5885 15.7069 25.6279 17.1609C26.6022 18.6356 27.1149 20.3672 27.1005 22.1346C27.1222 23.5434 26.8129 24.9377 26.1975 26.2052C25.6151 27.3255 24.7599 28.2811 23.7107 28.9837C22.6049 29.7123 21.3835 30.2478 20.0985 30.5675C18.7701 30.9233 17.403 31.1146 16.0279 31.1371H0.96814V0.00331061H15.7501ZM14.8471 12.6458C15.9282 12.6966 16.9978 12.4049 17.9035 11.8122C18.2976 11.4712 18.6051 11.0415 18.8007 10.5584C18.9963 10.0754 19.0745 9.55279 19.0288 9.03364C19.0492 8.41461 18.9355 7.79849 18.6954 7.22757C18.452 6.77691 18.1042 6.39105 17.6812 6.10225C17.2126 5.80224 16.7023 5.57287 16.1669 5.42151C15.57 5.32473 14.965 5.2875 14.3608 5.31036H7.83119V12.6458H14.8471ZM15.1805 25.969C15.8313 25.9444 16.4781 25.856 17.1116 25.705C17.6831 25.5972 18.2238 25.3647 18.6954 25.0243C19.1528 24.6953 19.5362 24.2741 19.8207 23.7878C20.1177 23.1646 20.2922 22.4902 20.3347 21.8011C20.3804 21.1508 20.2793 20.4984 20.0388 19.8924C19.7983 19.2864 19.4247 18.7422 18.9454 18.3001C17.882 17.582 16.6151 17.2264 15.3333 17.286H7.83119V25.9829L15.1805 25.969ZM37.0061 25.8578C37.5582 26.3483 38.2026 26.7237 38.9015 26.9623C39.6005 27.2008 40.3399 27.2976 41.0767 27.2471C42.2326 27.2593 43.3687 26.9464 44.3554 26.3441C45.0946 25.846 45.6698 25.1402 46.0086 24.3157H51.5658C50.8998 26.6726 49.4675 28.7404 47.4952 30.1924C45.5319 31.4086 43.2608 32.0354 40.9517 31.9985C39.2933 32.0028 37.6487 31.6965 36.1031 31.0954C34.7127 30.5764 33.472 29.7222 32.4909 28.6086C31.4412 27.5728 30.6634 26.2939 30.2264 24.8853C29.6632 23.3325 29.3947 21.6881 29.4345 20.0367C29.4036 18.4222 29.6721 16.816 30.2264 15.2993C30.7724 13.8843 31.5782 12.5838 32.6021 11.4649C33.6348 10.4112 34.8613 9.56678 36.2142 8.97807C37.721 8.37652 39.3293 8.06996 40.9517 8.07504C42.7141 8.01852 44.4624 8.40545 46.0364 9.20035C47.4298 9.89 48.625 10.9226 49.5096 12.2012C50.4307 13.503 51.1172 14.9559 51.538 16.4941C51.7866 18.1395 51.8611 19.8066 51.7603 21.4677H35.3945C35.3673 23.0805 35.9418 24.6457 37.0061 25.8578ZM44.1192 14.0073C43.1601 13.1509 41.9024 12.7067 40.6182 12.7708C39.7556 12.7584 38.9026 12.9538 38.1314 13.3404C37.537 13.6595 37.0014 14.0777 36.5476 14.5769C36.1311 15.0136 35.8552 15.5654 35.7557 16.1606C35.6346 16.6433 35.5602 17.1364 35.5335 17.6333H45.6891C45.5835 16.2783 45.0201 14.9996 44.0914 14.0073H44.1192ZM60.6239 0.00331061V11.8122C61.3178 10.5869 62.3833 9.61381 63.6664 9.03364C64.7894 8.47075 66.0227 8.16242 67.2785 8.1306C68.6677 8.07652 70.0532 8.30822 71.3491 8.81135C72.3305 9.22354 73.1876 9.88432 73.8359 10.7286C74.4477 11.6089 74.8689 12.6074 75.0724 13.6599C75.3299 14.8802 75.4695 16.1224 75.4892 17.3693V31.2621H69.2791V18.5224C69.3656 17.0767 69.0532 15.6349 68.3761 14.3546C68.0382 13.8734 67.5782 13.4911 67.0434 13.2469C66.5086 13.0027 65.9184 12.9055 65.3335 12.9653C64.6583 12.9114 63.9797 13.0166 63.3525 13.2723C62.7252 13.5281 62.1665 13.9273 61.7214 14.4379C60.8428 15.9447 60.4589 17.6891 60.6239 19.4255V31.2621H54.3721V0.00331061H60.6239ZM80.0043 11.965C80.6591 11.0089 81.5061 10.1998 82.4912 9.58935C83.5456 8.99393 84.6908 8.57619 85.881 8.35289C87.1096 8.13043 88.3557 8.01884 89.6043 8.01946C90.7296 8.01946 91.8688 8.13061 93.1053 8.24175C94.2062 8.35323 95.2786 8.65898 96.2728 9.14478C97.2037 9.58938 98.0173 10.246 98.6485 11.062C99.2707 12.0388 99.5764 13.1838 99.5238 14.3407V26.1913C99.5375 27.172 99.6117 28.151 99.746 29.1226C99.8359 29.8909 100.113 30.6254 100.552 31.2621H94.2306C94.0109 30.9585 93.855 30.6135 93.7721 30.248C93.6797 29.8804 93.6422 29.5012 93.661 29.1226C92.6823 30.1061 91.4816 30.8399 90.16 31.2621C88.8433 31.673 87.4683 31.8654 86.0894 31.8317C85.0565 31.8533 84.0275 31.6982 83.0469 31.3733C82.1468 31.1232 81.3027 30.7036 80.5601 30.1368C79.8501 29.5516 79.2724 28.8224 78.8651 27.9973C78.4828 27.0288 78.2894 25.996 78.2955 24.9548C78.2539 23.8586 78.488 22.7695 78.9763 21.7872C79.4148 21.0148 79.9889 20.3277 80.6712 19.7589C81.4327 19.2497 82.2729 18.8695 83.158 18.6336C84.0702 18.3808 84.9985 18.1905 85.9366 18.064L88.7151 17.7305C89.6413 17.6194 90.4332 17.5082 91.0908 17.3971C91.6943 17.2249 92.2664 16.9576 92.7857 16.6052C92.999 16.4292 93.1635 16.2013 93.2633 15.9434C93.363 15.6855 93.3947 15.4063 93.3553 15.1326C93.3921 14.584 93.2767 14.036 93.0219 13.5488C92.7801 13.1939 92.4737 12.8876 92.1189 12.6458C91.7346 12.4263 91.3169 12.2714 90.8824 12.1873C90.3605 12.0899 89.8291 12.0526 89.2986 12.0762C88.3077 12.0004 87.3222 12.2812 86.5201 12.8681C85.7827 13.538 85.3385 14.4712 85.2836 15.466H78.9902C79.0002 14.228 79.3511 13.0167 80.0043 11.965ZM92.3134 20.7731C91.9799 20.8842 91.5215 20.9954 91.0769 21.1065C90.6323 21.2176 90.1739 21.2176 89.6043 21.3288C89.0347 21.4399 88.5901 21.4399 88.1316 21.5511L86.7424 21.8845C86.3269 21.9812 85.9409 22.1765 85.617 22.4541C85.2957 22.6995 85.0265 23.0065 84.8251 23.3571C84.5434 23.7931 84.4252 24.3149 84.4917 24.8298C84.4595 25.316 84.5757 25.8005 84.8251 26.219C85.0335 26.561 85.3074 26.8584 85.6309 27.0943C86.0152 27.3138 86.4329 27.4686 86.8674 27.5528C87.3518 27.6507 87.8464 27.6881 88.34 27.6639C89.321 27.7013 90.2969 27.5061 91.1881 27.0943C91.7545 26.7181 92.2292 26.2196 92.5773 25.6355C92.9167 25.1323 93.1136 24.5467 93.1469 23.9406C93.2339 23.4829 93.2711 23.0171 93.2581 22.5513V20.1479C92.9703 20.3946 92.653 20.6046 92.3134 20.7731ZM108.901 8.58907V11.8122H109.013C109.706 10.5869 110.772 9.61381 112.055 9.03364C113.256 8.46888 114.562 8.16129 115.889 8.1306C117.279 8.07652 118.664 8.30822 119.96 8.81135C120.959 9.19313 121.824 9.85977 122.447 10.7286C123.065 11.6243 123.534 12.6143 123.836 13.6599C124.056 14.8838 124.159 16.1259 124.142 17.3693V31.2621H117.932V18.5224C118.018 17.0767 117.706 15.6349 117.029 14.3546C116.68 13.8491 116.202 13.446 115.645 13.1871C115.088 12.9282 114.472 12.8228 113.861 12.8819C113.152 12.8553 112.447 12.9961 111.802 13.293C111.158 13.5899 110.592 14.0345 110.152 14.5908C109.266 16.0904 108.873 17.8297 109.026 19.5644V31.415H102.802V8.58907H108.901ZM138.035 12.6458C137.156 12.6125 136.287 12.8502 135.548 13.3265C134.846 13.784 134.265 14.4034 133.853 15.1326C133.417 15.8665 133.112 16.6702 132.95 17.5083C132.76 18.3746 132.686 19.2621 132.728 20.1479C132.745 20.9809 132.82 21.8117 132.95 22.6347C133.111 23.438 133.417 24.2053 133.853 24.8992C134.258 25.5673 134.798 26.1444 135.437 26.5942C136.176 27.0705 137.044 27.3081 137.923 27.2749C139.205 27.3188 140.455 26.8772 141.424 26.0384C142.311 25.125 142.834 23.92 142.897 22.6486H148.885C148.658 25.3292 147.404 27.8183 145.384 29.595C143.262 31.2446 140.623 32.0866 137.937 31.9707C136.351 31.9762 134.779 31.6693 133.311 31.0676C131.949 30.5465 130.717 29.736 129.699 28.692C128.659 27.6195 127.847 26.3484 127.309 24.9548C126.756 23.4765 126.487 21.9068 126.517 20.3285C126.476 18.6725 126.744 17.0233 127.309 15.466C127.817 14.0234 128.584 12.6861 129.574 11.5205C130.602 10.4332 131.828 9.55148 133.186 8.92249C134.732 8.32141 136.376 8.01512 138.035 8.01946C139.333 8.03487 140.623 8.22649 141.869 8.58907C143.051 8.90804 144.163 9.44519 145.148 10.1728C146.174 10.8703 146.994 11.8297 147.523 12.9514C148.125 14.1449 148.471 15.451 148.538 16.7858H142.439C142.471 16.2107 142.377 15.6354 142.163 15.1004C141.95 14.5654 141.622 14.0837 141.202 13.6891C140.782 13.2945 140.281 12.9967 139.734 12.8164C139.187 12.6362 138.607 12.5779 138.035 12.6458ZM34.1581 2.1428H46.8005V5.18533H34.1581V2.1428ZM158.249 25.8578C159.372 26.8351 160.833 27.3338 162.319 27.2471C163.475 27.2593 164.611 26.9464 165.598 26.3441C166.347 25.8501 166.933 25.1439 167.279 24.3157H172.697C172.031 26.6726 170.599 28.7404 168.627 30.1924C166.647 31.4017 164.36 32.0143 162.041 31.9568C160.383 31.9611 158.738 31.6548 157.193 31.0537C155.829 30.4946 154.599 29.6518 153.586 28.5811C152.573 27.5104 151.799 26.2364 151.316 24.8437C150.753 23.2908 150.484 21.6464 150.524 19.9951C150.493 18.3806 150.762 16.7743 151.316 15.2576C151.865 13.8366 152.675 12.5312 153.706 11.4093C154.738 10.3556 155.965 9.51121 157.318 8.92249C158.828 8.33153 160.434 8.02536 162.055 8.01946C163.783 7.94884 165.499 8.33711 167.029 9.14478C168.437 9.84216 169.643 10.8898 170.53 12.1873C171.451 13.4891 172.137 14.942 172.558 16.4802C173.001 18.1364 173.156 19.8563 173.017 21.5649H156.665C156.646 23.1421 157.21 24.6707 158.249 25.8578ZM165.473 14.0073C164.514 13.1509 163.256 12.7067 161.972 12.7708C161.109 12.7584 160.256 12.9538 159.485 13.3404C158.86 13.6301 158.309 14.0576 157.874 14.5908C157.499 15.0559 157.229 15.596 157.082 16.1745C156.961 16.6572 156.886 17.1503 156.859 17.6472H167.015C166.809 16.3262 166.263 15.0814 165.431 14.035L165.473 14.0073Z" fill="#FAFAFA"/>
</svg>
