<svg width="176" height="32" viewBox="0 0 176 32" fill="none" xmlns="http://www.w3.org/2000/svg">
<path d="M41.8848 0C41.6259 0 41.367 0.0767126 41.1163 0.232872L26.4907 9.98187C26.305 10.1093 26.1528 10.2797 26.0471 10.4786C25.9415 10.6775 25.8855 10.8991 25.8839 11.1243V20.8747C25.8839 21.3212 26.1168 21.7678 26.4907 22.0171L41.1149 31.7688C41.6149 32.0757 42.1478 32.0784 42.6505 31.7688L57.276 22.0157C57.4616 21.8885 57.6137 21.7182 57.7193 21.5196C57.825 21.3209 57.8811 21.0997 57.8829 20.8747V11.1257C57.8829 10.6791 57.65 10.2339 57.276 9.98324L42.6519 0.232872C42.423 0.0850037 42.1572 0.00431986 41.8848 0ZM40.5081 3.94508V10.3558L34.5439 14.3393L29.7399 11.1243L40.5081 3.94508ZM43.2587 3.94508L54.0255 11.1229L49.2229 14.3393L43.2587 10.3572V3.94508ZM67.0922 5.23819C66.2511 5.23819 65.5689 5.92173 65.5676 6.7628V25.3238C65.5676 26.1649 66.2497 26.8471 67.0922 26.8471H73.718C79.7808 26.8471 84.519 22.1103 84.519 16.0474V16.0392C84.519 9.97639 79.7822 5.23819 73.718 5.23819H67.0922ZM159.812 5.23819C159.059 5.2738 158.344 5.85872 158.343 6.7628V25.3238C158.355 25.7201 158.52 26.0962 158.805 26.3722C159.089 26.6483 159.47 26.8028 159.867 26.8028C160.263 26.8028 160.644 26.6483 160.928 26.3722C161.213 26.0962 161.379 25.7201 161.391 25.3238V11.1695L173.246 26.2649C174.139 27.4019 175.967 26.7704 175.968 25.3238V6.7628C175.956 6.36654 175.79 5.99049 175.506 5.71439C175.221 5.4383 174.841 5.28388 174.444 5.28388C174.048 5.28388 173.667 5.4383 173.382 5.71439C173.098 5.99049 172.932 6.36654 172.92 6.7628V20.9158L161.064 5.82036C160.918 5.62915 160.728 5.47635 160.51 5.37517C160.291 5.27398 160.051 5.22744 159.811 5.23956L159.812 5.23819ZM11.4309 5.24503C5.36949 5.24503 0.631287 9.98462 0.631287 16.0474C0.631287 22.1103 5.36812 26.8471 11.4323 26.8471C14.4884 26.8471 17.1308 25.6033 19.0923 23.7924C19.2437 23.6577 19.3668 23.4943 19.4543 23.3115C19.5418 23.1287 19.592 22.9304 19.6019 22.728C19.6119 22.5256 19.5814 22.3233 19.5123 22.1328C19.4431 21.9423 19.3367 21.7676 19.1992 21.6187C19.0617 21.4699 18.896 21.3499 18.7116 21.2659C18.5272 21.1818 18.3279 21.1354 18.1254 21.1292C17.9229 21.1231 17.7211 21.1574 17.532 21.2301C17.3429 21.3028 17.1702 21.4125 17.0239 21.5527C15.5404 22.9226 13.6761 23.7992 11.4309 23.7992C6.89273 23.7992 3.67776 20.5856 3.67776 16.0461C3.67776 11.5078 6.89273 8.29288 11.4309 8.29288C13.7268 8.29288 15.5335 9.0504 16.9801 10.4983C17.2684 10.772 17.6523 10.9223 18.0498 10.917C18.4473 10.9118 18.8271 10.7515 19.1081 10.4703C19.3892 10.1891 19.5492 9.80919 19.5542 9.41166C19.5592 9.01412 19.4087 8.63036 19.1348 8.3422C17.1362 6.34226 14.4377 5.24641 11.4323 5.24641L11.4309 5.24503ZM92.2722 5.24503C91.4311 5.24503 90.7489 5.92721 90.7476 6.76965V25.3307C90.7476 26.1718 91.4297 26.8539 92.2722 26.8539H104.199C104.595 26.8421 104.971 26.6763 105.248 26.3918C105.524 26.1073 105.678 25.7264 105.678 25.33C105.678 24.9336 105.524 24.5527 105.248 24.2682C104.971 23.9837 104.595 23.818 104.199 23.8061H93.7954V17.5775H100.223C100.427 17.5836 100.63 17.5487 100.82 17.4749C101.01 17.4011 101.184 17.2898 101.33 17.1477C101.477 17.0056 101.593 16.8355 101.672 16.6476C101.752 16.4596 101.793 16.2577 101.793 16.0536C101.793 15.8495 101.752 15.6476 101.672 15.4596C101.593 15.2717 101.477 15.1016 101.33 14.9595C101.184 14.8174 101.01 14.7061 100.82 14.6323C100.63 14.5584 100.427 14.5236 100.223 14.5297H93.7954V8.29425H104.199C104.604 8.29425 104.991 8.13363 105.277 7.84771C105.563 7.56179 105.724 7.174 105.724 6.76965C105.724 6.3653 105.563 5.97751 105.277 5.69159C104.991 5.40567 104.604 5.24503 104.199 5.24503H92.2722ZM114.8 5.24503C113.959 5.24503 113.277 5.92721 113.277 6.76965V25.3307C113.277 25.735 113.438 26.1228 113.724 26.4087C114.009 26.6947 114.397 26.8553 114.802 26.8553C115.206 26.8553 115.594 26.6947 115.88 26.4087C116.166 26.1228 116.326 25.735 116.326 25.3307V18.8953H122.747C126.493 18.8953 129.571 15.8173 129.571 12.0708C129.571 8.32302 126.493 5.24503 122.747 5.24503H114.8ZM137.338 5.24503C136.497 5.24503 135.815 5.92721 135.815 6.76965V16.0351C135.812 16.0414 135.809 16.0478 135.806 16.0543L135.815 16.0721V25.3307C135.815 26.1718 136.497 26.8539 137.338 26.8539H149.251C149.647 26.8421 150.023 26.6763 150.3 26.3918C150.576 26.1073 150.73 25.7264 150.73 25.33C150.73 24.9336 150.576 24.5527 150.3 24.2682C150.023 23.9837 149.647 23.818 149.251 23.8061H138.861V17.5775H145.276C145.672 17.5656 146.048 17.3999 146.324 17.1154C146.6 16.8309 146.755 16.45 146.755 16.0536C146.755 15.6572 146.6 15.2763 146.324 14.9918C146.048 14.7073 145.672 14.5415 145.276 14.5297H138.861V8.29425H149.265C149.669 8.29425 150.057 8.13363 150.343 7.84771C150.629 7.56179 150.789 7.174 150.789 6.76965C150.789 6.3653 150.629 5.97751 150.343 5.69159C150.057 5.40567 149.669 5.24503 149.265 5.24503H137.338ZM68.6154 8.28603H73.7166C78.2562 8.28603 81.4698 11.4996 81.4698 16.0392V16.0474C81.4698 20.5856 78.2562 23.7992 73.7166 23.7992H68.6154V8.28603ZM116.325 8.29562H122.745C123.729 8.32213 124.664 8.73165 125.351 9.43701C126.037 10.1424 126.421 11.0879 126.421 12.0722C126.421 13.0566 126.037 14.0021 125.351 14.7074C124.664 15.4128 123.729 15.8223 122.745 15.8488H116.326L116.325 8.29562ZM41.882 12.7503L46.7394 15.9995L41.882 19.2487L37.0246 15.9995L41.882 12.7503ZM28.6318 13.6955L32.0782 15.9995L28.6318 18.3008V13.6955ZM55.1323 13.6955V18.3035L51.6858 15.9995L55.1323 13.6955ZM34.5425 17.6611L40.5067 21.6431V28.0539L29.7399 20.876L34.5425 17.6611ZM49.2215 17.6611L54.0255 20.8747L43.2573 28.0525V21.6418L49.2215 17.6611Z" fill="#142034"/>
</svg>
