<svg width="124" height="124" viewBox="0 0 124 124" fill="none" xmlns="http://www.w3.org/2000/svg">
<rect width="124" height="124" rx="12" fill="#142034"/>
<path d="M27.4751 22.625L33.7595 93.1769L61.9582 101.039L90.2357 93.1481L96.5251 22.625H27.4751ZM83.4695 38.7887L81.3776 62.2919L81.3838 62.4187L81.3751 62.7106V62.7081L79.8888 79.1419L79.7251 80.6019L62.0001 85.5044L61.9863 85.5169L44.292 80.5869L43.0938 67H51.7707L52.3863 73.9088L62.0026 76.515L62.0001 76.52V76.5188L71.652 73.8756L72.672 62.625H52.4951L52.322 60.7231L51.9276 56.2675L51.7207 53.875H73.4388L74.2288 45.125H41.1501L40.977 43.2244L40.5832 38.7675L40.3757 36.375H83.6763L83.4695 38.7887Z" fill="#1572B6"/>
</svg>
