<svg width="124" height="124" viewBox="0 0 124 124" fill="none" xmlns="http://www.w3.org/2000/svg">
<rect width="124" height="124" rx="12" fill="#FAFAFA"/>
<path d="M27.4746 22.625L33.759 93.1769L61.9577 101.039L90.2352 93.1481L96.5246 22.625H27.4746ZM83.469 38.7887L81.3771 62.2919L81.3834 62.4187L81.3746 62.7106V62.7081L79.8884 79.1419L79.7246 80.6019L61.9996 85.5044L61.9859 85.5169L44.2915 80.5869L43.0934 67H51.7702L52.3859 73.9088L62.0021 76.515L61.9996 76.52V76.5188L71.6515 73.8756L72.6715 62.625H52.4946L52.3215 60.7231L51.9271 56.2675L51.7202 53.875H73.4384L74.2284 45.125H41.1496L40.9765 43.2244L40.5827 38.7675L40.3752 36.375H83.6759L83.469 38.7887Z" fill="#1572B6"/>
</svg>
