<svg width="124" height="124" viewBox="0 0 124 124" fill="none" xmlns="http://www.w3.org/2000/svg">
<rect width="124" height="124" rx="12" fill="#142034"/>
<g clip-path="url(#clip0_71_100)">
<path d="M50.4375 102.625C57.875 102.625 63.875 96.625 63.875 89.1875V75.75H50.4375C43 75.75 37 81.75 37 89.1875C37 96.625 43 102.625 50.4375 102.625Z" fill="#0ACF83"/>
<path d="M37 62.3125C37 54.875 43 48.875 50.4375 48.875H63.875V75.75H50.4375C43 75.75 37 69.75 37 62.3125Z" fill="#A259FF"/>
<path d="M37 35.4375C37 28 43 22 50.4375 22H63.875V48.875H50.4375C43 48.875 37 42.875 37 35.4375Z" fill="#F24E1E"/>
<path d="M63.875 22H77.3125C84.75 22 90.75 28 90.75 35.4375C90.75 42.875 84.75 48.875 77.3125 48.875H63.875V22Z" fill="#FF7262"/>
<path d="M90.75 62.3125C90.75 69.75 84.75 75.75 77.3125 75.75C69.875 75.75 63.875 69.75 63.875 62.3125C63.875 54.875 69.875 48.875 77.3125 48.875C84.75 48.875 90.75 54.875 90.75 62.3125Z" fill="#1ABCFE"/>
</g>
<defs>
<clipPath id="clip0_71_100">
<rect width="80" height="80" fill="white" transform="translate(22 22)"/>
</clipPath>
</defs>
</svg>
