<svg width="124" height="124" viewBox="0 0 124 124" fill="none" xmlns="http://www.w3.org/2000/svg">
<rect width="124" height="124" rx="12" fill="#142034"/>
<g clip-path="url(#clip0_71_223)">
<path d="M99.9638 58.4863L65.5157 24.0401C63.5332 22.0563 60.3157 22.0563 58.3301 24.0401L51.1782 31.1938L60.2519 40.2676C62.3613 39.5557 64.7788 40.0332 66.4594 41.7138C67.2604 42.5154 67.8195 43.5263 68.073 44.6308C68.3264 45.7353 68.2639 46.8888 67.8926 47.9594L76.6376 56.7057C78.7532 55.9763 81.1951 56.4476 82.8838 58.1401C85.2463 60.5007 85.2463 64.3276 82.8838 66.6894C82.3224 67.2511 81.6558 67.6967 80.9221 68.0007C80.1884 68.3047 79.402 68.4612 78.6079 68.4612C77.8137 68.4612 77.0273 68.3047 76.2936 68.0007C75.5599 67.6967 74.8934 67.2511 74.3319 66.6894C73.4884 65.8454 72.9134 64.7707 72.6793 63.6007C72.4452 62.4306 72.5625 61.2174 73.0163 60.1138L64.8613 51.9582L64.8601 73.4213C65.4517 73.7127 65.9919 74.0986 66.4594 74.5638C68.8213 76.9244 68.8213 80.7501 66.4594 83.1157C64.0976 85.4763 60.2694 85.4763 57.9101 83.1157C55.5488 80.7507 55.3551 76.9251 57.7157 74.5638C58.2994 73.9807 58.8751 73.5401 59.5001 73.2451V51.5832C58.8751 51.2882 58.3001 50.8507 57.7151 50.2638C55.9269 48.4763 55.5926 45.8513 56.5101 43.6538L47.6144 34.7082L24.0182 58.3269C22.0338 60.3126 22.0463 63.5301 24.0307 65.5144L58.4844 99.9607C60.4676 101.944 63.6876 101.944 65.6738 99.9607L99.9613 65.6744C101.946 63.6894 101.948 60.4701 99.9638 58.4863Z" fill="#F34F29"/>
</g>
<defs>
<clipPath id="clip0_71_223">
<rect width="80" height="80" fill="white" transform="translate(22 22)"/>
</clipPath>
</defs>
</svg>
