<svg width="124" height="124" viewBox="0 0 124 124" fill="none" xmlns="http://www.w3.org/2000/svg">
<rect width="124" height="124" rx="12" fill="#FAFAFA"/>
<g clip-path="url(#clip0_71_156)">
<path d="M99.4169 42.8399C99.2817 42.4952 99.0307 42.2084 98.7071 42.0286C98.3834 41.8489 98.0073 41.7874 97.6432 41.8549C97.2792 41.9223 96.95 42.1144 96.7122 42.3982C96.4744 42.682 96.3429 43.0397 96.3402 43.4099C96.3402 43.5866 96.3835 43.8066 96.4269 43.9799C103.594 63.0133 93.9235 84.2366 74.8935 91.3999C72.2845 92.3824 69.5711 93.0613 66.8069 93.4232V76.2399C67.9069 76.0199 68.9602 75.7133 70.0135 75.3599V89.8199C88.1635 85.3799 99.3269 67.0966 94.8902 48.9466C93.7832 44.3943 91.7426 40.1216 88.8977 36.3993C86.0528 32.6771 82.4656 29.5864 78.3635 27.3233C78.182 27.2209 77.9819 27.1557 77.775 27.1314C77.568 27.107 77.3583 27.124 77.1579 27.1814C76.9576 27.2388 76.7706 27.3354 76.608 27.4656C76.4453 27.5958 76.3101 27.757 76.2102 27.9399C76.1079 28.1215 76.0427 28.3215 76.0183 28.5285C75.9939 28.7354 76.0109 28.9452 76.0683 29.1455C76.1257 29.3458 76.2223 29.5328 76.3525 29.6955C76.4827 29.8582 76.644 29.9934 76.8269 30.0933C91.6369 38.2666 96.9969 56.9466 88.8269 71.7566C85.3866 77.9987 79.8645 82.8354 73.2235 85.4233V72.6366C74.2147 72.323 75.0807 71.7027 75.6965 70.8652C76.3124 70.0277 76.6463 69.0162 76.6502 67.9766C76.6502 66.2199 75.7702 64.6366 74.2335 63.7566C75.3769 52.7266 80.4302 55.6266 80.4302 52.1133V50.0466C80.4302 44.7733 68.2135 27.5899 62.4969 27.1933H61.4435C55.7302 27.5899 43.5135 44.7733 43.5135 50.0466V52.1133C43.5135 55.6266 48.5235 52.7266 49.7102 63.7566C48.9729 64.1865 48.3616 64.8027 47.9374 65.5434C47.5133 66.284 47.2912 67.1231 47.2935 67.9766C47.2935 70.1299 48.7002 71.9766 50.7202 72.6366V85.4233C35.0335 79.2266 27.3002 61.4333 33.4935 45.6999C36.1087 39.0764 40.9382 33.5637 47.1602 30.0999C47.347 29.9978 47.5115 29.8594 47.644 29.6928C47.7765 29.5262 47.8744 29.3348 47.9319 29.1298C47.9893 28.9248 48.0052 28.7104 47.9786 28.4992C47.952 28.288 47.8834 28.0842 47.7769 27.8999C47.6316 27.6571 47.4254 27.4564 47.1786 27.3178C46.9319 27.1792 46.6532 27.1076 46.3702 27.1099C46.1064 27.1143 45.8487 27.1891 45.6235 27.3266C41.731 29.4709 38.2994 32.3616 35.5251 35.8333C32.7508 39.3051 30.6882 43.2898 29.4554 47.5595C28.2226 51.8292 27.8437 56.3 28.3404 60.7162C28.8371 65.1325 30.1997 69.4075 32.3502 73.2966C34.6133 77.3987 37.704 80.9858 41.4263 83.8307C45.1485 86.6757 49.4212 88.7163 53.9735 89.8232V75.3999C55.0269 75.7533 56.0835 76.0599 57.1802 76.2799V93.4632C37.0102 90.7866 22.8569 72.2833 25.5402 52.1133C25.9011 49.3491 26.5789 46.6357 27.5602 44.0266C27.7039 43.6296 27.688 43.1923 27.5157 42.8068C27.3435 42.4214 27.0284 42.1177 26.6369 41.9599C26.2396 41.8205 25.8041 41.8385 25.4197 42.0102C25.0353 42.1819 24.7313 42.4943 24.5702 42.8833C16.7935 63.5833 27.2535 86.6532 47.9535 94.3899C51.9535 95.8832 56.1269 96.7199 60.3869 96.8933V76.5933C60.9602 76.6333 62.0169 76.6333 62.0169 76.6333C62.0169 76.6333 63.0702 76.6333 63.6435 76.5899V96.8499C85.7469 95.9266 102.887 77.2933 101.964 55.1866C101.748 50.9654 100.889 46.8019 99.4169 42.8399V42.8399ZM69.3535 65.6466C69.9742 65.0339 70.8113 64.6903 71.6835 64.6903C72.5557 64.6903 73.3928 65.0339 74.0135 65.6466C74.6262 66.2673 74.9698 67.1044 74.9698 67.9766C74.9698 68.8488 74.6262 69.6859 74.0135 70.3066C73.3928 70.9193 72.5557 71.2629 71.6835 71.2629C70.8113 71.2629 69.9742 70.9193 69.3535 70.3066C69.0473 70.0007 68.8044 69.6375 68.6387 69.2377C68.473 68.8379 68.3877 68.4094 68.3877 67.9766C68.3877 67.5438 68.473 67.1153 68.6387 66.7155C68.8044 66.3157 69.0473 65.9524 69.3535 65.6466V65.6466ZM54.5869 70.3066C53.9749 70.9181 53.1453 71.2615 52.2802 71.2615C51.4151 71.2615 50.5854 70.9181 49.9735 70.3066C49.3608 69.6859 49.0172 68.8488 49.0172 67.9766C49.0172 67.1044 49.3608 66.2673 49.9735 65.6466C50.5942 65.0339 51.4313 64.6903 52.3035 64.6903C53.1757 64.6903 54.0128 65.0339 54.6335 65.6466C54.9389 65.9542 55.1802 66.3193 55.3435 66.7208C55.5068 67.1223 55.5888 67.5522 55.5847 67.9856C55.5807 68.4191 55.4907 68.8474 55.32 69.2458C55.1493 69.6442 54.9012 70.0047 54.5902 70.3066H54.5869Z" fill="#00CC90"/>
</g>
<defs>
<clipPath id="clip0_71_156">
<rect width="80" height="80" fill="white" transform="translate(22 22)"/>
</clipPath>
</defs>
</svg>
