<svg width="124" height="124" viewBox="0 0 124 124" fill="none" xmlns="http://www.w3.org/2000/svg">
<rect width="124" height="124" rx="12" fill="#142034"/>
<path d="M27.645 23.25L33.8981 93.3081L61.9581 101.059L90.0957 93.3169L96.355 23.25H27.645ZM83.3488 39.8369L82.9569 44.3194L82.7844 46.375H49.8688L50.6544 55.125H82.0019L81.7919 57.2944L79.7713 79.8687L79.6225 81.2875L62 86.1306V86.1319L61.9788 86.1431L44.3681 81.5038L43.1725 68.25H51.8069L52.4188 75.0744L61.9731 77.625H62V77.2838L71.5969 74.8619L72.5994 63.875H42.7881L40.6738 40.0519L40.4681 37.625H83.555L83.3488 39.8369Z" fill="#E44D26"/>
</svg>
