<svg width="124" height="124" viewBox="0 0 124 124" fill="none" xmlns="http://www.w3.org/2000/svg">
<rect width="124" height="124" rx="12" fill="#142034"/>
<g clip-path="url(#clip0_71_134)">
<path fill-rule="evenodd" clip-rule="evenodd" d="M51.972 65.125H61.5789C59.9251 59.5 58.2964 54.3 56.6939 49.015C55.1389 54.3187 53.5614 59.5 51.972 65.125ZM99.5701 22.625H23.7957C22.4295 22.625 22.6251 22.9225 22.6251 24.2406V100.112C22.6251 101.429 22.4295 101.375 23.6995 101.375H99.6664C100.936 101.375 101.375 101.429 101.375 100.111V24.3369C101.375 22.9225 100.936 22.625 99.5701 22.625ZM70.3114 82C69.2882 82 68.2614 81.9169 67.2432 81.99C66.5089 82.045 66.2632 81.7362 66.0676 81.0987C65.1214 78.0169 64.1157 74.9362 63.1689 71.855C62.9782 71.235 62.7057 71.0088 62.0339 71.0169C58.582 71.0569 55.1282 71.0531 51.6757 71.0125C50.9489 71.0037 50.6145 71.1975 50.407 71.9188C49.5282 74.9838 48.567 78.0238 47.6789 81.0856C47.4864 81.7494 47.1939 81.9813 46.4889 81.9631C44.4151 81.9113 42.3382 81.9431 40.0676 81.9431C40.667 80.04 41.2107 78.28 41.7732 76.5275C45.2195 65.7775 48.6776 55.0275 52.0989 44.2706C52.3376 43.5219 52.6695 43.2912 53.4382 43.3081C55.867 43.3619 58.2976 43.3219 60.7276 43.3081C61.182 43.305 61.492 43.3319 61.6582 43.8481C65.7239 56.4206 69.8039 69.0706 73.8801 81.6419C73.8976 81.6988 73.8864 82 73.8957 82H70.3114ZM83.2501 82H75.7501V53.875H83.2501V82ZM79.2814 50.0806C76.9907 50.0775 75.3507 48.5006 75.3351 46.2869C75.3201 44.0794 77.027 42.4375 79.3389 42.435C81.6689 42.4325 83.3107 44.0206 83.3289 46.2919C83.3451 48.5075 81.662 50.0844 79.2814 50.0806Z" fill="#FAA625"/>
</g>
<defs>
<clipPath id="clip0_71_134">
<rect width="80" height="80" fill="white" transform="translate(22 22)"/>
</clipPath>
</defs>
</svg>
