<svg width="124" height="124" viewBox="0 0 124 124" fill="none" xmlns="http://www.w3.org/2000/svg">
<rect width="124" height="124" rx="12" fill="#FAFAFA"/>
<path d="M23.25 22.625V100.75H101.375V22.625H23.25ZM64.5744 89.1956C63.4213 91.5388 61.22 93.0781 58.6694 93.8213C54.75 94.7213 51.0012 94.2081 48.2125 92.5344C46.3462 91.3894 44.8888 89.6269 43.8994 87.5963L49.8494 83.9525C49.9012 83.9744 50.0575 84.2569 50.2663 84.6219C51.025 85.8931 51.6794 86.7931 52.9656 87.425C54.2294 87.8563 57.0038 88.1319 58.075 85.9081C58.7294 84.7769 58.5212 81.1406 58.5212 77.1175C58.5206 70.7956 58.55 64.5 58.55 58.25H65.8681C65.8681 65.125 65.9056 71.6363 65.8681 78.345C65.8838 82.4575 66.2406 86.1238 64.5744 89.1956ZM94.9331 87.1281C92.3894 95.8294 78.2069 96.1119 72.5394 90.3631C71.3419 89.01 70.5912 88.3031 69.8769 86.7412C72.8887 85.0087 72.8887 85.0087 75.8194 83.3131C77.4112 85.76 78.8831 87.1056 81.5312 87.6563C85.1238 88.095 88.7381 86.8606 87.9275 83.045C87.0944 79.9287 80.5713 79.1706 76.1319 75.8381C71.625 72.8112 70.5688 65.4562 74.2725 61.2537C75.5069 59.6994 77.6119 58.5394 79.8206 57.9819L82.1256 57.6838C86.5512 57.5944 89.3175 58.7631 91.3481 61.0306C91.9131 61.6031 92.3744 62.2206 93.2369 63.5588C90.8794 65.0613 90.8869 65.0469 87.51 67.2331C86.7888 65.6794 85.5919 64.7044 84.3269 64.2806C82.3631 63.6856 79.8869 64.3325 79.3731 66.4075C79.195 67.0469 79.2319 67.6419 79.515 68.6981C80.3106 70.5125 82.9806 71.3012 85.3756 72.4019C92.27 75.1981 94.5981 78.1963 95.1706 81.765C95.7219 84.8375 95.0375 86.8306 94.9331 87.1281Z" fill="#F0DB4F"/>
</svg>
