<svg width="127" height="32" viewBox="0 0 127 32" fill="none" xmlns="http://www.w3.org/2000/svg">
<path d="M0 4.73019H4.94V22.7102H14.08V27.2702H0V4.73019ZM16.26 12.0002H21V27.2602H16.26V12.0002ZM18.63 4.41019C19.1739 4.41019 19.7056 4.57147 20.1578 4.87365C20.6101 5.17582 20.9625 5.60531 21.1707 6.10781C21.3788 6.6103 21.4333 7.16324 21.3272 7.69669C21.2211 8.23013 20.9591 8.72013 20.5745 9.10473C20.1899 9.48932 19.6999 9.75124 19.1665 9.85735C18.6331 9.96345 18.0801 9.909 17.5776 9.70086C17.0751 9.49271 16.6456 9.14024 16.3435 8.688C16.0413 8.23577 15.88 7.70409 15.88 7.16019C15.88 6.43084 16.1697 5.73137 16.6855 5.21564C17.2012 4.69992 17.9007 4.41019 18.63 4.41019ZM40.84 4.73019H45.58V18.2002L50.96 11.9802H56.77L50.55 19.0502L56.64 27.2702H50.68L45.64 19.7202H45.58V27.2702H40.84V4.73019ZM23.63 12.0002H28.15V14.0902H28.21C28.6659 13.3117 29.324 12.6711 30.1145 12.2362C30.905 11.8014 31.7984 11.5885 32.7 11.6202C37.51 11.6202 38.39 14.7802 38.39 18.8902V27.2702H33.69V19.8402C33.69 18.0702 33.69 15.8402 31.22 15.8402C28.75 15.8402 28.37 17.7702 28.37 19.7602V27.3102H23.63V12.0002Z" fill="#FAFAFA"/>
<path d="M66.76 17.8502C66.7696 17.4654 66.7009 17.0827 66.5581 16.7253C66.4152 16.3679 66.2012 16.0433 65.9291 15.7711C65.6569 15.499 65.3323 15.285 64.9749 15.1421C64.6175 14.9993 64.2348 14.9306 63.85 14.9402C63.0212 14.8878 62.2052 15.1637 61.5783 15.7083C60.9514 16.2528 60.564 17.0223 60.5 17.8502H66.76ZM70.76 24.6202C69.9689 25.5683 68.9774 26.3291 67.8569 26.8478C66.7363 27.3666 65.5147 27.6304 64.28 27.6202C59.54 27.6202 55.74 24.4602 55.74 19.5502C55.74 14.6402 59.54 11.4902 64.28 11.4902C68.71 11.4902 71.49 14.6502 71.49 19.5502V21.0402H60.49C60.6206 21.8879 61.0546 22.6593 61.7112 23.2111C62.3679 23.7628 63.2025 24.0575 64.06 24.0402C64.7354 24.0392 65.3997 23.8672 65.9907 23.5402C66.5817 23.2133 67.0803 22.7419 67.44 22.1702L70.76 24.6202ZM81.38 15.6802C80.606 15.6563 79.8424 15.864 79.1871 16.2766C78.5318 16.6893 78.0146 17.2882 77.7017 17.9965C77.3888 18.7049 77.2944 19.4905 77.4307 20.2529C77.567 21.0152 77.9277 21.7195 78.4666 22.2756C79.0055 22.8317 79.6982 23.2142 80.4559 23.3743C81.2135 23.5344 82.0018 23.4647 82.7196 23.1741C83.4374 22.8836 84.0522 22.3854 84.4851 21.7433C84.9181 21.1013 85.1496 20.3446 85.15 19.5702C85.1924 19.0563 85.124 18.5393 84.9493 18.0542C84.7746 17.5691 84.4977 17.1272 84.1374 16.7583C83.7771 16.3895 83.3418 16.1023 82.8609 15.9163C82.38 15.7303 81.8647 15.6498 81.35 15.6802M89.55 27.2602H85.15V25.2602C84.6003 25.9933 83.89 26.5908 83.0735 27.0069C82.2571 27.4229 81.3562 27.6464 80.44 27.6602C75.88 27.6602 72.88 24.3702 72.88 19.7202C72.88 15.4502 75.54 11.5302 79.88 11.5302C80.7925 11.45 81.7109 11.5898 82.5583 11.9378C83.4056 12.2858 84.1572 12.8318 84.75 13.5302H84.81V4.73019H89.55V27.2602Z" fill="#FAFAFA"/>
<path fill-rule="evenodd" clip-rule="evenodd" d="M96.66 0.000194777H123.93C124.237 -0.00377022 124.542 0.0528355 124.828 0.166783C125.113 0.28073 125.373 0.449787 125.594 0.664295C125.814 0.878804 125.989 1.13456 126.11 1.41697C126.232 1.69938 126.296 2.0029 126.3 2.3102V29.6902C126.296 29.9975 126.232 30.301 126.11 30.5834C125.989 30.8658 125.814 31.1216 125.594 31.3361C125.373 31.5506 125.113 31.7197 124.828 31.8336C124.542 31.9476 124.237 32.0042 123.93 32.0002H96.66C96.0412 32.0055 95.4453 31.7655 95.003 31.3325C94.5607 30.8996 94.308 30.3091 94.3 29.6902V2.3102C94.308 1.69132 94.5607 1.10079 95.003 0.667858C95.4453 0.234925 96.0412 -0.00514573 96.66 0.000194777ZM103.79 12.0002H99.0401V27.2702H103.79V12.0002ZM102.938 4.87365C102.486 4.57147 101.954 4.41019 101.41 4.41019C100.681 4.41019 99.9813 4.69992 99.4655 5.21564C98.9498 5.73137 98.6601 6.43084 98.6601 7.16019C98.6601 7.70409 98.8214 8.23577 99.1236 8.688C99.4257 9.14024 99.8552 9.49271 100.358 9.70086C100.86 9.909 101.413 9.96346 101.947 9.85735C102.48 9.75124 102.97 9.48932 103.355 9.10473C103.739 8.72013 104.001 8.23013 104.107 7.69669C104.213 7.16324 104.159 6.6103 103.951 6.10781C103.743 5.60531 103.39 5.17582 102.938 4.87365ZM111.31 12.0002H106.76L106.75 27.3102H111.49V19.7602C111.49 17.7702 111.87 15.8402 114.34 15.8402C116.81 15.8402 116.81 18.0702 116.81 19.8402V27.2702H121.55V18.8902C121.55 14.7802 120.67 11.6202 115.86 11.6202C114.958 11.5885 114.065 11.8014 113.275 12.2362C112.484 12.6711 111.826 13.3117 111.37 14.0902H111.31V12.0002Z" fill="#FAFAFA"/>
</svg>
