<svg width="124" height="124" viewBox="0 0 124 124" fill="none" xmlns="http://www.w3.org/2000/svg">
<rect width="124" height="124" rx="12" fill="#FAFAFA"/>
<path d="M36.1669 23H87.8331C95.6669 23 102 29.3331 102 37.1669V86.8331C102 94.6669 95.6669 101 87.8331 101H36.1669C28.3331 101 22 94.6669 22 86.8331V37.1669C22 29.3331 28.3331 23 36.1669 23Z" fill="#001E36"/>
<path d="M50.6669 42.833C49.6669 42.833 48.6669 42.833 47.6338 42.8668C46.6 42.8999 45.6331 42.8999 44.7331 42.9336C43.8331 42.9668 43 42.9668 42.2 42.9999C41.4331 43.033 40.9 43.033 40.3331 43.033C40.1 43.033 40 43.1661 40 43.3999V77.6999C40 77.9999 40.1331 78.1336 40.4 78.1336H46.8669C47.1 78.0999 47.2669 77.8999 47.2331 77.6668V66.9668C47.8663 66.9668 48.3331 66.9668 48.6669 66.9999C49 67.033 49.5331 67.033 50.3331 67.033C53.0669 67.033 55.5669 66.733 57.8331 65.8999C60 65.0999 61.8669 63.6999 63.2 61.833C64.5331 59.9668 65.2 57.5999 65.2 54.733C65.2 53.233 64.9337 51.7999 64.4337 50.3999C63.9043 48.9734 63.0743 47.6774 62 46.5999C60.7324 45.3684 59.2065 44.4345 57.5331 43.8661C55.6663 43.1661 53.4 42.833 50.6669 42.833ZM51.4106 49.3986C52.5981 49.4211 53.7544 49.6286 54.8331 50.0661C55.8 50.433 56.6 51.0999 57.1669 51.9661C57.6992 52.8624 57.9652 53.8917 57.9338 54.9336C57.9338 56.3999 57.6 57.5336 56.9 58.3668C56.1663 59.1999 55.2331 59.8336 54.1669 60.1336C52.9331 60.5336 51.6331 60.733 50.3331 60.733H48.5663C48.1663 60.733 47.7337 60.6999 47.2669 60.6668V49.4668C47.5 49.433 47.9669 49.3999 48.6337 49.4336C49.2669 49.3999 50.0331 49.3999 50.9 49.3999C51.0706 49.3955 51.2412 49.3949 51.4106 49.3986ZM79.3669 51.1005C77 51.1005 75.0331 51.4668 73.4669 52.2668C72.0338 52.9336 70.8 53.9999 69.9669 55.333C69.2338 56.5668 68.8331 57.933 68.8331 59.3668C68.8046 60.546 69.068 61.714 69.6 62.7668C70.2236 63.8877 71.0891 64.8555 72.1337 65.5999C73.6002 66.6026 75.1914 67.4095 76.8669 67.9999C78.5 68.633 79.6 69.133 80.1338 69.5661C80.6669 69.9999 80.9338 70.433 80.9338 70.8999C80.9338 71.4999 80.5669 72.0668 80.0338 72.2999C79.4338 72.5999 78.5338 72.7668 77.2669 72.7668C75.9338 72.7668 74.6 72.5999 73.3331 72.2668C71.8786 71.9415 70.484 71.3905 69.2 70.6336C69.1 70.5668 69 70.5336 68.9 70.6005C68.8 70.6668 68.7669 70.7999 68.7669 70.8999V76.6999C68.7338 76.9668 68.9 77.1999 69.1338 77.333C70.2147 77.8381 71.3581 78.1968 72.5337 78.3999C74.0337 78.6999 75.5331 78.833 77.0663 78.833C79.4663 78.833 81.4669 78.4668 83.1 77.7668C84.6 77.1668 85.9 76.1336 86.8331 74.7999C87.7067 73.4885 88.1601 71.9422 88.1331 70.3668C88.1657 69.1766 87.9024 67.997 87.3669 66.9336C86.7331 65.7999 85.8331 64.8668 84.7331 64.1668C83.1238 63.1563 81.4009 62.3394 79.6 61.733C78.7957 61.4003 78.006 61.0333 77.2331 60.633C76.8 60.3999 76.4 60.0999 76.1 59.733C75.9 59.4661 75.7669 59.1668 75.7669 58.8668C75.7669 58.5668 75.8669 58.2336 76.0331 57.9668C76.2669 57.6336 76.6331 57.3999 77.0663 57.2999C77.7 57.1336 78.4 57.033 79.0663 57.0661C80.3331 57.0661 81.5662 57.233 82.8 57.4999C83.9337 57.733 85 58.0999 86 58.6336C86.1331 58.6999 86.3 58.6999 86.6 58.6336C86.6522 58.5952 86.6946 58.5449 86.7236 58.4868C86.7526 58.4288 86.7674 58.3647 86.7669 58.2999V52.8668C86.7669 52.733 86.7331 52.5999 86.7 52.4668C86.6331 52.3336 86.5 52.1999 86.3669 52.1668C85.4476 51.7908 84.4842 51.5331 83.5 51.3999C82.1313 51.2006 80.75 51.1009 79.3669 51.1005Z" fill="#31A8FF"/>
</svg>
