<svg width="124" height="124" viewBox="0 0 124 124" fill="none" xmlns="http://www.w3.org/2000/svg">
<rect width="124" height="124" rx="12" fill="#142034"/>
<path d="M62 69.125C65.935 69.125 69.125 65.935 69.125 62C69.125 58.065 65.935 54.875 62 54.875C58.065 54.875 54.875 58.065 54.875 62C54.875 65.935 58.065 69.125 62 69.125Z" fill="#61DAFB"/>
<path d="M89.0625 50.25C87.6875 49.75 86.25 49.25 84.75 48.8125C85.125 47.3125 85.4375 45.8125 85.6875 44.375C87 36.125 85.5625 30.3125 81.5625 28.0625C80.375 27.375 79.0625 27.0625 77.5625 27.0625C73.1875 27.0625 67.625 30.3125 62 35.75C56.375 30.3125 50.8125 27.0625 46.4375 27.0625C44.9375 27.0625 43.625 27.375 42.4375 28.0625C38.4375 30.375 37 36.1875 38.3125 44.375C38.5625 45.8125 38.875 47.3125 39.25 48.8125C37.75 49.25 36.3125 49.6875 34.9375 50.25C27.125 53.25 22.875 57.375 22.875 62C22.875 66.625 27.1875 70.75 34.9375 73.75C36.3125 74.25 37.75 74.75 39.25 75.1875C38.875 76.6875 38.5625 78.1875 38.3125 79.625C37 87.875 38.4375 93.6875 42.4375 95.9375C43.625 96.625 44.9375 96.9375 46.4375 96.9375C50.875 96.9375 56.4375 93.6875 62 88.25C67.625 93.6875 73.1875 96.9375 77.5625 96.9375C79.0625 96.9375 80.375 96.625 81.5625 95.9375C85.5625 93.625 87 87.8125 85.6875 79.625C85.4375 78.1875 85.125 76.6875 84.75 75.1875C86.25 74.75 87.6875 74.3125 89.0625 73.75C96.875 70.75 101.125 66.625 101.125 62C101.125 57.375 96.875 53.25 89.0625 50.25ZM79.8125 31.1875C82.375 32.6875 83.25 37.3125 82.1875 43.875C82 45.1875 81.6875 46.5625 81.3125 48C78.0625 47.25 74.625 46.75 71 46.4375C68.875 43.4375 66.6875 40.75 64.5 38.3125C69.125 33.75 73.8125 30.625 77.625 30.625C78.4375 30.625 79.1875 30.8125 79.8125 31.1875ZM72.8125 68.25C71.6875 70.25 70.375 72.25 69 74.25C66.6875 74.4375 64.375 74.5 62 74.5C59.5625 74.5 57.25 74.4375 55 74.25C53.625 72.25 52.375 70.25 51.25 68.25C50.0625 66.1875 48.9375 64.0625 47.9375 62C48.9375 59.9375 50.0625 57.8125 51.25 55.75C52.375 53.75 53.6875 51.75 55.0625 49.75C57.375 49.5625 59.6875 49.5 62.0625 49.5C64.5 49.5 66.8125 49.5625 69.0625 49.75C70.4375 51.75 71.6875 53.75 72.8125 55.75C74 57.8125 75.125 59.9375 76.125 62C75.0625 64.0625 74 66.125 72.8125 68.25ZM78 66.1875C78.9375 68.375 79.6875 70.5 80.375 72.625C78.25 73.125 76 73.5 73.625 73.8125C74.375 72.625 75.1875 71.375 75.875 70.0625C76.625 68.75 77.3125 67.4375 78 66.1875ZM62 83.125C60.5 81.5 59.0625 79.75 57.6875 77.9375C59.125 78 60.5625 78.0625 62 78.0625C63.4375 78.0625 64.875 78 66.3125 77.9375C64.9375 79.75 63.5 81.5 62 83.125ZM50.375 73.75C48 73.4375 45.75 73.0625 43.625 72.5625C44.3125 70.5 45.0625 68.3125 46 66.125C46.6875 67.375 47.375 68.6875 48.125 69.9375C48.875 71.3125 49.625 72.5 50.375 73.75ZM46 57.8125C45.0625 55.625 44.3125 53.5 43.625 51.375C45.75 50.875 48 50.5 50.375 50.1875C49.625 51.375 48.8125 52.625 48.125 53.9375C47.375 55.25 46.6875 56.5625 46 57.8125ZM62 40.875C63.5 42.5 64.9375 44.25 66.3125 46.0625C64.875 46 63.4375 45.9375 62 45.9375C60.5625 45.9375 59.125 46 57.6875 46.0625C59.0625 44.25 60.5 42.5 62 40.875ZM75.875 54L73.625 50.25C76 50.5625 78.25 50.9375 80.375 51.4375C79.6875 53.5 78.9375 55.6875 78 57.875C77.3125 56.5625 76.625 55.25 75.875 54ZM41.8125 43.875C40.75 37.3125 41.625 32.6875 44.1875 31.1875C44.8125 30.8125 45.5625 30.625 46.375 30.625C50.125 30.625 54.8125 33.6875 59.5 38.3125C57.3125 40.6875 55.125 43.4375 53 46.4375C49.375 46.75 45.9375 47.3125 42.6875 48C42.3125 46.5625 42.0625 45.1875 41.8125 43.875ZM26.375 62C26.375 59.0625 29.9375 55.9375 36.1875 53.625C37.4375 53.125 38.8125 52.6875 40.1875 52.3125C41.1875 55.4375 42.4375 58.75 43.9375 62.0625C42.4375 65.375 41.125 68.625 40.1875 71.75C31.5625 69.25 26.375 65.5 26.375 62ZM44.1875 92.8125C41.625 91.3125 40.75 86.6875 41.8125 80.125C42 78.8125 42.3125 77.4375 42.6875 76C45.9375 76.75 49.375 77.25 53 77.5625C55.125 80.5625 57.3125 83.25 59.5 85.6875C54.875 90.25 50.1875 93.375 46.375 93.375C45.5625 93.375 44.8125 93.1875 44.1875 92.8125ZM82.1875 80.125C83.25 86.6875 82.375 91.3125 79.8125 92.8125C79.1875 93.1875 78.4375 93.375 77.625 93.375C73.875 93.375 69.1875 90.3125 64.5 85.6875C66.6875 83.3125 68.875 80.5625 71 77.5625C74.625 77.25 78.0625 76.6875 81.3125 76C81.6875 77.4375 81.9375 78.8125 82.1875 80.125ZM87.8125 70.375C86.5625 70.875 85.1875 71.3125 83.8125 71.6875C82.8125 68.5625 81.5625 65.25 80.0625 61.9375C81.5625 58.625 82.875 55.375 83.8125 52.25C92.4375 54.75 97.625 58.5 97.625 62C97.625 64.9375 94 68.0625 87.8125 70.375Z" fill="#61DAFB"/>
</svg>
