<svg width="124" height="124" viewBox="0 0 124 124" fill="none" xmlns="http://www.w3.org/2000/svg">
<rect width="124" height="124" rx="12" fill="#142034"/>
<path fill-rule="evenodd" clip-rule="evenodd" d="M22.7617 57.0975C22.7617 57.5369 22.8911 57.8269 22.9636 58.1087C23.4361 59.9419 24.4517 61.515 25.6567 62.95C27.373 64.995 29.4748 66.6412 31.628 68.1894C33.4955 69.5319 35.4011 70.8444 37.2761 72.1769C37.598 72.4056 37.9023 72.6687 38.2517 72.9494C37.9511 73.1119 37.7011 73.255 37.4411 73.3869C34.9667 74.6419 32.5861 76.0488 30.3917 77.7531C29.0692 78.7806 27.7905 79.8725 26.8873 81.2994C25.4342 83.5944 24.9198 86.0394 26.003 88.65C26.3192 89.4125 26.8017 90.0713 27.4823 90.5581C27.703 90.7156 27.9505 90.8719 28.2086 90.9331C28.8698 91.0887 29.5436 91.1906 30.213 91.3138L32.1086 91.3125C34.2048 91.1256 36.113 90.4075 37.8373 89.2175C40.5323 87.3575 42.348 84.8637 43.1286 81.6631C43.6961 79.3369 43.7192 77.0081 43.0505 74.6925C42.9865 74.478 42.9126 74.2665 42.8292 74.0587C42.748 73.8506 42.6523 73.6481 42.5398 73.3888L46.8373 70.9175L46.9017 70.9725C46.8236 71.2281 46.7405 71.4831 46.6698 71.7412C46.1592 73.6062 45.8198 75.5038 45.9417 77.4394C46.0717 79.5019 46.6473 81.4325 47.8548 83.1556C48.8311 84.5494 51.1573 84.6013 52.1948 83.2025C52.563 82.7056 52.9198 82.1863 53.188 81.6319C53.8886 80.185 54.5373 78.7125 55.2067 77.25L55.3236 76.9825C55.2755 77.675 55.2192 78.2831 55.1936 78.8919C55.1536 79.8425 55.2092 80.7875 55.5342 81.6919C55.8123 82.4656 56.2855 83.0438 57.1717 83.1456C57.778 83.215 58.2611 82.9375 58.7067 82.5856C59.3971 82.0401 59.9693 81.3598 60.3886 80.5862C61.5767 78.4044 62.7967 76.2356 63.8736 73.9987C65.0386 71.5794 66.0573 69.0894 67.1392 66.6287L67.318 66.1925C67.5736 67.1969 67.7517 68.1806 68.0798 69.1119C68.4611 70.1925 68.933 71.2475 69.4467 72.2731C69.6898 72.7575 69.6617 73.0719 69.3248 73.4781C67.9148 75.1781 66.5292 76.8987 65.1423 78.6175C64.8355 78.9969 64.5298 79.3831 64.2742 79.7975C64.1191 80.0592 64.0172 80.3489 63.9742 80.65C63.9312 80.9272 63.9972 81.2104 64.1583 81.44C64.3195 81.6697 64.5633 81.828 64.8386 81.8819C65.3943 82.0015 65.9641 82.0422 66.5311 82.0025C68.4667 81.86 70.2242 81.1806 71.778 80.0294C73.7911 78.5381 74.4373 76.5031 73.9498 74.0913C73.818 73.4369 73.5848 72.8006 73.358 72.17C73.2561 71.8856 73.2492 71.6862 73.4348 71.4212C75.0442 69.1231 76.4192 66.685 77.698 64.1906C77.7486 64.0925 77.8005 63.9944 77.8892 63.8894C78.3036 66.0456 78.9273 68.1238 80.0448 70.0094C79.4748 70.5588 78.9105 71.0569 78.3998 71.6056C77.2755 72.8144 76.3005 74.1269 75.7917 75.7275C75.573 76.4175 75.4048 77.1188 75.5023 77.8556C75.6536 79 76.5911 79.7437 77.7167 79.4831C80.1255 78.9256 82.2048 77.7906 83.7242 75.78C84.7467 74.4262 84.8398 72.9162 84.4117 71.3344C84.2942 70.9044 84.1548 70.4812 84.0048 69.9881C84.5992 69.8037 85.1786 69.5825 85.778 69.4456C88.8898 68.7356 91.968 68.8594 94.9667 69.9831C96.7173 70.6394 98.1317 71.7375 98.9705 73.465C99.9948 75.5769 99.4286 77.5806 97.438 78.9156C97.2523 79.04 97.0398 79.1381 96.8861 79.2937C96.8368 79.3508 96.8 79.4175 96.778 79.4896C96.7559 79.5617 96.7491 79.6376 96.758 79.7125C96.7711 79.7894 96.9742 79.8856 97.0911 79.8844C97.7455 79.8794 98.2761 79.5363 98.7855 79.1838C100.062 78.3006 100.993 77.1125 101.194 75.5481L101.233 75.4306L101.185 74.4119C101.165 74.3531 101.199 74.295 101.195 74.2506C100.924 71.9725 99.7067 70.2056 97.9367 68.8206C95.8867 67.2175 93.4661 66.5575 90.9061 66.4531C88.8298 66.3638 86.7563 66.6829 84.803 67.3925C84.2423 67.5956 83.6867 67.8362 83.123 68.0631C83.0473 67.9262 82.9661 67.795 82.8992 67.6594C82.3205 66.4744 81.6192 65.3419 81.4642 63.9831C81.3542 63.0181 81.2192 62.0544 81.4486 61.1C81.6692 60.1819 81.9567 59.2794 82.2273 58.3738C82.3667 57.9075 82.2686 57.6463 81.8236 57.4363C81.6685 57.3589 81.5031 57.3046 81.3323 57.275C80.2386 57.1162 79.1598 57.2069 78.1005 57.515C77.7255 57.6244 77.453 57.8344 77.3698 58.2494C77.3223 58.4875 77.2255 58.7156 77.158 58.9506C76.8811 59.9275 76.6848 60.9231 76.2373 61.8537C75.1161 64.1881 73.8361 66.4344 72.5261 68.6644C72.3842 68.905 72.2348 69.1412 72.0561 69.4331C71.5961 68.4706 71.1055 67.6069 70.9567 66.5944C70.7886 65.4494 70.6561 64.3063 70.9411 63.17C71.153 62.3225 71.4298 61.4906 71.6848 60.6544C71.8055 60.2569 71.7498 60.0481 71.3898 59.8387C71.208 59.7331 71.0023 59.6394 70.7973 59.6087C69.6758 59.4379 68.5299 59.5317 67.4511 59.8825C67.1117 59.9925 66.9336 60.2119 66.8298 60.5619C66.5248 61.5944 66.2648 62.6519 65.8367 63.6337C64.103 67.6087 62.3192 71.5631 60.5373 75.5169C60.1655 76.3425 59.7298 77.1394 59.3105 77.9431C59.2042 78.1469 59.0492 78.3263 58.9167 78.5175C58.8105 78.3919 58.7692 78.3056 58.7698 78.2194C58.773 77.7112 58.7123 77.1881 58.8092 76.6969C59.1067 75.2111 59.4355 73.7319 59.7955 72.26C60.0892 71.0438 60.4311 69.8388 60.7567 68.6306C60.8661 68.2263 60.868 67.8481 60.5773 67.5081C60.0892 66.9388 59.0692 66.8137 58.4642 67.2525L58.1967 67.4038L58.2486 66.9725C58.3761 66.0481 58.4017 65.1269 58.148 64.2162C57.8317 63.0812 57.0217 62.4281 55.8442 62.4644C55.2955 62.4812 54.7192 62.575 54.2111 62.775C52.0742 63.6125 50.4311 65.0956 49.0323 66.88C48.9027 67.0457 48.742 67.1845 48.5592 67.2887C46.7511 68.2912 44.9373 69.2812 43.1242 70.275L41.1061 71.3806C40.5648 70.8644 40.073 70.3287 39.5148 69.8744C37.8105 68.4844 36.0786 67.1288 34.3623 65.7544C32.8411 64.5363 31.3673 63.2675 30.2398 61.6544C29.4011 60.4544 28.8605 59.1412 28.8086 57.6575C28.743 55.7669 29.2792 54.0394 30.2417 52.4312C31.473 50.3737 33.1523 48.7225 34.9986 47.2269C36.9517 45.6456 39.0642 44.3031 41.2536 43.0775C44.3167 41.3631 47.4673 39.8456 50.8455 38.8438C54.3092 37.8163 57.8236 37.2281 61.4486 37.6381C62.8736 37.7994 64.2573 38.1256 65.528 38.8225C66.5011 39.3556 67.2992 40.0537 67.6705 41.145C68.0367 42.2188 68.0255 43.3069 67.7717 44.3975C67.2561 46.6062 66.0467 48.4269 64.5248 50.0538C62.0286 52.7206 58.9836 54.5363 55.5555 55.7356C53.5844 56.4261 51.5336 56.8636 49.4523 57.0375C47.7467 57.1806 46.0767 57.0294 44.4617 56.4362C43.3923 56.0431 42.4611 55.4419 41.7123 54.5694C41.5786 54.4131 41.4073 54.2438 41.158 54.39C40.9136 54.5338 40.8705 54.7663 40.9523 55.0019C41.0892 55.3931 41.2155 55.8006 41.4286 56.1506C41.9642 57.0287 42.7455 57.6656 43.6055 58.2119C45.2573 59.2625 47.1036 59.6156 49.018 59.6975C51.923 59.8231 54.7573 59.3894 57.5517 58.61C61.5411 57.4975 65.0098 55.5325 67.7917 52.4325C70.108 49.8513 71.7623 46.9381 72.1167 43.4206C72.2898 41.7037 72.1055 40.0219 71.3017 38.4556C70.4298 36.7588 69.0436 35.4969 67.3861 34.6275C64.9723 33.3619 62.3673 32.625 59.6786 32.625H56.9848C53.7286 32.625 50.5805 33.5581 47.5205 34.6713C45.2042 35.5144 42.933 36.5094 40.728 37.6106C35.9261 40.01 31.4542 42.9031 27.7811 46.8813C25.9511 48.8631 24.4017 51.05 23.5105 53.625C23.2415 54.3938 23.0097 55.1751 22.8161 55.9663M40.2155 78.4744C40.0073 81.2613 38.7442 83.5206 36.6798 85.3506C35.5186 86.3794 34.1867 87.1119 32.6355 87.3694C32.073 87.4625 31.4973 87.485 30.9517 87.2519C30.1736 86.9194 29.9992 86.2287 29.9842 85.4931C29.9611 84.3206 30.3717 83.2606 30.9348 82.2519C31.6698 80.9369 32.7473 79.9344 33.898 78.9981C35.7105 77.5225 37.6767 76.2738 39.6905 75.095L39.8423 75.0325C40.1536 76.1825 40.3017 77.3181 40.2155 78.4744ZM55.9392 66.3625C55.7923 67.2525 55.6086 68.1431 55.3486 69.0056C54.4498 71.9912 53.2955 74.8844 52.0473 77.7387C51.8167 78.2669 51.4811 78.7487 51.1892 79.2494C51.1396 79.3263 51.0801 79.3965 51.0123 79.4581C50.6511 79.815 50.3086 79.7962 50.1261 79.3294C49.9136 78.7869 49.783 78.2063 49.6705 77.6319C49.5948 77.2463 49.613 76.8412 49.5892 76.4462C49.6136 73.6375 50.4705 71.085 51.9242 68.7088C52.5236 67.7288 53.1761 66.795 54.173 66.175C54.4831 65.9822 54.8186 65.8337 55.1698 65.7337C55.7011 65.5844 56.0273 65.83 55.9392 66.3625ZM66.6667 80.03L70.5223 75.5281C70.683 77.2 67.8411 80.5375 66.6667 80.03ZM78.9811 77.0006C78.7086 77.1569 78.4117 77.2694 78.1323 77.4138C77.8767 77.5463 77.7923 77.4125 77.7848 77.1925C77.7811 77.0402 77.8007 76.8882 77.843 76.7419C78.3636 74.9056 79.3217 73.3381 80.7473 72.0631L80.8473 72.0119C81.5255 73.9087 80.7417 75.9919 78.9811 77.0006Z" fill="#CB6699"/>
</svg>
