<svg width="124" height="124" viewBox="0 0 124 124" fill="none" xmlns="http://www.w3.org/2000/svg">
<rect width="124" height="124" rx="12" fill="#FAFAFA"/>
<path d="M37.5632 98.0897C37.3632 97.7329 37.088 94.6209 37.2704 94.7505C37.3248 94.7905 37.544 95.1777 37.7568 95.6097C37.9696 96.0417 38.208 96.3889 38.288 96.3809C38.4848 96.3633 38.408 94.4673 38.128 92.4545C37.5984 88.6193 36.2464 85.3601 34.3552 83.3505C34.0352 83.0113 33.8048 82.7105 33.8448 82.6817C33.9936 82.5745 35.968 84.0289 36.792 84.8545C37.2608 85.3233 37.968 86.1745 38.3616 86.7457C38.8864 87.5041 39.1056 87.7345 39.1776 87.5985C39.3024 87.3633 38.8416 71.7537 38.576 67.2785C38.4576 65.2689 38.6768 65.6417 39.552 68.9329C41.2544 75.3441 42.5248 81.6081 43.2992 87.4129C43.4368 88.4321 43.576 89.2897 43.6112 89.3169C43.6464 89.3441 43.7584 89.3201 43.8624 89.2641C45.2832 88.4897 46.3008 88.1969 47.9424 88.0865C49.1056 88.0081 49.4544 88.1857 48.5024 88.3697C46.6624 88.7265 45.3184 89.9905 44.752 91.8913C44.248 93.5889 44.2288 96.2225 44.7136 97.3873C44.9568 97.9713 44.7728 98.0673 43.0064 98.2833C41.8608 98.4241 41.4432 98.4353 41.0832 98.3425C40.5136 98.1937 39.2944 98.1857 39.1712 98.3281C39.1216 98.3873 38.7824 98.4337 38.4192 98.4337C37.8112 98.4337 37.7424 98.4065 37.5648 98.0897H37.5632ZM40.7216 92.9185C40.9648 92.5905 40.8368 92.2593 40.3952 92.0833C40.0352 91.9377 39.9744 91.9409 39.696 92.1217C39.36 92.3409 39.2928 92.8097 39.568 93.0081C39.856 93.2161 40.5392 93.1617 40.72 92.9185H40.7216ZM42.7184 93.0545C42.8525 92.97 42.9688 92.8603 43.0608 92.7313C43.4464 92.2033 42.4976 91.7361 41.8688 92.1457C41.2192 92.5681 41.9968 93.4017 42.7184 93.0545ZM46.3792 98.0049C46.3264 97.9441 46.5664 97.3857 46.9136 96.7665C47.2592 96.1457 47.5712 95.7009 47.6064 95.7761C47.7184 96.0209 47.2848 97.8241 47.0784 97.9729C46.8384 98.1441 46.512 98.1585 46.3792 98.0049ZM35.1216 97.3489C34.6576 96.7985 34.768 96.6545 35.3456 97.0561C35.6272 97.2545 35.8592 97.4785 35.8592 97.5537C35.8592 97.8161 35.4128 97.6913 35.1232 97.3473L35.1216 97.3489ZM48.96 97.1153C48.96 97.0305 49.1232 96.8273 49.3232 96.6641C49.7232 96.3377 49.8224 96.4833 49.552 96.9969C49.4 97.2849 48.96 97.3729 48.96 97.1153ZM61.864 95.7921C61.4752 95.7521 61.096 95.6513 61.0208 95.5681C60.8448 95.3681 60.8384 90.6977 61.0144 90.6977C61.0864 90.6977 61.2256 90.9377 61.3232 91.2273C61.5264 91.8353 61.688 91.9009 61.8192 91.4257C61.9696 90.8865 61.9232 85.8721 61.7568 84.5521C61.0384 78.8721 58.7728 74.7537 54.8096 71.9281C53.072 70.6897 50.5648 69.6289 48.3344 69.1889C47.112 68.9489 47.4992 68.8305 49.2912 68.8977C53.0736 69.0417 55.9584 70.0289 58.6464 72.1009C60.0836 73.2345 61.3358 74.5845 62.3584 76.1025C63.0832 77.1937 63.3824 77.4689 63.3824 77.0369C63.3824 76.9249 63.4832 75.6257 63.6048 74.1489C64.6912 60.9329 67.4384 49.9889 71.5792 42.3729C74.5552 36.8977 79.752 31.4657 84.1952 29.1825C86.4304 28.0353 88.2576 27.6017 90.6272 27.6593C92.12 27.6961 92.2432 27.7169 93.4592 28.1521C94.2232 28.4226 94.9546 28.7773 95.64 29.2097C96.6192 29.8609 97.7344 30.8161 97.6144 30.9025C97.5744 30.9313 97.0672 30.6385 96.488 30.2513C92.2368 27.4177 88.3888 27.8193 85.096 31.4385C83.3232 33.3905 80.8528 37.0865 79.2816 40.1473C74.7568 48.9521 72.016 58.4897 70.816 69.6081C70.5552 72.0225 70.3648 75.6241 70.504 75.5329C70.5552 75.4977 70.9296 74.7009 71.3328 73.7601C73.888 67.8033 77.0576 63.4753 80.5968 61.1073C81.672 60.3873 83.176 59.6609 83.3392 59.7793C83.376 59.8049 83.0672 60.1313 82.6512 60.5041C79.5184 63.3121 77.4512 66.5201 75.8784 71.0209C74.3776 75.3089 73.6928 79.9617 73.688 85.8993C73.688 88.6865 73.9904 92.9153 74.2752 94.0625C74.4752 94.8705 74.4032 94.9361 73.3392 94.9361C72.4592 94.9361 69.6496 95.1569 67.872 95.3681C67.2112 95.4481 66.5664 95.4321 65.2992 95.3105C64.3712 95.2209 63.4912 95.1201 63.3488 95.0865C63.0864 95.0273 63.0608 95.0641 63.032 95.5697C63.0128 95.8673 62.872 95.8945 61.864 95.7921ZM65.8752 85.0321C66.3456 84.8561 66.4752 84.6801 66.4752 84.2049C66.4752 83.1969 64.3808 83.0753 64.0368 84.0641C63.9184 84.4033 64.2448 84.8801 64.7088 85.0497C65.184 85.2241 65.3696 85.2209 65.8768 85.0321H65.8752ZM69.6656 84.9489C70.1088 84.5937 70.1744 84.3665 69.944 83.9713C69.304 82.8673 67.136 83.4801 67.6592 84.6193C67.8528 85.0433 68.1376 85.1793 68.84 85.1841C69.2032 85.1857 69.4592 85.1137 69.6656 84.9489ZM74.4832 95.6385C74.44 95.5585 74.624 95.2113 74.8928 94.8657C76.2992 93.0497 76.8448 92.3937 76.9488 92.3937C77.0112 92.3937 77.0368 92.4529 77.0048 92.5265L76.328 94.0673C75.9872 94.8417 75.616 95.5473 75.4976 95.6305C75.2272 95.8257 74.5856 95.8305 74.4832 95.6385ZM78.3968 94.6849C78.3968 94.4929 79.7616 93.5921 79.8304 93.7409C79.8592 93.8049 79.7408 94.0769 79.5648 94.3441C79.296 94.7569 79.184 94.8305 78.8224 94.8305C78.56 94.8305 78.3968 94.7745 78.3968 94.6865V94.6849ZM57.5328 94.4865C57.2512 94.2321 56.744 93.4369 56.7952 93.3265C56.824 93.2657 57.192 93.4865 57.6144 93.8209C58.0368 94.1553 58.344 94.4689 58.2992 94.5217C58.1776 94.6625 57.704 94.6401 57.5328 94.4865Z" fill="#9BB92F"/>
</svg>
