<svg width="124" height="124" viewBox="0 0 124 124" fill="none" xmlns="http://www.w3.org/2000/svg">
<rect width="124" height="124" rx="12" fill="#142034"/>
<g clip-path="url(#clip0_71_170)">
<mask id="mask0_71_170" style="mask-type:alpha" maskUnits="userSpaceOnUse" x="22" y="22" width="80" height="80">
<path fill-rule="evenodd" clip-rule="evenodd" d="M78.7296 101.454C79.3662 101.702 80.0471 101.817 80.7298 101.79C81.4126 101.764 82.0827 101.598 82.6983 101.301L99.169 93.3757C100.017 92.9674 100.733 92.3279 101.234 91.5308C101.735 90.7338 102 89.8115 102 88.8701V35.1307C102 34.1892 101.735 33.2668 101.234 32.4696C100.733 31.6724 100.017 31.0328 99.169 30.6245L82.6983 22.7001C81.7677 22.2523 80.7208 22.1048 79.7026 22.2782C78.6844 22.4515 77.7453 22.937 77.0152 23.6676L45.484 52.4338L31.7502 42.0082C31.1307 41.5378 30.366 41.2992 29.5889 41.3336C28.8118 41.3681 28.0713 41.6736 27.4958 42.197L23.0908 46.2038C22.7476 46.5161 22.4732 46.8965 22.2854 47.3208C22.0976 47.7451 22.0004 48.204 22 48.668C21.9996 49.132 22.0962 49.591 22.2833 50.0156C22.4705 50.4402 22.7443 50.8211 23.0871 51.1338L34.9977 62.0001L23.0877 72.867C22.7451 73.1798 22.4715 73.5606 22.2844 73.9851C22.0974 74.4097 22.0009 74.8686 22.0013 75.3325C22.0016 75.7964 22.0988 76.2552 22.2865 76.6794C22.4742 77.1037 22.7484 77.4841 23.0915 77.7963L27.4965 81.8032C28.0718 82.3268 28.8123 82.6325 29.5894 82.6671C30.3666 82.7016 31.1313 82.463 31.7508 81.9926L45.4846 71.5676L77.0159 100.333C77.5034 100.822 78.0866 101.203 78.7296 101.454ZM82.0121 43.8395L58.0877 62.0001L82.0127 80.1613L82.0121 43.8395Z" fill="white"/>
</mask>
<g mask="url(#mask0_71_170)">
<path d="M99.1696 30.6375L82.6859 22.7C81.7548 22.2519 80.7075 22.1043 79.6889 22.2777C78.6703 22.451 77.7307 22.9367 77.0003 23.6675L23.039 72.8669C22.6961 73.1795 22.4223 73.5603 22.2351 73.9849C22.0478 74.4094 21.9513 74.8684 21.9517 75.3324C21.952 75.7964 22.0492 76.2553 22.2371 76.6795C22.425 77.1038 22.6994 77.4842 23.0428 77.7963L27.4503 81.8031C28.0261 82.3267 28.767 82.6323 29.5445 82.6669C30.322 82.7015 31.0871 82.4629 31.7071 81.9925L96.689 32.6956C98.869 31.0419 102 32.5969 102 35.3331V35.1419C102 34.2007 101.735 33.2786 101.234 32.4817C100.733 31.6848 100.018 31.0459 99.1696 30.6375Z" fill="#0065A9"/>
<g filter="url(#filter0_d_71_170)">
<path d="M99.1696 93.3631L82.6859 101.299C81.755 101.748 80.7077 101.895 79.6891 101.722C78.6705 101.549 77.7309 101.064 77.0003 100.333L23.039 51.1331C22.6961 50.8205 22.4223 50.4397 22.2351 50.0152C22.0478 49.5906 21.9513 49.1316 21.9517 48.6676C21.952 48.2036 22.0492 47.7448 22.2371 47.3205C22.425 46.8962 22.6994 46.5159 23.0428 46.2038L27.4503 42.1969C28.0261 41.6733 28.767 41.3677 29.5445 41.3331C30.322 41.2985 31.0871 41.5371 31.7071 42.0075L96.689 91.3038C98.869 92.9581 102 91.4031 102 88.6669V88.8581C102 89.7993 101.735 90.7214 101.234 91.5183C100.733 92.3153 100.018 92.9547 99.1696 93.3631Z" fill="#007ACC"/>
</g>
<g filter="url(#filter1_d_71_170)">
<path d="M82.6867 101.301C81.7555 101.749 80.7081 101.896 79.6894 101.723C78.6707 101.55 77.7311 101.064 77.0005 100.333C78.8455 102.178 82.0005 100.871 82.0005 98.2619V25.7375C82.0005 23.1281 78.8455 21.8213 77.0005 23.6669C77.7311 22.9361 78.6707 22.4505 79.6894 22.277C80.7081 22.1036 81.7555 22.251 82.6867 22.6988L99.1674 30.625C100.016 31.0331 100.732 31.6726 101.233 32.4698C101.735 33.267 102.001 34.1896 102 35.1313V88.87C102.001 89.8117 101.735 90.7343 101.233 91.5315C100.732 92.3287 100.016 92.9682 99.1674 93.3763L82.6867 101.301Z" fill="#1F9CF0"/>
</g>
<path style="mix-blend-mode:overlay" opacity="0.25" fill-rule="evenodd" clip-rule="evenodd" d="M78.6816 101.454C79.3181 101.702 79.9988 101.816 80.6815 101.79C81.3642 101.764 82.0341 101.598 82.6497 101.301L99.1203 93.3757C99.9686 92.9673 100.684 92.3278 101.185 91.5306C101.686 90.7334 101.952 89.811 101.952 88.8695V35.1307C101.952 34.1892 101.686 33.2668 101.185 32.4696C100.684 31.6724 99.9686 31.0328 99.1203 30.6245L82.6497 22.7001C81.719 22.2523 80.6721 22.1048 79.654 22.2782C78.6358 22.4515 77.6967 22.937 76.9666 23.6676L45.4353 52.4338L31.7016 42.0088C31.0821 41.5384 30.3174 41.2998 29.5403 41.3343C28.7632 41.3687 28.0226 41.6742 27.4472 42.1976L23.0422 46.2045C22.699 46.5167 22.4248 46.8972 22.237 47.3215C22.0492 47.7458 21.952 48.2046 21.9517 48.6686C21.9513 49.1326 22.0478 49.5916 22.2349 50.0162C22.4221 50.4408 22.6957 50.8217 23.0385 51.1345L34.9491 62.0001L23.0391 72.8663C22.6963 73.1791 22.4225 73.5599 22.2353 73.9845C22.0481 74.4091 21.9516 74.8681 21.952 75.3322C21.9523 75.7962 22.0495 76.2551 22.2374 76.6794C22.4252 77.1037 22.6995 77.4841 23.0428 77.7963L27.4478 81.8032C28.0232 82.3267 28.7637 82.6323 29.5408 82.6669C30.3179 82.7015 31.0826 82.4629 31.7022 81.9926L45.4366 71.567L76.9678 100.333C77.4552 100.822 78.0388 101.203 78.6816 101.454ZM81.9641 43.8388L58.0391 62.0001L81.9641 80.1607V43.8388Z" fill="url(#paint0_linear_71_170)"/>
</g>
</g>
<defs>
<filter id="filter0_d_71_170" x="13.6177" y="32.9958" width="96.7168" height="77.1309" filterUnits="userSpaceOnUse" color-interpolation-filters="sRGB">
<feFlood flood-opacity="0" result="BackgroundImageFix"/>
<feColorMatrix in="SourceAlpha" type="matrix" values="0 0 0 0 0 0 0 0 0 0 0 0 0 0 0 0 0 0 127 0" result="hardAlpha"/>
<feOffset/>
<feGaussianBlur stdDeviation="4.167"/>
<feColorMatrix type="matrix" values="0 0 0 0 0 0 0 0 0 0 0 0 0 0 0 0 0 0 0.25 0"/>
<feBlend mode="overlay" in2="BackgroundImageFix" result="effect1_dropShadow_71_170"/>
<feBlend mode="normal" in="SourceGraphic" in2="effect1_dropShadow_71_170" result="shape"/>
</filter>
<filter id="filter1_d_71_170" x="68.6665" y="13.8723" width="41.668" height="96.2554" filterUnits="userSpaceOnUse" color-interpolation-filters="sRGB">
<feFlood flood-opacity="0" result="BackgroundImageFix"/>
<feColorMatrix in="SourceAlpha" type="matrix" values="0 0 0 0 0 0 0 0 0 0 0 0 0 0 0 0 0 0 127 0" result="hardAlpha"/>
<feOffset/>
<feGaussianBlur stdDeviation="4.167"/>
<feColorMatrix type="matrix" values="0 0 0 0 0 0 0 0 0 0 0 0 0 0 0 0 0 0 0.25 0"/>
<feBlend mode="overlay" in2="BackgroundImageFix" result="effect1_dropShadow_71_170"/>
<feBlend mode="normal" in="SourceGraphic" in2="effect1_dropShadow_71_170" result="shape"/>
</filter>
<linearGradient id="paint0_linear_71_170" x1="61.9516" y1="22.2063" x2="61.9516" y2="101.794" gradientUnits="userSpaceOnUse">
<stop stop-color="white"/>
<stop offset="1" stop-color="white" stop-opacity="0"/>
</linearGradient>
<clipPath id="clip0_71_170">
<rect width="80" height="80" fill="white" transform="translate(22 22)"/>
</clipPath>
</defs>
</svg>
