<svg width="124" height="124" viewBox="0 0 124 124" fill="none" xmlns="http://www.w3.org/2000/svg">
<rect width="124" height="124" rx="12" fill="#142034"/>
<path fill-rule="evenodd" clip-rule="evenodd" d="M62.0588 100.89C83.4807 100.858 100.822 83.432 100.822 61.937C100.822 40.7913 83.5607 23.3763 62.9388 23.0082C41.2813 22.622 23.1838 40.1957 23.1782 61.5063C23.172 83.4307 40.4357 100.921 62.0588 100.89ZM61.9957 24.8938C82.5626 24.887 98.9495 41.597 98.9432 62.5688C98.9364 82.3682 82.1151 98.9313 62.0107 98.9357C41.5288 98.9401 25.0576 82.3338 25.0582 61.6807C25.0595 41.5601 41.787 24.9007 61.9957 24.8938ZM46.4732 44.4351C46.8095 45.5557 45.8682 45.9457 44.8676 46.0238C43.8145 46.1051 42.762 46.1845 41.5395 46.2776C45.5745 58.2988 49.5488 70.142 53.6176 82.2607C53.9076 81.7863 54.027 81.6526 54.0795 81.4963C56.3132 74.8201 58.5595 68.1482 60.7363 61.4532C60.9351 60.8426 60.8363 60.0338 60.6188 59.4063C59.467 56.0813 58.087 52.8288 57.077 49.4638C56.3863 47.1601 55.4701 45.6695 52.747 45.9363C52.2832 45.982 51.717 44.9838 51.1976 44.4682C51.8257 44.0932 52.4495 43.4032 53.0832 43.3938C58.6283 43.3086 64.1744 43.3103 69.7195 43.3988C70.3557 43.4095 70.9795 44.1176 71.6076 44.502C71.0576 45.0045 70.5832 45.7582 69.9401 45.9526C68.9082 46.2638 67.7639 46.2051 66.5289 46.3151L78.622 82.2901C80.4539 76.2051 82.1582 70.6176 83.8157 65.0157C85.2945 60.0151 84.4132 55.3451 81.7395 50.9407C80.9357 49.6163 79.9482 48.3313 79.4926 46.887C78.9751 45.2438 78.5451 43.3732 78.8195 41.7251C79.2851 38.932 81.4282 37.5451 84.3282 37.2795C68.4582 22.5507 43.5195 27.8232 34.3301 43.8263C37.8676 43.6632 41.2451 43.4488 44.6251 43.4026C45.2638 43.3945 46.3232 43.9345 46.4732 44.4351ZM52.7963 93.167C52.7226 93.3826 52.7182 93.6226 52.6601 93.9807C59.4995 95.877 66.207 95.7401 73.072 93.427L62.5845 64.702C59.2282 74.4588 56.0095 83.8113 52.7963 93.167ZM47.5113 91.8682L31.7107 48.5245C24.5826 62.4482 30.0051 83.692 47.5113 91.8682ZM95.2789 64.017C95.7801 57.4332 93.5089 48.3176 91.5476 47.0638C91.3289 49.4857 91.4814 52.1801 90.7864 54.6351C89.1507 60.4195 87.1507 66.1032 85.2245 71.8026C83.1307 77.9976 80.9545 84.1645 78.8139 90.3438C88.8714 84.382 94.3982 75.5826 95.2789 64.017Z" fill="#FAFAFA"/>
</svg>
