<svg width="124" height="124" viewBox="0 0 124 124" fill="none" xmlns="http://www.w3.org/2000/svg">
<rect width="124" height="124" rx="12" fill="#FAFAFA"/>
<path fill-rule="evenodd" clip-rule="evenodd" d="M62.0584 100.89C83.4802 100.858 100.821 83.432 100.821 61.937C100.821 40.7913 83.5602 23.3763 62.9384 23.0082C41.2809 22.622 23.1834 40.1957 23.1777 61.5063C23.1715 83.4307 40.4352 100.921 62.0584 100.89ZM61.9952 24.8938C82.5621 24.887 98.949 41.597 98.9427 62.5688C98.9359 82.3682 82.1146 98.9313 62.0102 98.9357C41.5284 98.9401 25.0571 82.3338 25.0577 61.6807C25.059 41.5601 41.7865 24.9007 61.9952 24.8938ZM46.4727 44.4351C46.809 45.5557 45.8677 45.9457 44.8671 46.0238C43.814 46.1051 42.7615 46.1845 41.539 46.2776C45.574 58.2988 49.5484 70.142 53.6171 82.2607C53.9071 81.7863 54.0265 81.6526 54.079 81.4963C56.3127 74.8201 58.559 68.1482 60.7359 61.4532C60.9346 60.8426 60.8359 60.0338 60.6184 59.4063C59.4665 56.0813 58.0865 52.8288 57.0765 49.4638C56.3859 47.1601 55.4696 45.6695 52.7465 45.9363C52.2827 45.982 51.7165 44.9838 51.1971 44.4682C51.8252 44.0932 52.449 43.4032 53.0827 43.3938C58.6278 43.3086 64.1739 43.3103 69.719 43.3988C70.3552 43.4095 70.979 44.1176 71.6071 44.502C71.0571 45.0045 70.5827 45.7582 69.9396 45.9526C68.9077 46.2638 67.7634 46.2051 66.5284 46.3151L78.6215 82.2901C80.4534 76.2051 82.1577 70.6176 83.8152 65.0157C85.294 60.0151 84.4127 55.3451 81.739 50.9407C80.9352 49.6163 79.9477 48.3313 79.4921 46.887C78.9746 45.2438 78.5446 43.3732 78.819 41.7251C79.2846 38.932 81.4277 37.5451 84.3277 37.2795C68.4577 22.5507 43.519 27.8232 34.3296 43.8263C37.8671 43.6632 41.2446 43.4488 44.6246 43.4026C45.2634 43.3945 46.3227 43.9345 46.4727 44.4351ZM52.7959 93.167C52.7221 93.3826 52.7177 93.6226 52.6596 93.9807C59.499 95.877 66.2065 95.7401 73.0715 93.427L62.584 64.702C59.2277 74.4588 56.009 83.8113 52.7959 93.167ZM47.5109 91.8682L31.7102 48.5245C24.5821 62.4482 30.0046 83.692 47.5109 91.8682ZM95.2784 64.017C95.7796 57.4332 93.5084 48.3176 91.5471 47.0638C91.3284 49.4857 91.4809 52.1801 90.7859 54.6351C89.1502 60.4195 87.1502 66.1032 85.224 71.8026C83.1302 77.9976 80.954 84.1645 78.8134 90.3438C88.8709 84.382 94.3977 75.5826 95.2784 64.017Z" fill="#142034"/>
</svg>
