<svg width="124" height="124" viewBox="0 0 124 124" fill="none" xmlns="http://www.w3.org/2000/svg">
<rect width="124" height="124" rx="12" fill="#FAFAFA"/>
<g clip-path="url(#clip0_71_200)">
<path d="M62 22C54.0888 22 46.3552 24.346 39.7772 28.7412C33.1992 33.1365 28.0723 39.3836 25.0448 46.6927C22.0173 54.0017 21.2252 62.0444 22.7686 69.8036C24.312 77.5629 28.1216 84.6902 33.7157 90.2843C39.3098 95.8784 46.4372 99.688 54.1964 101.231C61.9556 102.775 69.9983 101.983 77.3074 98.9552C84.6164 95.9277 90.8635 90.8008 95.2588 84.2228C99.6541 77.6448 102 69.9113 102 62C102 51.3913 97.7857 41.2172 90.2843 33.7157C82.7828 26.2143 72.6087 22 62 22ZM64.9281 35.7175C65.4217 35.7733 65.895 35.9451 66.3094 36.2188C66.7288 36.4963 67.2644 36.8638 68.8256 40.09C69.417 39.8782 70.0597 39.8557 70.6644 40.0256C70.9945 40.1155 71.3022 40.2734 71.5678 40.4891C71.8334 40.7047 72.0511 40.9735 72.2069 41.2781C73.8006 44.3362 74.0125 49.7869 73.3156 53.2906C72.6975 56.3925 71.4119 59.3227 69.5481 61.8781C71.2153 63.6121 72.4856 65.6877 73.2713 67.9613C74.0389 70.1122 74.3489 72.3998 74.1813 74.6775C74.8748 74.3455 75.5469 73.9706 76.1938 73.555C78.1675 72.3356 81.1481 70.4963 84.7031 70.4513C85.7815 70.3793 86.8471 70.7188 87.6851 71.4013C88.523 72.0839 89.0711 73.0587 89.2188 74.1294C89.3534 75.1424 89.1046 76.1693 88.5211 77.0083C87.9376 77.8474 87.0616 78.438 86.065 78.6644C83.9038 79.1869 82.8969 79.5931 79.9938 81.4769C76.8596 83.4444 73.4858 85.0013 69.955 86.1094C69.2727 86.6694 68.4681 87.0608 67.6063 87.2519C65.1481 87.8519 56.7156 88.3031 56.0513 88.3031H55.8963C53.315 88.3031 51.8525 87.5031 51.065 86.665C48.8713 87.7619 46.0325 87.3087 43.9681 86.2188C43.4739 85.9765 43.0422 85.6236 42.7065 85.1874C42.3708 84.7512 42.1402 84.2435 42.0325 83.7037C41.9559 83.2639 41.9559 82.8142 42.0325 82.3744C41.8423 82.1762 41.6715 81.9602 41.5225 81.7294C40.3503 79.779 39.8389 77.5024 40.0644 75.2381C40.2519 72.8319 41.9169 70.6838 43.0006 69.5419C42.9103 66.9626 43.3628 64.3932 44.3288 62C45.3668 59.7743 46.8667 57.795 48.7288 56.1937C47.6644 54.4 46.5813 51.6388 47.6325 48.8256C48.3875 46.8194 49.0069 45.7031 50.3681 45.2256C50.9623 45.0541 51.5138 44.7596 51.9869 44.3612C53.9724 42.2044 56.7132 40.8963 59.6388 40.7094C59.7613 40.4 59.9031 40.0638 60.0581 39.7669C61.0906 37.5731 62.1869 36.3419 63.4706 35.8962C63.9356 35.7226 64.435 35.6614 64.9281 35.7175ZM64.5794 38.0281C62.89 38.0838 61.2325 43.09 61.2325 43.09C59.8341 42.9529 58.423 43.1439 57.1113 43.6479C55.7997 44.1518 54.6237 44.9549 53.6769 45.9931C52.9754 46.6694 52.1249 47.1715 51.1938 47.4588C50.9288 47.5488 50.6063 47.535 49.8063 49.6962C48.5806 52.9675 51.8969 56.6712 51.8969 56.6712C51.8969 56.6712 47.9419 59.465 46.4769 62.9425C45.4988 65.3267 45.1116 67.912 45.3481 70.4781C45.3481 70.4781 42.5356 72.9162 42.3556 75.4325C42.1877 77.1951 42.5876 78.9652 43.4969 80.4844C43.5679 80.6359 43.6685 80.7717 43.7929 80.8837C43.9172 80.9957 44.0628 81.0817 44.2209 81.1364C44.3791 81.1912 44.5466 81.2137 44.7136 81.2026C44.8806 81.1915 45.0436 81.1471 45.1931 81.0719C45.1931 81.0719 43.3225 83.2512 45.0706 84.1737C46.6644 85.0056 49.3481 85.4644 50.7675 84.0512C51.8 83.0194 52.0063 80.7169 52.3869 79.775C52.4769 79.5556 52.7869 80.1425 53.0838 80.42C53.3574 80.6593 53.6507 80.8751 53.9606 81.065C53.9606 81.065 51.4456 82.1488 52.4775 84.62C52.8194 85.4388 54.0388 85.9606 56.0325 85.9481C56.7744 85.9481 64.9094 85.4837 67.0769 84.9606C67.7325 84.8572 68.3298 84.5237 68.7619 84.02C72.2819 82.973 75.6437 81.4537 78.7556 79.5037C81.8131 77.51 83.065 76.9669 85.5356 76.38C87.5744 75.8963 87.4388 72.7363 84.7356 72.7812C81.9356 72.8138 79.4844 74.2581 77.4131 75.5481C73.5425 77.9419 71.6069 77.7875 71.6069 77.7875L71.5413 77.6781C71.2769 77.2456 72.7806 73.3681 71.0963 68.7487C69.2775 63.6975 66.3875 62.4781 66.6194 62.0906C67.6069 60.42 70.0781 57.7675 71.065 52.8256C71.6525 49.8319 71.4969 44.9031 70.1681 42.3225C69.9225 41.845 67.7294 43.1225 67.7294 43.1225C67.7294 43.1225 65.6775 38.5481 65.1038 38.1806C64.949 38.0768 64.7658 38.0235 64.5794 38.0281Z" fill="#2C8EBB"/>
</g>
<defs>
<clipPath id="clip0_71_200">
<rect width="80" height="80" fill="white" transform="translate(22 22)"/>
</clipPath>
</defs>
</svg>
